/* XPM */
static const char *Oak_Tree[] = {
/* columns rows colors chars-per-pixel */
"64 80 10 1 ",
"  c #091B15",
". c #3F2832",
"X c #743F39",
"o c #134C4C",
"O c #1E6F50",
"+ c #91533B",
"@ c #B86F50",
"# c #33984B",
"$ c #5AC54F",
"% c None",
/* pixels */
"%%%%%%%%%%%%%%%%%%%%%%%%%%%%%%%%%%%%%%%%%%%%%%%%%%%%%%%%%%%%%%%%",
"%%%%%%%%%%%%%%%%%%%%%%%%%%%%%%%%%%%%%%%%%%%%%%%%%%%%%%%%%%%%%%%%",
"%%%%%%%%%%%%%%%%%%%%%%%%%%%%%%%%%%%%%%%%%%%%%%%%%%%%%%%%%%%%%%%%",
"%%%%%%%%%%%%%%%%%%%%%%%%%%%%%%%%%%%%%%%%%%%%%%%%%%%%%%%%%%%%%%%%",
"%%%%%%%%%%%%%%%%%%%%%%%%%%%%%%%%%%%%%%%%%%%%%%%%%%%%%%%%%%%%%%%%",
"%%%%%%%%%%%%%%%%%%%%%%%%%%%%%%%%%%%%%%%%%%%%%%%%%%%%%%%%%%%%%%%%",
"%%%%%%%%%%%%%%%%%%%%%%%%%%%%%%%%%%%%%%%%%%%%%%%%%%%%%%%%%%%%%%%%",
"%%%%%%%%%%%%%%%%%%%%%%%%%%%%%%%%%%%%%%%%%%%%%%%%%%%%%%%%%%%%%%%%",
"%%%%%%%%%%%%%%%%%%%%%%%%%%%%%%%%%%%%%%%%%%%%%%%%%%%%%%%%%%%%%%%%",
"%%%%%%%%%%%%%%%%%%%%%%%%%%%%%%  %%%%%%%%%%%%%%%%%%%%%%%%%%%%%%%%",
"%%%%%%%%%%%%%%%%%%%%%   %  %% ##   %%%%%%%%%%%%%%%%%%%%%%%%%%%%%",
"%%%%%%%%%%%%%%%%%%%  ### ##  ### ## %  %%%%%%%%%%%%%%%%%%%%%%%%%",
"%%%%%%%%%%%%%%%%%% # $$## ####$$##$# ## %%%%%%%%%%%%%%%%%%%%%%%%",
"%%%%%%%%%%%%%%%%%  ## $$#$$##$$$#$$ ###   %%%%%%%%%%%%%%%%%%%%%%",
"%%%%%%%%%%%%%%%% $# #$$$$$$#$$$$$$$$#$$ $$ %%%%%%%%%%%%%%%%%%%%%",
"%%%%%%%%%%%%%%%% $$$$$$$$$$$$$$$$$$$$$$$$$   %%%%%%%%%%%%%%%%%%%",
"%%%%%%%%%%%%%%%  $$$$$$$$$$$$$$$$$$$$$$$$$ ## %%%%%%%%%%%%%%%%%%",
"%%%%%%%%%%%%%% ## ##$$$$$$$$$$$$$$$$$$$$$$#$#   %%%%%%%%%%%%%%%%",
"%%%%%%%%%%%%%% ##$$#$$$$$$$$$$$$$$$$$$$$$#$$# ## %%%%%%%%%%%%%%%",
"%%%%%%%%%%%%%%  ##$$$$$$$$$$$$$$$$$$$$$$$$$$ $$# %%%%%%%%%%%%%%%",
"%%%%%%%%%%%%% ## #$$##$$$$$$$$$$$$$$$$$$$$$#$$$# %%%%%%%%%%%%%%%",
"%%%%%%%%%%%%% #######$$$$$$$$$$$$$$$$$$$$$$$$$$   %%%%%%%%%%%%%%",
"%%%%%%%%%%%%%% ##$$#$$$$$$$$$$$$$$$$$$$$$$$$$$##$$ %%%%%%%%%%%%%",
"%%%%%%%%%%%%% ##$$##$$$$$$$$$$$$$$$$$$$$$$$$$$$##$ %%%%%%%%%%%%%",
"%%%%%%%%%%%%  #######$$$$$$$$$$$$$$$$$$$#$$$$$$$#  %%%%%%%%%%%%%",
"%%%%%%%%%%% ## #$$#$$#$$$$$$$$$$$$$$$$$#$$$$$$$$$## %%%%%%%%%%%%",
"%%%%%%%%%%% ##$$$#$$$$$$$$$$$$$$$$$$$$$##$$$$$#$$## %%%%%%%%%%%%",
"%%%%%%%%%%%% ##$$$$$$$$$$$$$$$$$$$$#$#####$$$##### %%%%%%%%%%%%%",
"%%%%%%%%%%%  ###$$$$$$$$$#$$$$$$$$$$##$########$# %%%%%%%%%%%%%%",
"%%%%%%%%%%% $ #$$$$$$$$$$###$$$$$$$$$$$$###$$##$$  %%%%%%%%%%%%%",
"%%%%%%%%%%% O##$$#$$$$$$##$#$$$$$$$$$$#####$$$#$$$$ %%%%%%%%%%%%",
"%%%%%%%%%%%% ##$###$$$$##$$$$$$$$$$$$$$##$##$$##$$$ %%%%%%%%%%%%",
"%%%%%%%%%%%%  ####$$$$$$##$$$$$$$$$$$$$$$$#######$ %%%%%%%%%%%%%",
"%%%%%%%%%%% O#####$$$$####$$$#$$$$$$$$$$$##$$#### %%%%%%%%%%%%%%",
"%%%%%%%%%%% OO ##$$$$$$##$$$##$$$###$$$$$$$$##### %%%%%%%%%%%%%%",
"%%%%%%%%%%%%  O##$$$#$$##$$####$$$#$$$$$$$$#####  %%%%%%%%%%%%%%",
"%%%%%%%%%%%%% ###$$#########$$##$$#$$#$$#$$$### OO %%%%%%%%%%%%%",
"%%%%%%%%%%%%% #############$$##########$##$$###OOO %%%%%%%%%%%%%",
"%%%%%%%%%%%% O#OO#######O###################O###O %%%%%%%%%%%%%%",
"%%%%%%%%%%%% OOO###OO##O#################O###O#  %%%%%%%%%%%%%%%",
"%%%%%%%%%%%%% OO##OO###OO##O########OO##OOO##O  %%%%%%%%%%%%%%%%",
"%%%%%%%%%%%%%   OOOO##OOOOO###O##O###OO##OOOOOOo %%%%%%%%%%%%%%%",
"%%%%%%%%%%%%%% oOOoOOOOOOOO##OO###O##OOOOOOooooo %%%%%%%%%%%%%%%",
"%%%%%%%%%%%%%% oo OOOOoOOOOOOOOO##OOOOOooOOo o  %%%%%%%%%%%%%%%%",
"%%%%%%%%%%%%%%%  oOOo oOOoOOOOOOOOOOoOOOooooo %%%%%%%%%%%%%%%%%%",
"%%%%%%%%%%%%%%%% ooo oOOoOOoOOoOOoOOOoOOo ooo %%%%%%%%%%%%%%%%%%",
"%%%%%%%%%%%%%%%%%   oo oOOoOOoooOOoOo oooo   %%%%%%%%%%%%%%%%%%%",
"%%%%%%%%%%%%%%%%%%%%  ooo oooo ooo ooo  oo %%%%%%%%%%%%%%%%%%%%%",
"%%%%%%%%%%%%%%%%%%%%% oo oooo . o . oo %  %%%%%%%%%%%%%%%%%%%%%%",
"%%%%%%%%%%%%%%%%%%%%%%   oo  ..  ...  %%%%%%%%%%%%%%%%%%%%%%%%%%",
"%%%%%%%%%%%%%%%%%%%%%%%%%  ..XX....X.%%%%%%%%%%%%%%%%%%%%%%%%%%%",
"%%%%%%%%%%%%%%%%%%%%%%%%%%%.+XX.XX.+.%%%%%%%%%%%%%%%%%%%%%%%%%%%",
"%%%%%%%%%%%%%%%%%%%%%%%%%%%.@+XX+X.+.%%%%%%%%%%%%%%%%%%%%%%%%%%%",
"%%%%%%%%%%%%%%%%%%%%%%%%%%%.@@+X@+XX.%%%%%%%%%%%%%%%%%%%%%%%%%%%",
"%%%%%%%%%%%%%%%%%%%%%%%%%%%.@+XX@+X+.%%%%%%%%%%%%%%%%%%%%%%%%%%%",
"%%%%%%%%%%%%%%%%%%%%%%%%%%%.X+X@@+X+.%%%%%%%%%%%%%%%%%%%%%%%%%%%",
"%%%%%%%%%%%%%%%%%%%%%%%%%%%.XXX+@XX+.%%%%%%%%%%%%%%%%%%%%%%%%%%%",
"%%%%%%%%%%%%%%%%%%%%%%%%%%%.+X.+XX++.%%%%%%%%%%%%%%%%%%%%%%%%%%%",
"%%%%%%%%%%%%%%%%%%%%%%%%%%.@++.XX.X+@.%%%%%%%%%%%%%%%%%%%%%%%%%%",
"%%%%%%%%%%%%%%%%%%%%%%%%%%.@@+.+...@@.%%%%%%%%%%%%%%%%%%%%%%%%%%",
"%%%%%%%%%%%%%%%%%%%%%%%%%.@++.X+@...+@.%%%%%%%%%%%%%%%%%%%%%%%%%",
"%%%%%%%%%%%%%%%%%%%%%%%%%.@X..X@@.%.X+@.%%%%%%%%%%%%%%%%%%%%%%%%",
"%%%%%%%%%%%%%%%%%%%%%%%%.@X.%%.+@.%%%%%%%%%%%%%%%%%%%%%%%%%%%%%%",
"%%%%%%%%%%%%%%%%%%%%%%%%%%%%%%..+@.%%%%%%%%%%%%%%%%%%%%%%%%%%%%%",
"%%%%%%%%%%%%%%%%%%%%%%%%%%%%%%%%%%%%%%%%%%%%%%%%%%%%%%%%%%%%%%%%",
"%%%%%%%%%%%%%%%%%%%%%%%%%%%%%%%%%%%%%%%%%%%%%%%%%%%%%%%%%%%%%%%%",
"%%%%%%%%%%%%%%%%%%%%%%%%%%%%%%%%%%%%%%%%%%%%%%%%%%%%%%%%%%%%%%%%",
"%%%%%%%%%%%%%%%%%%%%%%%%%%%%%%%%%%%%%%%%%%%%%%%%%%%%%%%%%%%%%%%%",
"%%%%%%%%%%%%%%%%%%%%%%%%%%%%%%%%%%%%%%%%%%%%%%%%%%%%%%%%%%%%%%%%",
"%%%%%%%%%%%%%%%%%%%%%%%%%%%%%%%%%%%%%%%%%%%%%%%%%%%%%%%%%%%%%%%%",
"%%%%%%%%%%%%%%%%%%%%%%%%%%%%%%%%%%%%%%%%%%%%%%%%%%%%%%%%%%%%%%%%",
"%%%%%%%%%%%%%%%%%%%%%%%%%%%%%%%%%%%%%%%%%%%%%%%%%%%%%%%%%%%%%%%%",
"%%%%%%%%%%%%%%%%%%%%%%%%%%%%%%%%%%%%%%%%%%%%%%%%%%%%%%%%%%%%%%%%",
"%%%%%%%%%%%%%%%%%%%%%%%%%%%%%%%%%%%%%%%%%%%%%%%%%%%%%%%%%%%%%%%%",
"%%%%%%%%%%%%%%%%%%%%%%%%%%%%%%%%%%%%%%%%%%%%%%%%%%%%%%%%%%%%%%%%",
"%%%%%%%%%%%%%%%%%%%%%%%%%%%%%%%%%%%%%%%%%%%%%%%%%%%%%%%%%%%%%%%%",
"%%%%%%%%%%%%%%%%%%%%%%%%%%%%%%%%%%%%%%%%%%%%%%%%%%%%%%%%%%%%%%%%",
"%%%%%%%%%%%%%%%%%%%%%%%%%%%%%%%%%%%%%%%%%%%%%%%%%%%%%%%%%%%%%%%%",
"%%%%%%%%%%%%%%%%%%%%%%%%%%%%%%%%%%%%%%%%%%%%%%%%%%%%%%%%%%%%%%%%",
"%%%%%%%%%%%%%%%%%%%%%%%%%%%%%%%%%%%%%%%%%%%%%%%%%%%%%%%%%%%%%%%%"
};
