/* XPM */
static char *b1e8bef9115040179260d9f344ece27bHmHbKfpjtyUTpcEd[] = {
/* columns rows colors chars-per-pixel */
"48 48 14 1 ",
"  c #69B21A",
". c #69B21B",
"X c #56B128",
"o c #49B131",
"O c #22B14C",
"+ c #81B20B",
"@ c #80B30B",
"# c #85B50B",
"$ c #9FC308",
"% c #ABC906",
"& c #B6CF06",
"* c #B7D006",
"= c #FFF200",
"- c #FFF400",
/* pixels */
"++++++++++++++++++++++++++++++++++++++++++++++++",
"++++++++++++++++++++++++++++++++++++++++++++++++",
"+++++++++++++++++ ++++++++++++++++++++++++++++##",
"++++++++++++++++++++++++++++++++++++++++++++++++",
"++++++++++++++++++++++++++++++++++++++++++++++++",
"++++++++++++++++++++++++++++++++++++++++++++++++",
"++++++++++++++++++++++++++++++++++++++++++++++++",
"++++++++++++++++++++++++++++++++++++++++++++++++",
"++++++++++ +++++++++++++++++++++++++++++++++++++",
"+++++++++++++++++++++++++++++++++++++++ ++++++++",
"++++++++++++++++++++++++++++++++++++++++++++++++",
"++++++++++++++++++++++++++++++++++++++++ +++++++",
"++++++++++++++++++++++++++++++++++++++++++++++++",
"++++++++++++++++++++++++++++++++++++++++++++++++",
"++++++++++++++++++++++++++++++++++++++++++++++++",
"++++++++++++++++ +++++++++++++++++++++++++++++++",
"++++++++++++++++++++++++++++++++++++++++++++++++",
"++++++++++++++++++++++++++++++++++++++++++++++++",
"++++++++++++++++++++++++++++++++++++++++++++++++",
"++++++++++++++++++++++++++++++++++++++++++++++++",
"++++++++++++++++++++++++++++++++++++++++++++++++",
"++++++++++++++++++++++++++++++++++++++++++++++++",
"++++++++++++++++++++++++++++++++++++++++++++++++",
"+++++++++&=++++++++++++++++++ ++++++++++++++++++",
"++++++*==&=+++++++++++++++++++++++++++++++++++++",
"++++++-=%&=+++++++++++++++++++++++++++++++++++++",
"++++++--$==+++++++++++++++++++++++++++++++++++++",
"++++++---==+++++++++++++++++++++++++++++++++++++",
"++++++=--==+++++++++++++++++++++++++++++++++++++",
"+++++++===++++++++++++++++++++++++++++++++++++++",
"+++++++ =O++++++++++++++++++++++++++++++++++++++",
"+++++++ O+++++++++++++++++++++++++++++++++++++++",
"++++++++OO++++++++++++++++++ +++++++++++++++++++",
"++++++++ O++++++++++++++++++++++++++++++++++++++",
"+++++++++OO+++++++++++++++++++++++++++++++++++++",
"+++++++++ O+++++++++++++++++++++++++++++++++++++",
"+++++++++ OXXXX+++++++++++++++++++++++++++++++++",
"+++++   XoOOOOOO++++++++++++++++++++++++++++++++",
"+++++ OOOOOOOOOO++++++++++++++++++++++++++++++++",
"++++++OOOOO++OOO++++++++++++++++++++++++++++++++",
"++++++++++++++++++++++ +++++++++++++++++++++++++",
"++++++++++++++++++++++++++++++++++++++++++++++++",
"++++++++++++++++++++++++++++++++++++++++++++++++",
"+++++++++++++++++++++++++++++++++++++++++++++++ ",
"++++++++++++++++++++++++++++++++++++++++++++++++",
"++++++++++++++++++++++++ +++++++++++++++++++++++",
"++++++++++++++++++++++++++++++++++++++++++++++++",
"++++++++++++++++++++++++++++++++++++++++++++++++"
};
