/* XPM */
static const char *House_in_farmland[] = {
/* columns rows colors chars-per-pixel */
"48 48 145 2 ",
"   c #55282C",
".  c #5B282B",
"X  c #472C32",
"o  c #4C2E33",
"O  c #522F34",
"+  c #553234",
"@  c #5C3535",
"#  c #5F3933",
"$  c #642A2C",
"%  c #6C2B2D",
"&  c #742D2E",
"*  c #782E2F",
"=  c #61312C",
"-  c #73312F",
";  c #622E32",
":  c #6B2F31",
">  c #702E30",
",  c #7C2F30",
"<  c #623635",
"1  c #6A3233",
"2  c #633A35",
"3  c #6B3D36",
"4  c #653C39",
"5  c #6C3C39",
"6  c #753333",
"7  c #7C3131",
"8  c #723B34",
"9  c #7C3B36",
"0  c #733E39",
"q  c #7C3C3A",
"w  c #6B4132",
"e  c #6C413B",
"r  c #724335",
"t  c #7B4037",
"y  c #774834",
"u  c #7A4A35",
"i  c #744339",
"p  c #7B4539",
"a  c #7E4839",
"s  c #7B5336",
"d  c #31415C",
"f  c #5F4442",
"g  c #6A4D49",
"h  c #774040",
"j  c #764A41",
"k  c #7B4B41",
"l  c #61514F",
"z  c #625350",
"x  c #833232",
"c  c #8D3534",
"v  c #833C37",
"b  c #833D3A",
"n  c #893E39",
"m  c #804037",
"M  c #83443B",
"N  c #8D423C",
"B  c #834A3A",
"V  c #8A4E3B",
"C  c #95433C",
"Z  c #9B453D",
"A  c #954E3F",
"S  c #9F483F",
"D  c #865B37",
"F  c #87513B",
"G  c #8D503B",
"H  c #92533B",
"J  c #A0473E",
"K  c #A4493F",
"L  c #814443",
"P  c #8D4441",
"I  c #8F4A47",
"U  c #944641",
"Y  c #944945",
"T  c #9C4A44",
"R  c #954B49",
"E  c #9E4F4C",
"W  c #865142",
"Q  c #8A5444",
"!  c #825648",
"~  c #915743",
"^  c #9A5542",
"/  c #9D5D43",
"(  c #995D48",
")  c #A34B42",
"_  c #AA4D43",
"`  c #A34E48",
"'  c #B34E43",
"]  c #A15D47",
"[  c #A4524E",
"{  c #AE544D",
"}  c #A45F48",
"|  c #B35145",
" . c #B45045",
".. c #B95245",
"X. c #BD5346",
"o. c #B2534A",
"O. c #B3544B",
"+. c #B95449",
"@. c #B9554A",
"#. c #BF594E",
"$. c #A95451",
"%. c #B15751",
"&. c #B35955",
"*. c #BE5B52",
"=. c #BD5C54",
"-. c #A36247",
";. c #A3634B",
":. c #A66149",
">. c #A76548",
",. c #A7644A",
"<. c #A9654A",
"1. c #AD684C",
"2. c #AE684C",
"3. c #B26B4E",
"4. c #B36C4E",
"5. c #B66E4F",
"6. c #B76F50",
"7. c #B86F50",
"8. c #C05547",
"9. c #C25648",
"0. c #C2594D",
"q. c #BF824E",
"w. c #D18D57",
"e. c #D38F58",
"r. c #D79258",
"t. c #D99359",
"y. c #C99264",
"u. c #E4A672",
"i. c #215E88",
"p. c #1A6490",
"a. c #1B769D",
"s. c #2D6880",
"d. c #226F8F",
"f. c #216C95",
"g. c #1A83A5",
"h. c #2195AB",
"j. c #1EACC0",
"k. c #02ACDE",
"l. c #009FE3",
"z. c #00B3EE",
"x. c #06C1E5",
"c. c #09D0EA",
"v. c #00C5F5",
"b. c #00D1FE",
"n. c #02DFFF",
/* pixels */
"u.u.u.u.u.t.t.t.t.t.t.u.u.u.u.u.u.u.u.u.u.t.t.t.t.t.t.u.u.u.u.u.u.u.u.u.u.t.t.t.t.t.t.u.u.u.u.u.",
"u.u.u.t.t.t.t.t.t.t.t.t.t.t.u.u.u.u.t.t.t.t.w.w.w.e.t.t.t.t.u.u.u.u.t.t.t.t.t.t.t.t.t.t.t.u.u.u.",
"u.u.t.t.t.7.7.7.7.7.7.t.t.t.t.t.t.t.t.t.t.;.Q W B a ;.t.t.t.t.t.t.t.t.t.t.7.7.7.7.7.7.t.t.t.u.u.",
"u.t.t.7.7.7.7.7.7.7.7.7.7.7.t.t.t.t.7.7.5.k ~ H H a k 5.7.7.t.t.t.t.7.7.7.7.7.7.7.7.7.7.7.t.t.u.",
"u.t.7.7.7.7.7.7.7.7.7.7.7.7.7.7.7.7.7.2.A < ~ H H a . M 2.7.7.7.7.7.7.7.7.7.7.7.7.7.7.7.7.7.t.u.",
"t.t.7.7.7.7.7.7.7.7.7.7.7.7.7.7.7.7.] m  .1 ~ H H a . & 8 / 7.7.7.7.7.7.7.7.7.7.7.7.7.7.7.7.t.t.",
"t.7.7.7.7.7.7.7.7.7.7.7.7.7.7.7.3.^ ) b ` ; ~ H H a   % . 6 V 3.7.7.7.7.7.7.7.7.7.7.7.7.7.7.7.t.",
"t.7.7.7.7.7.7.7.7.7.7.7.7.7.7.:.T .. .N ' 1 ~ H H a . & $ & & m >.7.7.7.7.7.7.7.7.7.7.7.7.7.7.t.",
"t.7.7.7.7.7.7.7.7.7.7.7.7.5.] q %._ K 9.) ; ~ H H a   % & % & x 1 ^ 5.7.7.7.7.7.7.7.7.7.7.7.7.t.",
"t.7.7.7.7.7.7.7.7.7.7.7.2.^ | C P 9 o.Z _ 1 ~ H H a . % % c $ & % & B 2.7.7.7.7.7.7.7.7.7.7.7.t.",
"t.7.7.7.7.7.7.7.7.7.7.:.q _ | Z X.n U v o.; ~ H H a   % . % $ & % & & 1 ] 7.7.7.7.7.7.7.7.7.7.t.",
"u.t.7.7.7.7.7.7.7.3.^ _ C U 9 +._ _ X.v ) 1 ~ H H a . % . & % & , $ % $ 6 V 4.7.7.7.7.7.7.7.t.u.",
"u.t.7.7.7.7.7.7.<.M { #.Z  .n q { +.J ..' ; ~ H H a   & & % & & $ $ & % * x 0 >.7.7.7.7.7.7.t.u.",
"u.t.7.7.7.7.5./ ) C R b +._ K C R b *._ Z 1 ~ H H a . % & * $ & $ % & * $ 7 $ 6 ^ 5.7.7.7.7.t.u.",
"u.u.t.7.7.2.B ) 0.Z _ n M ) 0.Z _ n T 9 +.< ~ H H a   & $ & $ % % x 7 % $ % % x 7 M 2.7.7.t.u.u.",
"u.u.t.6.} ) N T b +. .Z n T M *. .Z  .9 T ; ~ H H a   % . & % & & % x $ % & & % x $ 9 ] 6.t.u.u.",
"u.u.t.5.M 0.C ) b P ) 9.C ) n Y ) 9.K _ ..< ~ H H a   & % % * * & $ % $ * * & $ % & c 9 5.t.u.u.",
"u.u.t.5.M P +...C v T N  ...C v T N +...Z ; ~ H H a   % & & % x $ $ & & % x $ $ & & - t 5.t.u.u.",
"u.t.7.7.2.a E ) 9.C Z b T ) 9.C Z b [ b ..1 ~ H H a . & $ * $ % $ & % & $ % $ & % & t 2.7.7.t.u.",
"u.t.7.6.2.N v ` U o.X.C 9 ` C _ X.N _ v T ; ~ H H a   % . % $ & * $ % $ $ , * % & $ 9 2.6.7.t.u.",
"u.t.7.5.V X.C C b $.) 8.C C b ` ) X.' C ' 1 ~ H H a . & $ & & % x $ $ $ & & x $ % % * t 5.7.t.u.",
"t.7.7.5.m T _ 9.N 9 _ ) _ 8.N 9 _ T _ 9.U + Q ^ H B O : & % & & $ $ & % & & $ $ & & & 8 5.7.7.t.",
"t.7.7.6.] p &.` ..C N b &.) ..C N b &.M < o 4 i 0 4 o < 1 7 $ % $ & % , $ % $ & % c = w -.7.7.t.",
"t.7.7.7.6.M 9 %._ K X.n 9 _ _ ) 9.q 4 < < + + @ @ + + < < < $ * % & & $ $ & % & & $ = w / 7.7.t.",
"t.7.7.5.~ | C P 9 O.)  .C N b =.I 2 + 2 5 @ @ i i + @ p 2 + < 6 c $ % $ & & , $ % $ & 3 <.7.7.t.",
"t.7.7.5.m o.S X.n 9 _  .Z X.b 5 < 2 @ p p 2 2 G B + @ B 5 @ 2 < 1 $ & % & x $ $ & % 7 8 6.7.7.t.",
"t.7.7.5.~ q +._ _ C P 9 +.Y 3 @ + p < p i 2 3 H B + @ B 3 5 p + @ < 6 c % & $ % & c $ 3 <.7.7.t.",
"u.t.7.7.7.M q { #.Z  .b h < @ 5 @ V 2 a p 2 e / B + @ B 5 e M + 5 @ < 1 $ & % * x % = r / 7.t.u.",
"u.t.7.6./ ) C R b +.` 4 < + 2 p @ V 2 a p 2 i / B + @ V 5 r B @ V < + < < : * $ , $ % 3 -.7.t.u.",
"u.t.7.5.m #.Z _ b L 4 + 3 2 r p @ G 2 i p 2 i / B + @ B 5 r B @ G 2 5 5 + < 1 $ % % 7 8 5.7.t.u.",
"u.u.t.5.B M *.O.5 @ < + B 5 r B @ V < a p 2 i / B + @ B 5 r B @ V < a p + < @ < > x % 8 3.t.u.u.",
"u.u.t.7.4.M R 3 < + 5 @ B 3 r B @ V < a p 2 i / B + @ B 5 r B @ G 2 p i 2 5 + < < 9 = w / t.u.u.",
"u.u.t.7.7.i @ < i < 2 @ r 2 2 r @ i @ 5 3 @ e / B + @ r 2 2 r @ i @ 3 3 # 2 < i < @ @ y / t.u.u.",
"u.u.t.7.7.( e i G 2 2 5 5 5 5 5 5 5 5 5 5 3 4 / B + 3 5 5 5 5 5 5 5 5 5 5 2 2 G i + 2 -.5.t.u.u.",
"u.t.7.7.7.7.Q B H 2 3 p i i i i i i i i i i e / B @ i p p p p p p p p p p 3 2 H B # r F 2.7.t.u.",
"u.t.7.7.7.7.Q ~ H 2 5 i a i i i i 3 3 e r i e / B @ p p a a a a a a a a p 5 2 H ~ # r w / 7.t.u.",
"u.t.7.7.7.7.Q ~ H < @ 2 k o + @ + @ X @ 2 < 3 / B + e r < k e e e 3 2 2 r 2 2 H ~ # r u -.7.t.u.",
"t.7.7.7.7.7.Q ~ H < 3 3 i O @ 5 5 5 + @ 2 5 e / B @ a B 3 g h.j.j.s.@ 3 B r 2 H ~ # r -.5.7.7.t.",
"t.7.7.7.7.7.Q ~ H < @ # i < 5 0 0 0 3 2 2 @ 4 / B + 3 3 2 z c.n.b.g.@ @ 5 2 2 H ~ # r >.7.7.7.t.",
"t.7.7.7.7.7.Q ~ H < 3 3 e < 5 0 0 0 0 # 2 0 e / B @ B B 5 l x.v.z.a.@ 5 V i 2 H ~ # r >.7.7.7.t.",
"t.7.7.7.7.7.Q ~ H < @ @ e 2 0 0 5 j i @ 2 @ 4 / B + 2 2 2 f k.z.l.p.@ @ 3 @ < H ~ # r >.7.7.7.t.",
"t.7.7.7.7.7.Q ~ H < 5 3 2 @ 0 0 3 ! k + 2 r e / B @ B B 2 f d.f.i.d + e V i 2 H ~ # r >.7.7.7.t.",
"t.7.7.7.7.7.Q ~ H < @ @ 2 + 0 0 2 5 < @ 2 @ 4 / B + 2 3 # 2 < < < < @ # 3 @ 2 H ~ # r >.7.7.7.t.",
"u.t.7.7.7.7.Q ~ H < 3 3 2 X 2 2 + 2 + + 2 r e / B @ B V G V G G G G G G V i 2 H ~ # y >.7.7.t.u.",
"u.t.7.7.7.7.Q Q G @ @ @ 2 2 2 2 2 2 2 # @ @ 4 ( p + 2 3 3 3 3 3 3 3 3 3 3 @ @ G Q 2 r >.7.7.t.u.",
"u.u.t.7.7.7./ w 2 2 w w w r D D D D r w w w w 3 2 3 w w w w s s s s w w w w 2 2 3 w y <.7.t.u.u.",
"u.u.u.t.t.7.5.>.-.-.-.w.w.q.y.y.y.y.q.q.q.-.-.-.-.-.-.q.q.q.y.y.y.y.q.q.w.-.-.-.-.-.<.r.t.u.u.u.",
"u.u.u.u.u.t.t.t.t.r.t.u.u.u.u.u.u.u.u.u.u.t.t.t.t.t.t.u.u.u.u.u.u.u.u.u.u.t.t.t.t.t.t.u.u.u.u.u."
};
