/* XPM */
static char *hutte[] = {
/* columns rows colors chars-per-pixel */
"48 48 63 1 ",
"  c #000000",
". c #171716",
"X c #464646",
"o c #535352",
"O c #775140",
"+ c #616262",
"@ c #686867",
"# c #6C6D6C",
"$ c #727373",
"% c gray49",
"& c #8C4F35",
"* c #87553E",
"= c #88563E",
"- c #9C5A3B",
"; c #A3603E",
": c #8C5A40",
"> c #946049",
", c #9F6449",
"< c #8C6654",
"1 c #966A56",
"2 c #A66342",
"3 c #AE7447",
"4 c #AF7348",
"5 c #B67C4C",
"6 c #A26F58",
"7 c #A27159",
"8 c #B67751",
"9 c #856B60",
"0 c #8E7164",
"q c #997361",
"w c #BC8650",
"e c #948071",
"r c #C28A54",
"t c #C4865C",
"y c #C79457",
"u c #CE9E5D",
"i c #D29669",
"p c #DA9F71",
"a c #DEB569",
"s c #E0B768",
"d c #E5BD6D",
"f c #E5AA7A",
"g c #E5B176",
"h c #E7BD71",
"j c #E7C16E",
"k c #E7C373",
"l c #E8C575",
"z c #858586",
"x c #8F8F8F",
"c c #9C9893",
"v c #999999",
"b c #A6A5A4",
"n c #B3AAA4",
"m c #B6B3AE",
"M c #B9B4AC",
"N c #B4B4B4",
"B c #D8AC87",
"V c #D3AC8C",
"C c #E9B981",
"Z c #C5B5A0",
"A c #ECC487",
"S c #F4DE99",
"D c #F5E49D",
/* pixels */
"ffffffffffffghjjjjjrhjjggfffffffffffffffffffffff",
"fffffffffffghdjjjjjjijjjdfffffffffffffffffffffff",
"fffffffffffjjjjjjjj--jjjjjgfffffffffffffffffffff",
"ffffffffffhjjjjjdjh;-sjjjjhgffffffffffffffffffff",
"fffffffffghjjjjjjsw53--dhjjjgfffffffffffffffffff",
"fffffffgsjjjjjjj-ajhs3-;ihjjhfffffffffffffffffff",
"fffffffjjjjjjjj--jjjjj3--ijjjhgfffffffffffffffff",
"ffffffgjjjjjja334kjjjjjw3-djjjhgfgffffffffffffff",
"ffffffhjhjjdwyadjjjjjjjjs--djjjjgjffffffffffffff",
"ffffffhkjjhsjjjjjjjjjjjjjj--djjjjjjfffffffffffff",
"ffffffhjjj;jjjjjjjjjjjdkjj---hjjjkjfffffffffffff",
"ffiiiiiidt-sjjjhjjjjjjkkdi;---dddjjfffffffffffff",
"ff;2r2;2;---22222222sa22222---;;2aiiipffffffffff",
"ff-wj;---------2-----------------;-228ffffffffff",
"ffrjjj;---22222222222222222,>---2u-w4--fffffffff",
"ffdjjji==-BV  ..XXXXXX..  bNxX---jddatgfffffffff",
"fhjjhh2*XXXb  .XXXXXXXX.  #N#XX**ufkdjjgffffffff",
"fjjjh:=9XNN#M .XXNNNNXX.  X+$@XvXX-dkjhjfgffffff",
"hhjjh*XXXNNXX .XXNNNNXX.  #NvvXNXX-dhjjjjhgfffff",
"ddjj;<XvXNN$N .&&NN&&XXt2 cceXXNvX--djjjjjjfffff",
"jjh;:0XNXXXc&&&&&&&&&&;&-&#XXXXvvXv--djhjjjjgfff",
"jjj*1XXvvXNo&;&&-&&--&&&-&XXNX$XXXvX--jhjjjjhfff",
"jj;OXXvvXXcX&-&&&-&&&-&&&-#Nv$+NNzvX--ahjjjhjhgf",
"ji-0XXXXXXoo&-&-&-&&--&-*-NNbXXXczXXN;--djjkjjff",
"d;:cXXmNv+XX&-&-&-&-&-&X&-nvvXXXXXXzvN::-djjjhff",
"i-0XMXNNvXXX&-&&-&&---&2&7nXXXXNNNNXXXvXX-djjkff",
";-<XNcNcvXom&&-&--&-&-&-&eMNNvXNNNxzXXXXX--djjff",
"-->XVcXcXXcb&&-&-&&-&-&-&&NNNzXvxvzXXvNNN--klfff",
"-6cXz%XzXXo@&&&&&&&-&&&&-&8NNqXxXXXXXXXzvN---fff",
"--ZXXXXXXXXXX&&&&-&&&--&&&CNXXXXXXNNXXXXXX2-;fff",
"-BffffCCCXX#N&22222&222C2CCM#ZCCgCCffffffff8ffff",
"-ffffCSSSSSSSSSSSSSSSSSSSSSSSSSSSSDCCCCCffffffff",
"ffffffDDDDDDDDDDDDDDDDDDDDDDDDDDDDDDSSSSffffffff",
"ffffffDDDDDDDDDDDDDDDDDDDDDDDDDDDDDDDDDDDfffffff",
"ffffffSDDDDDDDDDDDDDDDDDDDDDDDDDDDDDDSDDDfffffff",
"fffffCCDDDDDDDDDDDDDDDDDDDDDDDDDDDDDDDDDDfffffff",
"fffffSDDDDDDDDDDDDDDDDDDDDDDDDDDDDDDDDDSffffffff",
"fffCCSDDDDDDDDDDDDDDDDDDDDDDDDDDDDDDDfffffffffff",
"fffSDDDDDDDDDDDDDDDDDDDDDDDDDDDDDDDDDfffffffffff",
"fffSDDDDDDDDDDDDDDDDDDDDDDDDDDDDDDDDDDACffffffff",
"fffSDDDDDDDDDDDDDDDDDDDDDDDDDDDDDDDDDDDSffffffff",
"fffCSDDDDDDDDDDDDDDDDDDDDDDDDDDDDDDDDDDDDCffffff",
"ffCACDDDDDDDDDDDDDDDDDDDDDDDDDDDDDDDDDDDDSffffff",
"fCDDDDDDDDDDDDDDDDDDDDDDDDDDDDDDDDDDDDDDDDDfffff",
"CSDDDDDDDDDDDDDDDDDDDDDDDDDDDDDDDDDDSDDSDSffffff",
"SSDDDDDDDDDDDDDDDDDDDDDDDDDDDDDDDDDDffffffffffff",
"DDDDDDDDDDDDDDDDDDDDDDDDDDDDDDDDDDDfffffffffffff",
"DDDDDDDDDDDDDDDDDDDDDDDDDDDDDDDDDDffffffffffffff"
};
