/* XPM */
static const char *P_back[] = {
/* columns rows colors chars-per-pixel */
"48 48 14 1 ",
"  c #E4A672",
". c #D99359",
"X c #B86F50",
"o c #0E071B",
"O c #5D2C28",
"+ c #704643",
"@ c #134C4C",
"# c #D29F70",
"$ c #1E6F50",
"% c #33984B",
"& c #0098DC",
"* c #0069AA",
"= c #6F4330",
"- c white",
/* pixels */
"     ......          ......          ......     ",
"   ...........    ............    ...........   ",
"  ...XXXXXX..........XXXXXX..........XXXXXX...  ",
" ..XXXXXXXXXXX....XXXXXXXXXXXX....XXXXXXXXXXX.. ",
" .XXXXXXXXXXXXXXXXXXXXXXXXXXXXXXXXXXXXXXXXXXXX. ",
"..XXXXXXXXXXXXXXXXXXXXXXXXXXXXXXXXXXXXXXXXXXXX..",
".XXXXXXXXXXXXXXXXXXXXXXXXXXXXXXXXXXXXXXXXXXXXXX.",
".XXXXXXXXXXXXXXXXXXXXXXXXXXXXXXXXXXXXXXXXXXXXXX.",
".XXXXXXXXXXXXXXXXXXXXXXXXXXXXXXXXXXXXXXXXXXXXXX.",
".XXXXXXXXXXXXXXXXXXXXXXXXXXXXXXXXXXXXXXXXXXXXXX.",
".XXXXXXXXXXXXXXXXXXXXXXXXXXXXXXXXXXXXXXXXXXXXXX.",
" .XXXXXXXXXXXXXXXXXXXXXXXXXXXXXXXXXXXXXXXXXXXX. ",
" .XXXXXXXXXXXXXXXXXXXXXXXXXXXXXXXXXXXXXXXXXXXX. ",
" .XXXXXXXXXXXXXXXXXXXXXXXXXXXXXXXXXXXXXXXXXXXX. ",
"  .XXXXXXXXXXXXXXXXXXXXXXXXXXXXXXXXXXXXXXXXXX.  ",
"  .XXXXXXXXXXXXXXXXXXXXXXXXXXXXXXXXXXXXXXXXXX.  ",
"  .XXXXXXXXXXXXXXXXXXXoooooooXXXXXXXXXXXXXXXX.  ",
"  .XXXXXXXXXXXXXXXXXXoOO+++OOoXXXXXXXXXXXXXXX.  ",
" .XXXXXXXXXXXXXXXXXXoO+++++++OoXXXXXXXXXXXXXXX. ",
" .XXXXXXXXXXXXXXXXXXo+++++++++oXXXXXXXXXXXXXXX. ",
" .XXXXXXXXXXXXXXXXXo+++++++++++oXXXXXXXXXXXXXX. ",
".XXXXXXXXXXXXXXXXXXo+++++++++++oXXXXXXXXXXXXXXX.",
".XXXXXXXXXXXXXXXXXXoO+++++++++OoXXXXXXXXXXXXXXX.",
".XXXXXXXXXXXXXXXXXXoOOO+++++OOOoXXXXXXXXXXXXXXX.",
".XXXXXXXXXXXXXXXXXXXoOOOOOOOOOoXXXXXXXXXXXXXXXX.",
".XXXXXXXXXXXXXXXXXXXoOOOOOOOOOoXXXXXXXXXXXXXXXX.",
".XXXXXXXXXXXXXXXXXXXXooOOOOOooXXXXXXXXXXXXXXXXX.",
" .XXXXXXXXXXXXXXXXXXoo@ooooo@ooXXXXXXXXXXXXXXX. ",
" .XXXXXXXXXXXXXXXXXo##@$%%%$@##oXXXXXXXXXXXXXX. ",
" .XXXXXXXXXXXXXXXXXo##@$$%%$@##oXXXXXXXXXXXXXX. ",
"  .XXXXXXXXXXXXXXXXXoo&******ooXXXXXXXXXXXXXX.  ",
"  .XXXXXXXXXXXXXXXXX=o&**o***o=XXXXXXXXXXXXXX.  ",
"  .XXXXXXXXXXXXXXXX==oOOo=oOOo==XXXXXXXXXXXXX.  ",
"  .XXXXXXXXXXXXXXXX=============XXXXXXXXXXXXX.  ",
" .XXXXXXXXXXXXXXXXXX===========XXXXXXXXXXXXXXX. ",
" .XXXXXXXXXXXXXXXXXXXXXXXXXXXXXXXXXXXXXXXXXXXX. ",
" .XXXXXXXXXXXXXXXXXXXXXXXXXXXXXXXXXXXXXXXXXXXX. ",
".XXXXXXXXXXXXXXXXXXXXXXXXXXXXXXXXXXXXXXXXXXXXXX.",
".XXXXXXXXXXXXXXXXXXXXXXXXXXXXXXXXXXXXXXXXXXXXXX.",
".XXXXXXXXXXXXXXXXXXXXXXXXXXXXXXXXXXXXXXXXXXXXXX.",
".XXXXXXXXXXXXXXXXXXXXXXXXXXXXXXXXXXXXXXXXXXXXXX.",
".XXXXXXXXXXXXXXXXXXXXXXXXXXXXXXXXXXXXXXXXXXXXXX.",
".XXXXXXXXXXXXXXXXXXXXXXXXXXXXXXXXXXXXXXXXXXXXXX.",
" .XXXXXXXXXXXXXXXXXXXXXXXXXXXXXXXXXXXXXXXXXXXX. ",
" .XXXXXXXXXXXXXXXXXXXXXXXXXXXXXXXXXXXXXXXXXXXX. ",
"  .XXXXXXXXXXX....XXXXXXXXXXXX....XXXXXXXXXXX.  ",
"   ..XXXXXX...    ...XXXXXX...    ...XXXXXX..   ",
"     ......          ......          ......     "
};
