/* XPM */
static const char *P_left[] = {
/* columns rows colors chars-per-pixel */
"48 48 15 1 ",
"  c #E4A672",
". c #D99359",
"X c #B86F50",
"o c #0E071B",
"O c #5D2C28",
"+ c #704643",
"@ c #D29F70",
"# c #F6CA9F",
"$ c #134C4C",
"% c #33984B",
"& c #1E6F50",
"* c #0098DC",
"= c #6F4330",
"- c #0069AA",
"; c white",
/* pixels */
"     ......          ......          ......     ",
"   ...........    ............    ...........   ",
"  ...XXXXXX..........XXXXXX..........XXXXXX...  ",
" ..XXXXXXXXXXX....XXXXXXXXXXXX....XXXXXXXXXXX.. ",
" .XXXXXXXXXXXXXXXXXXXXXXXXXXXXXXXXXXXXXXXXXXXX. ",
"..XXXXXXXXXXXXXXXXXXXXXXXXXXXXXXXXXXXXXXXXXXXX..",
".XXXXXXXXXXXXXXXXXXXXXXXXXXXXXXXXXXXXXXXXXXXXXX.",
".XXXXXXXXXXXXXXXXXXXXXXXXXXXXXXXXXXXXXXXXXXXXXX.",
".XXXXXXXXXXXXXXXXXXXXXXXXXXXXXXXXXXXXXXXXXXXXXX.",
".XXXXXXXXXXXXXXXXXXXXXXXXXXXXXXXXXXXXXXXXXXXXXX.",
".XXXXXXXXXXXXXXXXXXXXXXXXXXXXXXXXXXXXXXXXXXXXXX.",
" .XXXXXXXXXXXXXXXXXXXXXXXXXXXXXXXXXXXXXXXXXXXX. ",
" .XXXXXXXXXXXXXXXXXXXXXXXXXXXXXXXXXXXXXXXXXXXX. ",
" .XXXXXXXXXXXXXXXXXXXXXXXXXXXXXXXXXXXXXXXXXXXX. ",
"  .XXXXXXXXXXXXXXXXXXXXXXXXXXXXXXXXXXXXXXXXXX.  ",
"  .XXXXXXXXXXXXXXXoooooooXXXXXXXXXXXXXXXXXXXX.  ",
"  .XXXXXXXXXXXXXXoO++++OOoXXXXXXXXXXXXXXXXXXX.  ",
"  .XXXXXXXXXXXXXoO++++++++oXXXXXXXXXXXXXXXXXX.  ",
" .XXXXXXXXXXXXXXo++++++++++oXXXXXXXXXXXXXXXXXX. ",
" .XXXXXXXXXXXXXoO++++++++++oXXXXXXXXXXXXXXXXXX. ",
" .XXXXXXXXXXXXXoO+OooO++O++oXXXXXXXXXXXXXXXXXX. ",
".XXXXXXXXXXXXXXoOoo@@oO+OOOoXXXXXXXXXXXXXXXXXXX.",
".XXXXXXXXXXXXXXXoo@##@oOoOOoXXXXXXXXXXXXXXXXXXX.",
".XXXXXXXXXXXXXXXXoo##o@o@o+oXXXXXXXXXXXXXXXXXXX.",
".XXXXXXXXXXXXXXXXoo##o#@@o+oXXXXXXXXXXXXXXXXXXX.",
".XXXXXXXXXXXXXXXXo@####@@@oXXXXXXXXXXXXXXXXXXXX.",
".XXXXXXXXXXXXXXXXXo@##@@@oXXXXXXXXXXXXXXXXXXXXX.",
" .XXXXXXXXXXXXXXXXo$%%&$$oXXXXXXXXXXXXXXXXXXXX. ",
" .XXXXXXXXXXXXXXXXo$%%&&$oXXXXXXXXXXXXXXXXXXXX. ",
" .XXXXXXXXXXXXXXXo@@%%&&##oXXXXXXXXXXXXXXXXXXX. ",
"  .XXXXXXXXXXXXXXo@@****##oXXXXXXXXXXXXXXXXXX.  ",
"  .XXXXXXXXXXXXXX=o**-**-o=XXXXXXXXXXXXXXXXXX.  ",
"  .XXXXXXXXXXXXX==oOOooOOo==XXXXXXXXXXXXXXXXX.  ",
"  .XXXXXXXXXXXXX============XXXXXXXXXXXXXXXXX.  ",
" .XXXXXXXXXXXXXXX==========XXXXXXXXXXXXXXXXXXX. ",
" .XXXXXXXXXXXXXXXXXXXXXXXXXXXXXXXXXXXXXXXXXXXX. ",
" .XXXXXXXXXXXXXXXXXXXXXXXXXXXXXXXXXXXXXXXXXXXX. ",
".XXXXXXXXXXXXXXXXXXXXXXXXXXXXXXXXXXXXXXXXXXXXXX.",
".XXXXXXXXXXXXXXXXXXXXXXXXXXXXXXXXXXXXXXXXXXXXXX.",
".XXXXXXXXXXXXXXXXXXXXXXXXXXXXXXXXXXXXXXXXXXXXXX.",
".XXXXXXXXXXXXXXXXXXXXXXXXXXXXXXXXXXXXXXXXXXXXXX.",
".XXXXXXXXXXXXXXXXXXXXXXXXXXXXXXXXXXXXXXXXXXXXXX.",
".XXXXXXXXXXXXXXXXXXXXXXXXXXXXXXXXXXXXXXXXXXXXXX.",
" .XXXXXXXXXXXXXXXXXXXXXXXXXXXXXXXXXXXXXXXXXXXX. ",
" .XXXXXXXXXXXXXXXXXXXXXXXXXXXXXXXXXXXXXXXXXXXX. ",
"  .XXXXXXXXXXX....XXXXXXXXXXXX....XXXXXXXXXXX.  ",
"   ..XXXXXX...    ...XXXXXX...    ...XXXXXX..   ",
"     ......          ......          ......     "
};
