/* XPM */
static const char *P_moveR[] = {
/* columns rows colors chars-per-pixel */
"48 48 15 1 ",
"  c #0E071A",
". c #5D2D28",
"X c #6E4331",
"o c #134C4D",
"O c #714742",
"+ c #B86E4E",
"@ c #B76D50",
"# c #B96F50",
"$ c #33994A",
"% c #D99259",
"& c #D39E70",
"* c #E4A672",
"= c #0068AA",
"- c #0098DD",
"; c #F6CB9F",
/* pixels */
"*******%%%%%%%%%%%%%%********%%%**%%%%%%********",
"***%%%%%%%######%%#%%%*****%%%%%%%%%%%%%%%%*****",
"**%%%%%##############%%***%%%###%%######%%%%%%**",
"*%%###################%**%%################%%%%*",
"*%######@#############%%*%####################%*",
"%%#####################%%%####################%%",
"#######################%%#######################",
"#######################%%#######################",
"##########@############%%################@######",
"#######################%%#######################",
"######################%*%#######################",
"######################%**%######+###############",
"#####################       ####+###############",
"#################### ..OOOO. ####++#############",
"################### OOOOOOOO. ###+++@###########",
"################## OOOOOOOOOO ###+#+#######@@###",
"################## OOOOOOOOOO. ###+++###########",
"################## OO.OO.  .O. #+#+++###########",
"################## ...O. &&  . #+#+#+###########",
"################## .. . &;;&  ##++##++#######@@#",
"#######@########## O & & ;;  ####+##++##########",
"###############+## O &&; ;;  ####+#+#+##########",
"###############+### &&&;;;;& ###+##+++##########",
"###############+#### &&&;;& ####+##++###########",
"###############+#### ooo$$o ####+#+#++##########",
"#############+++#### oo;;$o ######++++##########",
"############+#+##### -o;;-= #####+++++##########",
"#############+##### ..---== #####++++###########",
"################### ..  === ####+#+++####@######",
"###################   XX =.. ###+++++####@######",
"#######@###+######XXXXXXX .. X##++++############",
"############+++@##XXXXXXXXXXXX##++++############",
"#############+++#####%****%#####++++############",
"########@#####++######%***%#####+++#############",
"########@#############%**%######++##############",
"######################%**%######++##############",
"@@#####################%*%######++##############",
"#######################%%#######+###############",
"#######################%%#######+###############",
"#######################%%#######################",
"###########@###########%%#######################",
"#######################%%#######################",
"######################%*%################@######",
"###########@##########%**%##################@###",
"%%###################%***%####################%%",
"**%###########%%###%%*****%#####%%###########%**",
"***%%######%%%**%%%********%%###**%%%######%%***",
"*****%%%%%%**********%%%*****%%%*****%%%%%%*****"
};
