/* XPM */
static const char *Oak_tree_in_farmland[] = {
/* columns rows colors chars-per-pixel */
"48 48 8 1 ",
"  c #091B15",
". c #134C4C",
"X c #1E6F50",
"o c #B86F50",
"O c #33984B",
"+ c #5AC54F",
"@ c #D99359",
"# c #E4A672",
/* pixels */
"#####@@@@@@##########@@@@@@##########@@@@@@#####",
"###@@@@@@@@@@@####@@@@@@@@@@@@####@@@@@@@@@@@###",
"##@@@oooooo@@@@@@@@@@oooooo@@@@@@@@@@oooooo@@@##",
"#@@ooooooooooo@@@@oooooooooooo@@@@ooooooooooo@@#",
"#@oooooooooooooooooooooooooooooooooooooooooooo@#",
"@@oooooooooooooooooooooooooooooooooooooooooooo@@",
"@oooooooooooooooooooooooooooooooooooooooooooooo@",
"@oooooooooooooooooooooooooooooooooooooooooooooo@",
"@oooooooooooooooooooooooooooooooooooooooooooooo@",
"@ooooooooooooooooooooooooooooo  ooooooooooooooo@",
"@oooooooooooooooooooo   o  oo OO   oooooooooooo@",
"#@ooooooooooooooooo  OOO OO  OOO OO o  ooooooo@#",
"#@oooooooooooooooo O ++OO OOOO++OO+O OO oooooo@#",
"#@ooooooooooooooo  OO ++O++OO+++O++ OOO   oooo@#",
"##@ooooooooooooo +O O++++++O++++++++O++ ++ oo@##",
"##@ooooooooooooo +++++++++++++++++++++++++   @##",
"##@oooooooooooo  +++++++++++++++++++++++++ OO ##",
"##@ooooooooooo OO OO++++++++++++++++++++++O+O   ",
"#@oooooooooooo OO++O+++++++++++++++++++++O++O OO",
"#@oooooooooooo  OO++++++++++++++++++++++++++ ++O",
"#@ooooooooooo OO O++OO+++++++++++++++++++++O+++O",
"@oooooooooooo OOOOOOO++++++++++++++++++++++++++ ",
"@ooooooooooooo OO++O++++++++++++++++++++++++++OO",
"@oooooooooooo OO++OO+++++++++++++++++++++++++++O",
"@ooooooooooo  OOOOOOO+++++++++++++++++++O+++++++",
"@oooooooooo OO O++O++O+++++++++++++++++O++++++++",
"@oooooooooo OO+++O+++++++++++++++++++++OO+++++O+",
"#@oooooooooo OO++++++++++++++++++++O+OOOOO+++OOO",
"#@ooooooooo  OOO+++++++++O++++++++++OO+OOOOOOOO+",
"#@ooooooooo + O++++++++++OOO++++++++++++OOO++OO+",
"##@oooooooo XOO++O++++++OO+O++++++++++OOOOO+++O+",
"##@ooooooooo OO+OOO++++OO++++++++++++++OO+OO++OO",
"##@ooooooooo  OOOO++++++OO++++++++++++++++OOOOOO",
"##@oooooooo XOOOOO++++OOOO+++O+++++++++++OO++OOO",
"#@ooooooooo XX OO++++++OO+++OO+++OOO++++++++OOOO",
"#@oooooooooo  XOO+++O++OO++OOOO+++O++++++++OOOOO",
"#@ooooooooooo OOO++OOOOOOOOO++OO++O++O++O+++OOO ",
"@oooooooooooo OOOOOOOOOOOOO++OOOOOOOOOO+OO++OOOX",
"@ooooooooooo XOXXOOOOOOOXOOOOOOOOOOOOOOOOOOOXOOO",
"@ooooooooooo XXXOOOXXOOXOOOOOOOOOOOOOOOOOXOOOXO ",
"@oooooooooooo XXOOXXOOOXXOOXOOOOOOOOXXOOXXXOOX  ",
"@oooooooooooo   XXXXOOXXXXXOOOXOOXOOOXXOOXXXXXX.",
"@ooooooooooooo .XX.XXXXXXXXOOXXOOOXOOXXXXXX.....",
"#@oooooooooooo .. XXXX.XXXXXXXXXOOXXXXX..XX. .  ",
"#@ooooooooooooo  .XX. .XX.XXXXXXXXXX.XXX..... @#",
"##@ooooooooooo@@ ... .XX.XX.XX.XX.XXX.XX. ... ##",
"###@@oooooo@@@###   .. .XX.XX...XX.X. ....   ###",
"#####@@@@@@#########  ... .... ... ...  .. #####"
};
