/* XPM */
static const char *P_right_1[] = {
/* columns rows colors chars-per-pixel */
"48 48 15 1 ",
"  c #E4A672",
". c #D99359",
"X c #B86F50",
"o c #0E071B",
"O c #5D2C28",
"+ c #704643",
"@ c #D29F70",
"# c #F6CA9F",
"$ c #134C4C",
"% c #1E6F50",
"& c #33984B",
"* c #0098DC",
"= c #6F4330",
"- c #0069AA",
"; c white",
/* pixels */
"     ......          ......          ......     ",
"   ...........    ............    ...........   ",
"  ...XXXXXX..........XXXXXX..........XXXXXX...  ",
" ..XXXXXXXXXXX....XXXXXXXXXXXX....XXXXXXXXXXX.. ",
" .XXXXXXXXXXXXXXXXXXXXXXXXXXXXXXXXXXXXXXXXXXXX. ",
"..XXXXXXXXXXXXXXXXXXXXXXXXXXXXXXXXXXXXXXXXXXXX..",
".XXXXXXXXXXXXXXXXXXXXXXXXXXXXXXXXXXXXXXXXXXXXXX.",
".XXXXXXXXXXXXXXXXXXXXXXXXXXXXXXXXXXXXXXXXXXXXXX.",
".XXXXXXXXXXXXXXXXXXXXXXXXXXXXXXXXXXXXXXXXXXXXXX.",
".XXXXXXXXXXXXXXXXXXXXXXXXXXXXXXXXXXXXXXXXXXXXXX.",
".XXXXXXXXXXXXXXXXXXXXXXXXXXXXXXXXXXXXXXXXXXXXXX.",
" .XXXXXXXXXXXXXXXXXXXXXXXXXXXXXXXXXXXXXXXXXXXX. ",
" .XXXXXXXXXXXXXXXXXXXXXXXXXXXXXXXXXXXXXXXXXXXX. ",
" .XXXXXXXXXXXXXXXXXXXXXXXXXXXXXXXXXXXXXXXXXXXX. ",
"  .XXXXXXXXXXXXXXXXXXXXXXXXXXXXXXXXXXXXXXXXXX.  ",
"  .XXXXXXXXXXXXXXXXXXXXoooooooXXXXXXXXXXXXXXX.  ",
"  .XXXXXXXXXXXXXXXXXXXoOO++++OoXXXXXXXXXXXXXX.  ",
"  .XXXXXXXXXXXXXXXXXXo++++++++OoXXXXXXXXXXXXX.  ",
" .XXXXXXXXXXXXXXXXXXo++++++++++oXXXXXXXXXXXXXX. ",
" .XXXXXXXXXXXXXXXXXXo++++++++++OoXXXXXXXXXXXXX. ",
" .XXXXXXXXXXXXXXXXXXo++O++OooO+OoXXXXXXXXXXXXX. ",
".XXXXXXXXXXXXXXXXXXXoOOO+Oo@@ooOoXXXXXXXXXXXXXX.",
".XXXXXXXXXXXXXXXXXXXoOOoOo@##@ooXXXXXXXXXXXXXXX.",
".XXXXXXXXXXXXXXXXXXXo+o@o@o##ooXXXXXXXXXXXXXXXX.",
".XXXXXXXXXXXXXXXXXXXo+o@@#o##ooXXXXXXXXXXXXXXXX.",
".XXXXXXXXXXXXXXXXXXXXo@@@####@oXXXXXXXXXXXXXXXX.",
".XXXXXXXXXXXXXXXXXXXXXo@@@##@oXXXXXXXXXXXXXXXXX.",
" .XXXXXXXXXXXXXXXXXXXXo$$%&&$oXXXXXXXXXXXXXXXX. ",
" .XXXXXXXXXXXXXXXXXXXXo$%%&&$oXXXXXXXXXXXXXXXX. ",
" .XXXXXXXXXXXXXXXXXXXo##%%&&@@oXXXXXXXXXXXXXXX. ",
"  .XXXXXXXXXXXXXXXXXXo##****@@oXXXXXXXXXXXXXX.  ",
"  .XXXXXXXXXXXXXXXXXX=o-**-**o=XXXXXXXXXXXXXX.  ",
"  .XXXXXXXXXXXXXXXXX==oOOooOOo==XXXXXXXXXXXXX.  ",
"  .XXXXXXXXXXXXXXXXX============XXXXXXXXXXXXX.  ",
" .XXXXXXXXXXXXXXXXXXX==========XXXXXXXXXXXXXXX. ",
" .XXXXXXXXXXXXXXXXXXXXXXXXXXXXXXXXXXXXXXXXXXXX. ",
" .XXXXXXXXXXXXXXXXXXXXXXXXXXXXXXXXXXXXXXXXXXXX. ",
".XXXXXXXXXXXXXXXXXXXXXXXXXXXXXXXXXXXXXXXXXXXXXX.",
".XXXXXXXXXXXXXXXXXXXXXXXXXXXXXXXXXXXXXXXXXXXXXX.",
".XXXXXXXXXXXXXXXXXXXXXXXXXXXXXXXXXXXXXXXXXXXXXX.",
".XXXXXXXXXXXXXXXXXXXXXXXXXXXXXXXXXXXXXXXXXXXXXX.",
".XXXXXXXXXXXXXXXXXXXXXXXXXXXXXXXXXXXXXXXXXXXXXX.",
".XXXXXXXXXXXXXXXXXXXXXXXXXXXXXXXXXXXXXXXXXXXXXX.",
" .XXXXXXXXXXXXXXXXXXXXXXXXXXXXXXXXXXXXXXXXXXXX. ",
" .XXXXXXXXXXXXXXXXXXXXXXXXXXXXXXXXXXXXXXXXXXXX. ",
"  .XXXXXXXXXXX....XXXXXXXXXXXX....XXXXXXXXXXX.  ",
"   ..XXXXXX...    ...XXXXXX...    ...XXXXXX..   ",
"     ......          ......          ......     "
};
