/* XPM */
static const char *Player_with_tulipe[] = {
/* columns rows colors chars-per-pixel */
"48 48 19 1 ",
"  c #0E061B",
". c #5D2C28",
"X c #714331",
"o c #134D4C",
"O c #1E6F51",
"+ c #704643",
"@ c #B86F50",
"# c #B96F50",
"$ c #33984B",
"% c #D09B35",
"& c #A8E71D",
"* c #FFF200",
"= c #C58742",
"- c #D99359",
"; c #D29F70",
": c #E4A672",
"> c #0069AA",
", c #0098DC",
"< c #F6CA9F",
/* pixels */
":::::------::::::::::------::::::::::------:::::",
":::-----------::::------------::::-----------:::",
"::---######----------######----------######---::",
":--###########----############----###########--:",
":-############################################-:",
"--############################################--",
"-##############################################-",
"-##############################################-",
"-##############################################-",
"-##############################################-",
"-##############################################-",
":-############################################-:",
":-############################################-:",
":-############################################-:",
"::-##########################################-::",
"::-###################       ################-::",
"::-################## .++.++. ###############-::",
"::-################# .+++++++. ##############-::",
":-################## ++++.++++ ###############-:",
":-################# .+++...+++. ##############-:",
":-################# +++.. .++++ ##############-:",
"-################## +++. ; .+++ ###############-",
"-################## ..  ;;;  .. ###=###########-",
"-###################  ; <<< ;  ##*=*###########-",
"-################### ;; <<< ;; #*%**###########-",
"-#################### <<<<<<< #****############-",
"-#################### o<<<<<o #&**#############-",
":-################### oO$$OOo &###############-:",
":-################## <<O$$$O<< ###############-:",
":-################## <<OO$$O<< ###############-:",
"::-################## ,,,>,&, ###############-::",
"::-#################X ,,> >,, X##############-::",
"::-################XX .. X .. XX#############-::",
"::-################XXXXXXXXXXXXX#############-::",
":-##################XXXXXXXXXXX###############-:",
":-############################################-:",
":-############################################-:",
"-##############################################-",
"-##############################################-",
"-##############################################-",
"-##############################################-",
"-##############################################-",
"-##############################################-",
":-############################################-:",
":-############################################-:",
"::-###########----############----###########-::",
":::--######---::::---######---::::---######--:::",
":::::------::::::::::------::::::::::------:::::"
};
