/* XPM */
static const char *Player_with_background[] = {
/* columns rows colors chars-per-pixel */
"48 48 14 1 ",
"  c #0E071B",
". c #5D2C28",
"X c #704331",
"o c #134C4C",
"O c #1E6F50",
"+ c #704643",
"@ c #B86F50",
"# c #33984B",
"$ c #D99359",
"% c #D29F70",
"& c #E4A672",
"* c #0069AA",
"= c #0098DC",
"- c #F6CA9F",
/* pixels */
"&&&&&$$$$$$&&&&&&&&&&$$$$$$&&&&&&&&&&$$$$$$&&&&&",
"&&&$$$$$$$$$$$&&&&$$$$$$$$$$$$&&&&$$$$$$$$$$$&&&",
"&&$$$@@@@@@$$$$$$$$$$@@@@@@$$$$$$$$$$@@@@@@$$$&&",
"&$$@@@@@@@@@@@$$$$@@@@@@@@@@@@$$$$@@@@@@@@@@@$$&",
"&$@@@@@@@@@@@@@@@@@@@@@@@@@@@@@@@@@@@@@@@@@@@@$&",
"$$@@@@@@@@@@@@@@@@@@@@@@@@@@@@@@@@@@@@@@@@@@@@$$",
"$@@@@@@@@@@@@@@@@@@@@@@@@@@@@@@@@@@@@@@@@@@@@@@$",
"$@@@@@@@@@@@@@@@@@@@@@@@@@@@@@@@@@@@@@@@@@@@@@@$",
"$@@@@@@@@@@@@@@@@@@@@@@@@@@@@@@@@@@@@@@@@@@@@@@$",
"$@@@@@@@@@@@@@@@@@@@@@@@@@@@@@@@@@@@@@@@@@@@@@@$",
"$@@@@@@@@@@@@@@@@@@@@@@@@@@@@@@@@@@@@@@@@@@@@@@$",
"&$@@@@@@@@@@@@@@@@@@@@@@@@@@@@@@@@@@@@@@@@@@@@$&",
"&$@@@@@@@@@@@@@@@@@@@@@@@@@@@@@@@@@@@@@@@@@@@@$&",
"&$@@@@@@@@@@@@@@@@@@@@@@@@@@@@@@@@@@@@@@@@@@@@$&",
"&&$@@@@@@@@@@@@@@@@@@@@@@@@@@@@@@@@@@@@@@@@@@$&&",
"&&$@@@@@@@@@@@@@@@@@@@       @@@@@@@@@@@@@@@@$&&",
"&&$@@@@@@@@@@@@@@@@@@ .++.++. @@@@@@@@@@@@@@@$&&",
"&&$@@@@@@@@@@@@@@@@@ .+++++++. @@@@@@@@@@@@@@$&&",
"&$@@@@@@@@@@@@@@@@@@ ++++.++++ @@@@@@@@@@@@@@@$&",
"&$@@@@@@@@@@@@@@@@@ .+++...+++. @@@@@@@@@@@@@@$&",
"&$@@@@@@@@@@@@@@@@@ +++.. .++++ @@@@@@@@@@@@@@$&",
"$@@@@@@@@@@@@@@@@@@ +++. % .+++ @@@@@@@@@@@@@@@$",
"$@@@@@@@@@@@@@@@@@@ ..  %%%  .. @@@@@@@@@@@@@@@$",
"$@@@@@@@@@@@@@@@@@@@  % --- %  @@@@@@@@@@@@@@@@$",
"$@@@@@@@@@@@@@@@@@@@ %% --- %% @@@@@@@@@@@@@@@@$",
"$@@@@@@@@@@@@@@@@@@@@ ------- @@@@@@@@@@@@@@@@@$",
"$@@@@@@@@@@@@@@@@@@@@ o-----o @@@@@@@@@@@@@@@@@$",
"&$@@@@@@@@@@@@@@@@@@@ oO##OOo @@@@@@@@@@@@@@@@$&",
"&$@@@@@@@@@@@@@@@@@@ --O###O-- @@@@@@@@@@@@@@@$&",
"&$@@@@@@@@@@@@@@@@@@ --OO##O-- @@@@@@@@@@@@@@@$&",
"&&$@@@@@@@@@@@@@@@@@@ ===*=== @@@@@@@@@@@@@@@$&&",
"&&$@@@@@@@@@@@@@@@@@X ==* *== X@@@@@@@@@@@@@@$&&",
"&&$@@@@@@@@@@@@@@@@XX .. X .. XX@@@@@@@@@@@@@$&&",
"&&$@@@@@@@@@@@@@@@@XXXXXXXXXXXXX@@@@@@@@@@@@@$&&",
"&$@@@@@@@@@@@@@@@@@@XXXXXXXXXXX@@@@@@@@@@@@@@@$&",
"&$@@@@@@@@@@@@@@@@@@@@@@@@@@@@@@@@@@@@@@@@@@@@$&",
"&$@@@@@@@@@@@@@@@@@@@@@@@@@@@@@@@@@@@@@@@@@@@@$&",
"$@@@@@@@@@@@@@@@@@@@@@@@@@@@@@@@@@@@@@@@@@@@@@@$",
"$@@@@@@@@@@@@@@@@@@@@@@@@@@@@@@@@@@@@@@@@@@@@@@$",
"$@@@@@@@@@@@@@@@@@@@@@@@@@@@@@@@@@@@@@@@@@@@@@@$",
"$@@@@@@@@@@@@@@@@@@@@@@@@@@@@@@@@@@@@@@@@@@@@@@$",
"$@@@@@@@@@@@@@@@@@@@@@@@@@@@@@@@@@@@@@@@@@@@@@@$",
"$@@@@@@@@@@@@@@@@@@@@@@@@@@@@@@@@@@@@@@@@@@@@@@$",
"&$@@@@@@@@@@@@@@@@@@@@@@@@@@@@@@@@@@@@@@@@@@@@$&",
"&$@@@@@@@@@@@@@@@@@@@@@@@@@@@@@@@@@@@@@@@@@@@@$&",
"&&$@@@@@@@@@@@$$$$@@@@@@@@@@@@$$$$@@@@@@@@@@@$&&",
"&&&$$@@@@@@$$$&&&&$$$@@@@@@$$$&&&&$$$@@@@@@$$&&&",
"&&&&&$$$$$$&&&&&&&&&&$$$$$$&&&&&&&&&&$$$$$$&&&&&"
};
