/* XPM */
static const char *players_43[] = {
/* columns rows colors chars-per-pixel */
"32 32 15 1 ",
"  c #0E071B",
". c #5D2C28",
"X c #134C4C",
"o c #1E6F50",
"O c #704643",
"+ c #33984B",
"@ c #D29F70",
"# c #0069AA",
"$ c #5A6988",
"% c #0098DC",
"& c #8B9BB4",
"* c #F6CA9F",
"= c #C0CBDC",
"- c white",
"; c None",
/* pixels */
";;;;;;;;;;;;;;;;;;;;;;;;;;;;;;;;",
";;;;;;;;;;;;;;;;;;;;;;;;;;;;;;;;",
";;;;;;;;;;;;;;;;;;;;;;;;;;;;;;;;",
";;;;;;;;;;;;;;;;;;;;;;;;;;;;;;;;",
";;;;;;;;;;;;;;;;;;;;;;;;;;;;;;;;",
";;;;;;;;;;;;;;;;;;;;;;;;;;;;;;;;",
";;;;;;;;;;;;       ;;;;;;;;;;;;;",
";;;;;;;;;;; ..OOOO. ;;;;;;;;;;;;",
";;;;;;;;;; OOOOOOOO. ;;;;;;;;;;;",
";;;;;;;;; OOOOOOOOOO ;;;;;;;;;;;",
";;;;;;;;; OOOOOOOOOO. ;;;;;;;;;;",
";;;;;;;;; OO.OO.  .O. ;;;;;;;;;;",
";;;;;;;;; ...O. @@  . ;;--;;;;;;",
";;;;;;;;; .. . @**@  ;;;;---;;;;",
";;;;;;;;; O @ @ **  ;;;;;;---;;;",
";;;;;;;;; O @@* **  ;;;;;;;---;;",
";;;;;;;;;; @@@****@ ;;;;;;;----;",
";;;;;;;;;   @@@**@ ;;;;;;;;;---;",
";;;;;;;; **XXooo++ ;;;;;;;;;----",
";;;;;;   ** oooo++o ;;;;;;;;----",
";;;;; =&&  ; %%#### ;;;;;;;;----",
";;;; =&&$ ;; #%%##.. ;;;;;;-----",
";;; =&&$ ;;;; .. ... ;;;;;;----;",
";;; =&$ ;;;;;;;;;;;;;;;;;;-----;",
";; =&$ ;;;;;;;;;;;;;;;;;;-----;;",
";; =& ;;;;;;;;;;;;;;;;-------;;;",
";;; --;;;;;;;;;;;;;---------;;;;",
";;;;;;--------------------;;;;;;",
";;;;;;;;----------------;;;;;;;;",
";;;;;;;;;;;;--------;;;;;;;;;;;;",
";;;;;;;;;;;;;;;;;;;;;;;;;;;;;;;;",
";;;;;;;;;;;;;;;;;;;;;;;;;;;;;;;;"
};
