/* XPM */
static const char *players_0[] = {
/* columns rows colors chars-per-pixel */
"48 48 168 2 ",
"   c #060008",
".  c #050014",
"X  c #0C0013",
"o  c #070318",
"O  c #0C051A",
"+  c #040B1E",
"@  c #130A1D",
"#  c #1B0D1D",
"$  c #1D0613",
"%  c #24111E",
"&  c #2B131E",
"*  c #34151D",
"=  c #381216",
"-  c #1A0F20",
";  c #04172C",
":  c #1D1121",
">  c #131424",
",  c #0C1631",
"<  c #0A1B37",
"1  c #171E36",
"2  c #291C27",
"3  c #2E1F29",
"4  c #291623",
"5  c #311720",
"6  c #341A23",
"7  c #3A1D24",
"8  c #1C2F37",
"9  c #03373E",
"0  c #2D232E",
"q  c #3F2127",
"w  c #33232B",
"e  c #3C242D",
"r  c #2C2636",
"t  c #332630",
"y  c #362A33",
"u  c #363138",
"i  c #551F1B",
"p  c #492427",
"a  c #522626",
"s  c #53292A",
"d  c #5A2A27",
"f  c #572F30",
"g  c #4D3534",
"h  c #4D3836",
"j  c #42343F",
"k  c #523232",
"l  c #583131",
"z  c #5C3738",
"x  c #5E393A",
"c  c #602E2A",
"v  c #62312D",
"b  c #633531",
"n  c #693B36",
"m  c #633D3D",
"M  c #6A3D39",
"N  c #673936",
"B  c #5B433D",
"V  c #6D423E",
"C  c #64483F",
"Z  c #63473E",
"A  c #70423E",
"S  c #082E55",
"D  c #333C4C",
"F  c #4E3F46",
"G  c #423743",
"H  c #1A534F",
"J  c #384345",
"K  c #30514F",
"L  c #395753",
"P  c #1E724D",
"I  c #1F7D4B",
"U  c #257C4B",
"Y  c #20754F",
"T  c #266A54",
"R  c #346458",
"E  c #3A7A5B",
"W  c #0F4469",
"Q  c #044B7C",
"!  c #054174",
"~  c #187567",
"^  c #177567",
"/  c #524148",
"(  c #6F4440",
")  c #694D41",
"_  c #714643",
"`  c #734845",
"'  c #6D5043",
"]  c #6A5A53",
"[  c #745C54",
"{  c #785D51",
"}  c #447E59",
"|  c #7A635A",
" . c #467161",
".. c #5A7466",
"X. c #85644F",
"o. c #886957",
"O. c #967056",
"+. c #947766",
"@. c #2F8F48",
"#. c #238045",
"$. c #2E914B",
"%. c #359A47",
"&. c #339A4A",
"*. c #31974A",
"=. c #2B935D",
"-. c #1B8564",
";. c #228362",
":. c #2B9862",
">. c #378373",
",. c #738E70",
"<. c #759171",
"1. c #8D9E76",
"2. c #8E9E79",
"3. c #B18561",
"4. c #B98C65",
"5. c #B78B68",
"6. c #AE977D",
"7. c #B29178",
"8. c #B89478",
"9. c #8DA177",
"0. c #93AE76",
"q. c #95B275",
"w. c #CF9D6F",
"e. c #C8976C",
"r. c #D09D6F",
"t. c #C59B77",
"y. c #035993",
"u. c #056099",
"i. c #316380",
"p. c #106FA1",
"a. c #0974A6",
"s. c #077AB8",
"d. c #017FC1",
"f. c #0780AF",
"g. c #1086BE",
"h. c #0992BD",
"j. c #2C8CB6",
"k. c #739D89",
"l. c #118BC4",
"z. c #0593C5",
"x. c #0B95C8",
"c. c #008AD2",
"v. c #0093DE",
"b. c #179DD1",
"n. c #239FD1",
"m. c #009BE5",
"M. c #009EE8",
"N. c #00A2EE",
"B. c #9B9A80",
"V. c #B2A986",
"C. c #AEB59E",
"Z. c #CEA888",
"A. c #D9AA81",
"S. c #D1AE8D",
"D. c #D4B490",
"F. c #D9BC94",
"G. c #DAB998",
"H. c #E7B789",
"J. c #EDBC8C",
"K. c #E2B994",
"L. c #CFBFA5",
"P. c #EBC79D",
"I. c #F6CA9F",
"U. c #F7CAA0",
"Y. c #F9CCA1",
"T. c #FFD2A4",
"R. c #FFDBAA",
"E. c None",
/* pixels */
"E.E.E.E.E.E.E.E.E.E.E.E.E.E.E.E.E.E.E.E.E.E.E.E.E.E.E.E.E.E.E.E.E.E.E.E.E.E.E.E.E.E.E.E.E.E.E.E.",
"E.E.E.E.E.E.E.E.E.E.E.E.E.E.E.E.E.E.E.E.E.E.E.E.E.E.E.E.E.E.E.E.E.E.E.E.E.E.E.E.E.E.E.E.E.E.E.E.",
"E.E.E.E.E.E.E.E.E.E.E.E.E.E.E.E.E.E.E.E.E.E.E.E.E.E.E.E.E.E.E.E.E.E.E.E.E.E.E.E.E.E.E.E.E.E.E.E.",
"E.E.E.E.E.E.E.E.E.E.E.E.E.E.E.E.E.E.E.E.E.E.E.E.E.E.E.E.E.E.E.E.E.E.E.E.E.E.E.E.E.E.E.E.E.E.E.E.",
"E.E.E.E.E.E.E.E.E.E.E.E.E.E.E.E.E.E.E.E.E.E.E.E.E.E.E.E.E.E.E.E.E.E.E.E.E.E.E.E.E.E.E.E.E.E.E.E.",
"E.E.E.E.E.E.E.E.E.E.E.E.E.E.E.E.E.E.E.E.E.E.E.E.E.E.E.E.E.E.E.E.E.E.E.E.E.E.E.E.E.E.E.E.E.E.E.E.",
"E.E.E.E.E.E.E.E.E.E.E.E.E.E.E.E.E.E.E.E.E.E.E.E.E.E.E.E.E.E.E.E.E.E.E.E.E.E.E.E.E.E.E.E.E.E.E.E.",
"E.E.E.E.E.E.E.E.E.E.E.E.E.E.E.E.E.E.E.o o o o o o o o o E.E.E.E.E.E.E.E.E.E.E.E.E.E.E.E.E.E.E.E.",
"E.E.E.E.E.E.E.E.E.E.E.E.E.E.E.E.E.E.# : : : # # : : : # # E.E.E.E.E.E.E.E.E.E.E.E.E.E.E.E.E.E.E.",
"E.E.E.E.E.E.E.E.E.E.E.E.E.E.E.E.E.# p l x x l s z m z s 5 O E.E.E.E.E.E.E.E.E.E.E.E.E.E.E.E.E.E.",
"E.E.E.E.E.E.E.E.E.E.E.E.E.E.E.E.% 7 b A ` ` V M _ ` _ M s 5 # E.E.E.E.E.E.E.E.E.E.E.E.E.E.E.E.E.",
"E.E.E.E.E.E.E.E.E.E.E.E.E.E.E.O 6 b ( _ _ _ ( V _ _ _ _ M s # E.E.E.E.E.E.E.E.E.E.E.E.E.E.E.E.E.",
"E.E.E.E.E.E.E.E.E.E.E.E.E.E.E.O e V _ _ _ _ n b V _ _ _ _ z : E.E.E.E.E.E.E.E.E.E.E.E.E.E.E.E.E.",
"E.E.E.E.E.E.E.E.E.E.E.E.E.E.# 5 k _ _ _ ( n v c b V _ _ ` m q % E.E.E.E.E.E.E.E.E.E.E.E.E.E.E.E.",
"E.E.E.E.E.E.E.E.E.E.E.E.E.o # s M _ _ ( M v a a d N _ _ _ V b 6 O E.E.E.E.E.E.E.E.E.E.E.E.E.E.E.",
"E.E.E.E.E.E.E.E.E.E.E.E.E.o : z _ _ _ n v d 7 % a n _ _ _ _ ( e O E.E.E.E.E.E.E.E.E.E.E.E.E.E.E.",
"E.E.E.E.E.E.E.E.E.E.E.E.E.o : m ` _ ` n a 6 g Z 7 p M _ ` _ ` e O E.E.E.E.E.E.E.E.E.E.E.E.E.E.E.",
"E.E.E.E.E.E.E.E.E.E.E.E.E.o : z _ V m l p w X.4.g 7 s z m V V e O E.E.E.E.E.E.E.E.E.E.E.E.E.E.E.",
"E.E.E.E.E.E.E.E.E.E.E.E.E.o # s v s 4 @ w O.e.w.4.C # - q v v 6 O E.E.E.E.E.E.E.E.E.E.E.E.E.E.E.",
"E.E.E.E.E.E.E.E.E.E.E.E.E.E.# 5 * 7 Z w w t.J.H.J.{ : B k & 5 & E.E.E.E.E.E.E.E.E.E.E.E.E.E.E.E.",
"E.E.E.E.E.E.E.E.E.E.E.E.E.E.E.O - h 4.' t Z.T.Y.Y.| 3 3.X.2 @ E.E.E.E.E.E.E.E.E.E.E.E.E.E.E.E.E.",
"E.E.E.E.E.E.E.E.E.E.E.E.E.E.E.O B 4.r.) t Z.T.Y.Y.| 3 3.w.O.2 E.E.E.E.E.E.E.E.E.E.E.E.E.E.E.E.E.",
"E.E.E.E.E.E.E.E.E.E.E.E.E.E.E.E.h o.A.8.+.K.Y.I.U.8.+.A.5.' 2 E.E.E.E.E.E.E.E.E.E.E.E.E.E.E.E.E.",
"E.E.E.E.E.E.E.E.E.E.E.E.E.E.E.E.. 0 6.P.Y.U.I.I.U.Y.I.F.] O E.E.E.E.E.E.E.E.E.E.E.E.E.E.E.E.E.E.",
"E.E.E.E.E.E.E.E.E.E.E.E.E.E.E.E.X > K B.Y.U.I.I.U.Y.F...8 O E.E.E.E.E.E.E.E.E.E.E.E.E.E.E.E.E.E.",
"E.E.E.E.E.E.E.E.E.E.E.E.E.E.E.E.. + 9  .9.0.q.0.1.2.,.H ; . E.E.E.E.E.E.E.E.E.E.E.E.E.E.E.E.E.E.",
"E.E.E.E.E.E.E.E.E.E.E.E.E.E.E.E.3 u L T Y $.&.$.U P T R J t E.E.E.E.E.E.E.E.E.E.E.E.E.E.E.E.E.E.",
"E.E.E.E.E.E.E.E.E.E.E.E.E.E.E.O [ S.D.<.P $.&.*.$.I E V.F.7.t E.E.E.E.E.E.E.E.E.E.E.E.E.E.E.E.E.",
"E.E.E.E.E.E.E.E.E.E.E.E.E.E.E.O o.R.T.1.P U @.%.%.#.} F.R.D.y E.E.E.E.E.E.E.E.E.E.E.E.E.E.E.E.E.",
"E.E.E.E.E.E.E.E.E.E.E.E.E.E.E.O [ S.L.k.~ ^ ;.=.:.-.>.C.G.7.t E.E.E.E.E.E.E.E.E.E.E.E.E.E.E.E.E.",
"E.E.E.E.E.E.E.E.E.E.E.E.E.E.E.E.3 D j.b.z.z.f.a.h.z.x.n.i.w E.E.E.E.E.E.E.E.E.E.E.E.E.E.E.E.E.E.",
"E.E.E.E.E.E.E.E.E.E.E.E.E.E.E.E.  < d.N.m.c.y.! s.v.M.m.Q . E.E.E.E.E.E.E.E.E.E.E.E.E.E.E.E.E.E.",
"E.E.E.E.E.E.E.E.E.E.E.E.E.E.E.E.X < p.l.s.u.S , Q a.g.g.W O E.E.E.E.E.E.E.E.E.E.E.E.E.E.E.E.E.E.",
"E.E.E.E.E.E.E.E.E.E.E.E.E.E.E.E.o : j / G 1 , E., r F F 0 O E.E.E.E.E.E.E.E.E.E.E.E.E.E.E.E.E.E.",
"E.E.E.E.E.E.E.E.E.E.E.E.E.E.E.E.E.# i E.i $ E.E.E.= E.E.* E.E.E.E.E.E.E.E.E.E.E.E.E.E.E.E.E.E.E.",
"E.E.E.E.E.E.E.E.E.E.E.E.E.E.E.E.E.E.E.E.E.E.E.E.E.E.E.E.E.E.E.E.E.E.E.E.E.E.E.E.E.E.E.E.E.E.E.E.",
"E.E.E.E.E.E.E.E.E.E.E.E.E.E.E.E.E.E.E.E.E.E.E.E.E.E.E.E.E.E.E.E.E.E.E.E.E.E.E.E.E.E.E.E.E.E.E.E.",
"E.E.E.E.E.E.E.E.E.E.E.E.E.E.E.E.E.E.E.E.E.E.E.E.E.E.E.E.E.E.E.E.E.E.E.E.E.E.E.E.E.E.E.E.E.E.E.E.",
"E.E.E.E.E.E.E.E.E.E.E.E.E.E.E.E.E.E.E.E.E.E.E.E.E.E.E.E.E.E.E.E.E.E.E.E.E.E.E.E.E.E.E.E.E.E.E.E.",
"E.E.E.E.E.E.E.E.E.E.E.E.E.E.E.E.E.E.E.E.E.E.E.E.E.E.E.E.E.E.E.E.E.E.E.E.E.E.E.E.E.E.E.E.E.E.E.E.",
"E.E.E.E.E.E.E.E.E.E.E.E.E.E.E.E.E.E.E.E.E.E.E.E.E.E.E.E.E.E.E.E.E.E.E.E.E.E.E.E.E.E.E.E.E.E.E.E.",
"E.E.E.E.E.E.E.E.E.E.E.E.E.E.E.E.E.E.E.E.E.E.E.E.E.E.E.E.E.E.E.E.E.E.E.E.E.E.E.E.E.E.E.E.E.E.E.E.",
"E.E.E.E.E.E.E.E.E.E.E.E.E.E.E.E.E.E.E.E.E.E.E.E.E.E.E.E.E.E.E.E.E.E.E.E.E.E.E.E.E.E.E.E.E.E.E.E.",
"E.E.E.E.E.E.E.E.E.E.E.E.E.E.E.E.E.E.E.E.E.E.E.E.E.E.E.E.E.E.E.E.E.E.E.E.E.E.E.E.E.E.E.E.E.E.E.E.",
"E.E.E.E.E.E.E.E.E.E.E.E.E.E.E.E.E.E.E.E.E.E.E.E.E.E.E.E.E.E.E.E.E.E.E.E.E.E.E.E.E.E.E.E.E.E.E.E.",
"E.E.E.E.E.E.E.E.E.E.E.E.E.E.E.E.E.E.E.E.E.E.E.E.E.E.E.E.E.E.E.E.E.E.E.E.E.E.E.E.E.E.E.E.E.E.E.E.",
"E.E.E.E.E.E.E.E.E.E.E.E.E.E.E.E.E.E.E.E.E.E.E.E.E.E.E.E.E.E.E.E.E.E.E.E.E.E.E.E.E.E.E.E.E.E.E.E.",
"E.E.E.E.E.E.E.E.E.E.E.E.E.E.E.E.E.E.E.E.E.E.E.E.E.E.E.E.E.E.E.E.E.E.E.E.E.E.E.E.E.E.E.E.E.E.E.E."
};
