/* XPM */
static const char *players_30[] = {
/* columns rows colors chars-per-pixel */
"32 32 10 1 ",
"  c #0E071B",
". c #5D2C28",
"X c #134C4C",
"o c #1E6F50",
"O c #704643",
"+ c #33984B",
"@ c #0069AA",
"# c #0098DC",
"$ c #F6CA9F",
"% c None",
/* pixels */
"%%%%%%%%%%%%%%%%%%%%%%%%%%%%%%%%",
"%%%%%%%%%%%%%%%%%%%%%%%%%%%%%%%%",
"%%%%%%%%%%%%%%%%%%%%%%%%%%%%%%%%",
"%%%%%%%%%%%%       %%%%%%%%%%%%%",
"%%%%%%%%%%% ..OOO.. %%%%%%%%%%%%",
"%%%%%%%%%% .OOOOOOO. %%%%%%%%%%%",
"%%%%%%%%%% OOOOOOOOO %%%%%%%%%%%",
"%%%%%%%%% OOOOOOOOOOO %%%%%%%%%%",
"%%%%%%%%% OOOOOOOOOOO %%%%%%%%%%",
"%%%%%%%%% .OOOOOOOOO. %%%%%%%%%%",
"%%%%%%%%% ...OOOOO... %%%%%%%%%%",
"%%%%%%%%%% ......... %%%%%%%%%%%",
"%%%%%%%%%% ......... %%%%%%%%%%%",
"%%%%%%%%%%%  .....  %%%%%%%%%%%%",
"%%%%%%%%%%% X     X %%%%%%%%%%%%",
"%%%%%%%%%%% Xo++ooX  %%%%%%%%%%%",
"%%%%%%%%%%% Xo+++oX$$ %%%%%%%%%%",
"%%%%%%%%%%% Xoo++oX$$ %%%%%%%%%%",
"%%%%%%%%%%% ##@@@@@  %%%%%%%%%%%",
"%%%%%%%%%%% .....@@ %%%%%%%%%%%%",
"%%%%%%%%%%%%   ...@ %%%%%%%%%%%%",
"%%%%%%%%%%%%%% ... %%%%%%%%%%%%%",
"%%%%%%%%%%%%%%%   %%%%%%%%%%%%%%",
"%%%%%%%%%%%%%%%%%%%%%%%%%%%%%%%%",
"%%%%%%%%%%%%%%%%%%%%%%%%%%%%%%%%",
"%%%%%%%%%%%%%%%%%%%%%%%%%%%%%%%%",
"%%%%%%%%%%%%%%%%%%%%%%%%%%%%%%%%",
"%%%%%%%%%%%%%%%%%%%%%%%%%%%%%%%%",
"%%%%%%%%%%%%%%%%%%%%%%%%%%%%%%%%",
"%%%%%%%%%%%%%%%%%%%%%%%%%%%%%%%%",
"%%%%%%%%%%%%%%%%%%%%%%%%%%%%%%%%",
"%%%%%%%%%%%%%%%%%%%%%%%%%%%%%%%%"
};
