/* XPM */
static char *_bdaccdd345d408d81c9694f042dce87znKXAQ0bnMJIgDAd[] = {
/* columns rows colors chars-per-pixel */
"48 48 12 1 ",
"  c #010000",
". c #22B14C",
"X c #FEF200",
"o c #F2CF38",
"O c #F3D038",
"+ c #EDBF52",
"@ c #E6AB76",
"# c #E5AA7B",
"$ c #E5AC7A",
"% c #E5A87C",
"& c #E8AA7B",
"* c #E8AA7C",
/* pixels */
"################################################",
"################################################",
"################################################",
"##############@#################################",
"#######$#######%## #############################",
"#####$#######%%####  ###########################",
"#%#$###############     ########################",
"###########&%#####        ######################",
"#########%######## #####   #####################",
"#######%*########  ####### #####################",
"######%&#########  # ## ### ####################",
"#####*############ #######  ###############%%%##",
"########%######### ## # ## ###############%##%##",
"##################  ## ##  ##############%######",
"####%##############       ###############%######",
"##%################### ################%&#######",
"###################### ###############%#########",
"######################   #######################",
"####################   #  #############%########",
"###################  # ##  ########%############",
"################## ### ###  #####%%#############",
"################## ###  ### #####%+o############",
"#################  ### ####  ####XXOXX######&###",
"##%############## #### ##### ###XXoXX###########",
"################  #### ###### #%XXXXX###########",
"################ ##### ###### %#XXXX############",
"###############  ####  ###### #.################",
"############### ###### ###### .#################",
"############### ###### ###..#  #################",
"############### ###### ###..#. #################",
"#####################  ###...# #################",
"#####################   ###....#################",
"####################  # ##.#..##################",
"#################### ##  #######################",
"#################### ### #######################",
"#################### #%# #######################",
"################### ##%# #######################",
"################### ####  ######################",
"#################%# %#### ######################",
"################### ##### ######################",
"##################% ##### ######################",
"################### ##### ######################",
"%%%%%%%%%%%%%%%%%## ##### ######################",
"#####%############  ##### ######################",
"#################  ######    ###################",
"################# ##############################",
"################################################",
"################################################"
};
