/* XPM */
static const char *Oak_Tree[] = {
/* columns rows colors chars-per-pixel */
"38 48 157 2 ",
"   c #0C1E1B",
".  c #0A221C",
"X  c #0E2A1B",
"o  c #102D1C",
"O  c #0F311E",
"+  c #11331E",
"@  c #0B2622",
"#  c #0B2A26",
"$  c #0D2F2C",
"%  c #192728",
"&  c #1C2C2C",
"*  c #0D322E",
"=  c #123620",
"-  c #143D25",
";  c #103A2B",
":  c #0E3634",
">  c #0F3A36",
",  c #0F3C3A",
"<  c #113130",
"1  c #143935",
"2  c #123F3C",
"3  c gray14",
"4  c #2C282B",
"5  c #35252C",
"6  c #3E272B",
"7  c #3B2630",
"8  c #422C2D",
"9  c #4B2C2F",
"0  c #4D302F",
"q  c #4C2D31",
"w  c #533233",
"e  c #5B3534",
"r  c #5F3834",
"t  c #673B36",
"y  c #6B3B37",
"u  c #613A38",
"i  c #164326",
"p  c #1C4725",
"a  c #1A4927",
"s  c #174A2D",
"d  c #194C2A",
"f  c #1C542D",
"g  c #1D582F",
"h  c #10403F",
"j  c #144B3C",
"k  c #1D5C34",
"l  c #16503B",
"z  c #1C5C3B",
"x  c #245328",
"c  c #255E2F",
"v  c #205F31",
"b  c #28602D",
"n  c #246A36",
"m  c #2D6D33",
"M  c #216A3C",
"N  c #26723B",
"B  c #2C7C3D",
"V  c #347634",
"C  c #327A38",
"Z  c #6E423A",
"A  c #784735",
"S  c #734239",
"D  c #7C453A",
"F  c #7F4A3E",
"G  c #124440",
"H  c #144C44",
"J  c #155142",
"K  c #15534C",
"L  c #175A4C",
"P  c #195E4B",
"I  c #1A634E",
"U  c #1D6C4E",
"Y  c #1F714F",
"T  c #1D6D50",
"R  c #206C43",
"E  c #2A7E42",
"W  c #21754E",
"Q  c #247C4E",
"!  c #7D4C41",
"~  c #804739",
"^  c #834A3C",
"/  c #8B5241",
"(  c #945641",
")  c #9D5D45",
"_  c #A05E46",
"`  c #A16047",
"'  c #32823D",
"]  c #3B893C",
"[  c #2D8442",
"{  c #2E8944",
"}  c #27814E",
"|  c #29854D",
" . c #2D8C4C",
".. c #358A40",
"X. c #2F924D",
"o. c #349246",
"O. c #3A9342",
"+. c #3F9D46",
"@. c #31954B",
"#. c #359A4B",
"$. c #399E4B",
"%. c #3DA34C",
"&. c #4AA544",
"*. c #4FAF47",
"=. c #41A64B",
"-. c #46AD4C",
";. c #45AD4C",
":. c #43AA4C",
">. c #47B04D",
",. c #4BB04B",
"<. c #4EB54B",
"1. c #48B04D",
"2. c #49B24D",
"3. c #4AB34D",
"4. c #4CB34C",
"5. c #4BB44D",
"6. c #4CB54D",
"7. c #4DB64D",
"8. c #4EB74D",
"9. c #4FB94D",
"0. c #4FB84D",
"q. c #4EB84E",
"w. c #52B349",
"e. c #52B449",
"r. c #52B84B",
"t. c #55BB4B",
"y. c #50B94D",
"u. c #53BA4C",
"i. c #51BB4E",
"p. c #50BA4E",
"a. c #52BB4E",
"s. c #51BA4D",
"d. c #51BC4E",
"f. c #52BC4E",
"g. c #53BD4E",
"h. c #53BE4E",
"j. c #54BD4D",
"k. c #57BE4C",
"l. c #54BD4E",
"z. c #54BF4E",
"x. c #55BF4E",
"c. c #54BE4E",
"v. c #54BE4D",
"b. c #55C04E",
"n. c #56C14E",
"m. c #57C24E",
"M. c #58C24E",
"N. c #58C34E",
"B. c #59C34E",
"V. c #59C44E",
"C. c #59C44F",
"Z. c #58C44F",
"A. c #5AC54F",
"S. c #5AC64F",
"D. c #5BC64F",
"F. c None",
"G. c black",
/* pixels */
"F.F.F.F.F.F.F.F.F.F.F.F.F.F.F.F.F.F.F.F.F.F.F.F.F.F.F.F.F.F.F.F.F.F.F.F.F.F.",
"F.F.F.F.F.F.F.F.F.F.F.F.F.F.F.F.F.F.F.F.F.F.F.F.F.F.F.F.F.F.F.F.F.F.F.F.F.F.",
"F.F.F.F.F.F.F.F.F.F.F.F.F.F.F.F.F.F.F.F.F.F.F.F.F.F.F.F.F.F.F.F.F.F.F.F.F.F.",
"F.F.F.F.F.F.F.F.F.F.F.F.F.F.F.F.F.F.F.F.F.F.F.F.F.F.F.F.F.F.F.F.F.F.F.F.F.F.",
"F.F.F.F.F.F.F.F.F.F.F.F.F.F.F.F.F.F.F.F.F.F.F.F.F.F.F.F.F.F.F.F.F.F.F.F.F.F.",
"F.F.F.F.F.F.F.F.F.F.F.F.F.F.F.F.F.F.o F.F.F.F.F.F.F.F.F.F.F.F.F.F.F.F.F.F.F.",
"F.F.F.F.F.F.F.F.F.F.F.F.i f i d F.k B - d F.F.F.F.F.F.F.F.F.F.F.F.F.F.F.F.F.",
"F.F.F.F.F.F.F.F.F.F.F.f m ;.B ' E $.4.o.+.f N = F.F.F.F.F.F.F.F.F.F.F.F.F.F.",
"F.F.F.F.F.F.F.F.F.F.m n O.t.d.c.;.m.N.d.e.O.;.b V F.F.F.F.F.F.F.F.F.F.F.F.F.",
"F.F.F.F.F.F.F.F.F.o &.u.N.A.A.A.N.A.A.A.A.A.A.c.*.i a F.F.F.F.F.F.F.F.F.F.F.",
"F.F.F.F.F.F.F.F.= N ' ;.N.A.A.A.A.A.A.A.A.A.A.A.<.=.B O F.F.F.F.F.F.F.F.F.F.",
"F.F.F.F.F.F.F.F.+ N ;.u.c.A.A.A.A.A.A.A.A.A.A.A.d.c.C +.v F.F.F.F.F.F.F.F.F.",
"F.F.F.F.F.F.F.F.n N o.>.=.m.A.A.A.A.A.A.A.A.A.A.A.u.r.r.a F.F.F.F.F.F.F.F.F.",
"F.F.F.F.F.F.F.F.g $.3.%.c.A.A.A.A.A.A.A.A.A.A.A.A.A.A.;...V F.F.F.F.F.F.F.F.",
"F.F.F.F.F.F.F.X n %.=.$.8.A.A.A.A.A.A.A.A.A.A.d.d.A.A.m.=.c F.F.F.F.F.F.F.F.",
"F.F.F.F.F.F.F.N ' ,.>.u.0.m.A.A.A.A.A.A.A.A.m.=.u.A.A.u.c.o.i F.F.F.F.F.F.F.",
"F.F.F.F.F.F.F.f %.d.m.A.A.A.N.m.A.A.A.A.c.3.=.#.%.0.3.$.%.N F.F.F.F.F.F.F.F.",
"F.F.F.F.F.F.F.c { d.N.A.A.A.0.%.8.A.A.A.A.0.8.=.@.%.;.%.,.p F.F.F.F.F.F.F.F.",
"F.F.F.F.F.F.F.k #.0.=.c.A.c.%.3.8.A.A.A.A.A.u.$.%.=.m.=.0.w.x F.F.F.F.F.F.F.",
"F.F.F.F.F.F.F.- [ $.%.m.A.8.$.8.A.c.A.A.A.A.A.d.8.$.=.#.$.] F.F.F.F.F.F.F.F.",
"F.F.F.F.F.F.F.z M @.5.A.N.;.$.d.8.%.N.u.;.d.A.A.u.8.=.@.{ + F.F.F.F.F.F.F.F.",
"F.F.F.F.F.F.F.. z #.d.5.=.=.$.3.%.%.;.c.=.c.d.m.c.u.$.o.k ; F.F.F.F.F.F.F.F.",
"F.F.F.F.F.F.F.F.N X.$.#.@.@.@.@.3.%.@.%.$.%.$.;.%.8.#. .U j F.F.F.F.F.F.F.F.",
"F.F.F.F.F.F.F.; W Q @.|  . .| @.@.@.@.@.@.@.@.@. .@. .E s F.F.F.F.F.F.F.F.F.",
"F.F.F.F.F.F.F.F.; R } W @.} W |  .@.@.@.@. .Q  .W Q } l @ F.F.F.F.F.F.F.F.F.",
"F.F.F.F.F.F.F.F.. H P U W U T Y  .Q } @.}  .Y U Y I H H * F.F.F.F.F.F.F.F.F.",
"F.F.F.F.F.F.F.F.F.$ j U j L U I U U Y Q Y I T P K K > @ F.F.F.F.F.F.F.F.F.F.",
"F.F.F.F.F.F.F.F.F.F.: > , J I I I I L I I P H L , : * F.F.F.F.F.F.F.F.F.F.F.",
"F.F.F.F.F.F.F.F.F.F.F.F.# h G G K 2 1 H 1 H : $ ,   F.F.F.F.F.F.F.F.F.F.F.F.",
"F.F.F.F.F.F.F.F.F.F.F.F.F.$ # G < 4 3 % 5 & # F.F.F.F.F.F.F.F.F.F.F.F.F.F.F.",
"F.F.F.F.F.F.F.F.F.F.F.F.F.F.F.  8 y w q w w F.F.F.F.F.F.F.F.F.F.F.F.F.F.F.F.",
"F.F.F.F.F.F.F.F.F.F.F.F.F.F.F.F.Z ( S ^ t e F.F.F.F.F.F.F.F.F.F.F.F.F.F.F.F.",
"F.F.F.F.F.F.F.F.F.F.F.F.F.F.F.F.Z ) ^ _ D e F.F.F.F.F.F.F.F.F.F.F.F.F.F.F.F.",
"F.F.F.F.F.F.F.F.F.F.F.F.F.F.F.F.e D ( _ ~ r F.F.F.F.F.F.F.F.F.F.F.F.F.F.F.F.",
"F.F.F.F.F.F.F.F.F.F.F.F.F.F.F.F.Z S S D ^ Z F.F.F.F.F.F.F.F.F.F.F.F.F.F.F.F.",
"F.F.F.F.F.F.F.F.F.F.F.F.F.F.F.w ` ^ t e u ) w F.F.F.F.F.F.F.F.F.F.F.F.F.F.F.",
"F.F.F.F.F.F.F.F.F.F.F.F.F.F.F.! ^ e / ! 7 S / F.F.F.F.F.F.F.F.F.F.F.F.F.F.F.",
"F.F.F.F.F.F.F.F.F.F.F.F.F.F.0 F 9 F.S / 6 F.F.F.F.F.F.F.F.F.F.F.F.F.F.F.F.F.",
"F.F.F.F.F.F.F.F.F.F.F.F.F.F.F.F.F.F.F.A F.F.F.F.F.F.F.F.F.F.F.F.F.F.F.F.F.F.",
"F.F.F.F.F.F.F.F.F.F.F.F.F.F.F.F.F.F.F.F.F.F.F.F.F.F.F.F.F.F.F.F.F.F.F.F.F.F.",
"F.F.F.F.F.F.F.F.F.F.F.F.F.F.F.F.F.F.F.F.F.F.F.F.F.F.F.F.F.F.F.F.F.F.F.F.F.F.",
"F.F.F.F.F.F.F.F.F.F.F.F.F.F.F.F.F.F.F.F.F.F.F.F.F.F.F.F.F.F.F.F.F.F.F.F.F.F.",
"F.F.F.F.F.F.F.F.F.F.F.F.F.F.F.F.F.F.F.F.F.F.F.F.F.F.F.F.F.F.F.F.F.F.F.F.F.F.",
"F.F.F.F.F.F.F.F.F.F.F.F.F.F.F.F.F.F.F.F.F.F.F.F.F.F.F.F.F.F.F.F.F.F.F.F.F.F.",
"F.F.F.F.F.F.F.F.F.F.F.F.F.F.F.F.F.F.F.F.F.F.F.F.F.F.F.F.F.F.F.F.F.F.F.F.F.F.",
"F.F.F.F.F.F.F.F.F.F.F.F.F.F.F.F.F.F.F.F.F.F.F.F.F.F.F.F.F.F.F.F.F.F.F.F.F.F.",
"F.F.F.F.F.F.F.F.F.F.F.F.F.F.F.F.F.F.F.F.F.F.F.F.F.F.F.F.F.F.F.F.F.F.F.F.F.F.",
"F.F.F.F.F.F.F.F.F.F.F.F.F.F.F.F.F.F.F.F.F.F.F.F.F.F.F.F.F.F.F.F.F.F.F.F.F.F."
};
