/* XPM */
static const char *testOak_tree[] = {
/* columns rows colors chars-per-pixel */
"38 48 151 2 ",
"   c #0A1F19",
".  c #0C221D",
"X  c #0E2B1C",
"o  c #102B1B",
"O  c #10311F",
"+  c #0B2622",
"@  c #0C2A26",
"#  c #0D2F2C",
"$  c #1B2A2A",
"%  c #0E312E",
"&  c #123620",
"*  c #133B26",
"=  c #113B2C",
"-  c #0E3633",
";  c #0F3938",
":  c #123231",
">  c #123934",
",  c #113C3A",
"<  c #242425",
"1  c #2D292C",
"2  c #36252C",
"3  c #3E272C",
"4  c #3C2630",
"5  c #432C2E",
"6  c #4B2C2F",
"7  c #4C2E32",
"8  c #4E3030",
"9  c #533234",
"0  c #5B3635",
"q  c #5F3935",
"w  c #673B37",
"e  c #6A3C37",
"r  c #623A38",
"t  c #164226",
"y  c #184225",
"u  c #1D4825",
"i  c #194B2B",
"p  c #1C542E",
"a  c #11413F",
"s  c #144B3C",
"d  c #1E5B33",
"f  c #17513B",
"g  c #1C5D3B",
"h  c #245428",
"j  c #255E2F",
"k  c #215F32",
"l  c #29602E",
"z  c #236837",
"x  c #2D6E34",
"c  c #256D3A",
"v  c #27733B",
"b  c #2C7D3E",
"n  c #347534",
"m  c #357835",
"M  c #337B38",
"N  c #6E423B",
"B  c #794736",
"V  c #734339",
"C  c #7D463A",
"Z  c #7F4B3E",
"A  c #124540",
"S  c #144C45",
"D  c #155143",
"F  c #15534C",
"G  c #185D4C",
"H  c #1A634F",
"J  c #1D6B4E",
"K  c #1F714F",
"L  c #1B6650",
"P  c #1D6C50",
"I  c #1F7150",
"U  c #216D44",
"Y  c #2A7E42",
"T  c #21744F",
"R  c #257C4E",
"E  c #7E4C41",
"W  c #80473A",
"Q  c #834B3C",
"!  c #8B5341",
"~  c #945642",
"^  c #9D5D45",
"/  c #A15E46",
"(  c #A16047",
")  c #33823D",
"_  c #3C8A3C",
"`  c #2E8542",
"'  c #2E8944",
"]  c #27814F",
"[  c #29854D",
"{  c #2D8C4D",
"}  c #338A42",
"|  c #2F904B",
" . c #369346",
".. c #3A9343",
"X. c #3F9D46",
"o. c #31944B",
"O. c #349A4B",
"+. c #399E4B",
"@. c #3CA34C",
"#. c #409C45",
"$. c #4AA645",
"%. c #41A64B",
"&. c #44AC4D",
"*. c #45AD4D",
"=. c #46AC4C",
"-. c #42AA4C",
";. c #48AF4C",
":. c #50AF47",
">. c #4CB04B",
",. c #48B04D",
"<. c #49B14D",
"1. c #4AB04C",
"2. c #4AB24D",
"3. c #4AB34D",
"4. c #4AB34E",
"5. c #4BB44D",
"6. c #4FB54C",
"7. c #4CB54E",
"8. c #4EB74E",
"9. c #4CB44D",
"0. c #4FB84E",
"q. c #4FB84E",
"w. c #52B449",
"e. c #52B84C",
"r. c #50B94E",
"t. c #51BA4E",
"y. c #52BB4E",
"u. c #54BA4C",
"i. c #56BB4C",
"p. c #52BC4E",
"a. c #53BD4E",
"s. c #52BC4F",
"d. c #53BE4F",
"f. c #54BD4E",
"g. c #54BE4E",
"h. c #55BF4E",
"j. c #55BE4E",
"k. c #57BF4D",
"l. c #55C04F",
"z. c #56C04F",
"x. c #56C14F",
"c. c #57C24F",
"v. c #58C34F",
"b. c #58C24F",
"n. c #59C44F",
"m. c #5AC54F",
"M. c #5AC44F",
"N. c #5AC64F",
"B. c #5BC64F",
"V. c None",
"C. c black",
/* pixels */
"V.V.V.V.V.V.V.V.V.V.V.V.V.V.V.V.V.V.V.V.V.V.V.V.V.V.V.V.V.V.V.V.V.V.V.V.V.V.",
"V.V.V.V.V.V.V.V.V.V.V.V.V.V.V.V.V.V.V.V.V.V.V.V.V.V.V.V.V.V.V.V.V.V.V.V.V.V.",
"V.V.V.V.V.V.V.V.V.V.V.V.V.V.V.V.V.V.V.V.V.V.V.V.V.V.V.V.V.V.V.V.V.V.V.V.V.V.",
"V.V.V.V.V.V.V.V.V.V.V.V.V.V.V.V.V.V.V.V.V.V.V.V.V.V.V.V.V.V.V.V.V.V.V.V.V.V.",
"V.V.V.V.V.V.V.V.V.V.V.V.V.V.V.V.V.V.V.V.V.V.V.V.V.V.V.V.V.V.V.V.V.V.V.V.V.V.",
"V.V.V.V.V.V.V.V.V.V.V.V.V.V.V.V.V.V.O V.V.V.V.V.V.V.V.V.V.V.V.V.V.V.V.V.V.V.",
"V.V.V.V.V.V.V.V.V.V.V.V.t p t i V.d b t i V.V.V.V.V.V.V.V.V.V.V.V.V.V.V.V.V.",
"V.V.V.V.V.V.V.V.V.V.V.p x ;.b ) Y +.9. .#.p v & V.V.V.V.V.V.V.V.V.V.V.V.V.V.",
"V.V.V.V.V.V.V.V.V.V.x c ..u.p.j.&.c.N.p.w...*.l n V.V.V.V.V.V.V.V.V.V.V.V.V.",
"V.V.V.V.V.V.V.V.V.o $.u.b.N.N.N.b.N.N.N.N.N.N.j.:.y i V.V.V.V.V.V.V.V.V.V.V.",
"V.V.V.V.V.V.V.V.& v ) *.N.N.N.N.N.N.N.N.N.N.N.N.9.%.b O V.V.V.V.V.V.V.V.V.V.",
"V.V.V.V.V.V.V.V.O v *.y.j.N.N.N.N.N.N.N.N.N.N.N.p.j.M #.k V.V.V.V.V.V.V.V.V.",
"V.V.V.V.V.V.V.V.z v  .1.-.b.N.N.N.N.N.N.N.N.N.N.N.y.y.y.i V.V.V.V.V.V.V.V.V.",
"V.V.V.V.V.V.V.V.p +.1.@.j.N.N.N.N.N.N.N.N.N.N.N.N.N.N.=.} m V.V.V.V.V.V.V.V.",
"V.V.V.V.V.V.V.X z @.-.+.0.N.N.N.N.N.N.N.N.N.N.p.p.N.N.b.-.j V.V.V.V.V.V.V.V.",
"V.V.V.V.V.V.V.v ) 1.1.y.0.c.N.N.N.N.N.N.N.N.b.-.y.N.N.y.j. .t V.V.V.V.V.V.V.",
"V.V.V.V.V.V.V.p @.j.c.N.N.N.b.c.N.N.N.N.j.1.-.O.@.0.1.+.@.v V.V.V.V.V.V.V.V.",
"V.V.V.V.V.V.V.j } p.N.N.N.N.y.@.9.N.N.N.N.y.9.&.o.@.*.@.>.u V.V.V.V.V.V.V.V.",
"V.V.V.V.V.V.V.d O.0.-.c.N.j.@.1.9.N.N.N.N.N.y.@.@.%.c.-.y.w.h V.V.V.V.V.V.V.",
"V.V.V.V.V.V.V.* ` +.@.c.N.9.@.9.N.j.N.N.N.N.N.p.9.@.-.O.+._ V.V.V.V.V.V.V.V.",
"V.V.V.V.V.V.V.g c o.9.N.b.*.+.p.0.@.b.p.*.p.N.N.y.9.-.O.' & V.V.V.V.V.V.V.V.",
"V.V.V.V.V.V.V.. g O.j.5.-.-.+.1.@.@.*.j.-.j.p.c.c.y.O.o.d = V.V.V.V.V.V.V.V.",
"V.V.V.V.V.V.V.V.v o.+.O.o.O.o.O.1.%.O.@.+.@.+.*.@.9.O.| J s V.V.V.V.V.V.V.V.",
"V.V.V.V.V.V.V.= T ] o.[ { | [ O.o.O.O.O.O.o.o.o.{ o.{ Y i V.V.V.V.V.V.V.V.V.",
"V.V.V.V.V.V.V.V.= U ] T o.] T [ { o.o.o.o.{ R { T R ] f + V.V.V.V.V.V.V.V.V.",
"V.V.V.V.V.V.V.V.. D G J R P P I { R [ o.[ { I T K H S S % V.V.V.V.V.V.V.V.V.",
"V.V.V.V.V.V.V.V.V.# s L s G L J P P I R I H P G F F ; + V.V.V.V.V.V.V.V.V.V.",
"V.V.V.V.V.V.V.V.V.V.- > , D H H H H G L H G S G , ; - V.V.V.V.V.V.V.V.V.V.V.",
"V.V.V.V.V.V.V.V.V.V.V.V.@ A A A F , > S > S - # ,   V.V.V.V.V.V.V.V.V.V.V.V.",
"V.V.V.V.V.V.V.V.V.V.V.V.V.# @ A : 1 < $ 2 $ @ V.V.V.V.V.V.V.V.V.V.V.V.V.V.V.",
"V.V.V.V.V.V.V.V.V.V.V.V.V.V.V.. 5 e 9 7 9 9 V.V.V.V.V.V.V.V.V.V.V.V.V.V.V.V.",
"V.V.V.V.V.V.V.V.V.V.V.V.V.V.V.V.N ~ V Q w 0 V.V.V.V.V.V.V.V.V.V.V.V.V.V.V.V.",
"V.V.V.V.V.V.V.V.V.V.V.V.V.V.V.V.N ^ Q / C 0 V.V.V.V.V.V.V.V.V.V.V.V.V.V.V.V.",
"V.V.V.V.V.V.V.V.V.V.V.V.V.V.V.V.9 C ~ / W q V.V.V.V.V.V.V.V.V.V.V.V.V.V.V.V.",
"V.V.V.V.V.V.V.V.V.V.V.V.V.V.V.V.N V V C Q V V.V.V.V.V.V.V.V.V.V.V.V.V.V.V.V.",
"V.V.V.V.V.V.V.V.V.V.V.V.V.V.V.9 ( Q e 9 r ^ 9 V.V.V.V.V.V.V.V.V.V.V.V.V.V.V.",
"V.V.V.V.V.V.V.V.V.V.V.V.V.V.V.E Q 0 ! E 4 V ! V.V.V.V.V.V.V.V.V.V.V.V.V.V.V.",
"V.V.V.V.V.V.V.V.V.V.V.V.V.V.8 Z 6 V.V ! 3 V.V.V.V.V.V.V.V.V.V.V.V.V.V.V.V.V.",
"V.V.V.V.V.V.V.V.V.V.V.V.V.V.V.V.V.V.V.B V.V.V.V.V.V.V.V.V.V.V.V.V.V.V.V.V.V.",
"V.V.V.V.V.V.V.V.V.V.V.V.V.V.V.V.V.V.V.V.V.V.V.V.V.V.V.V.V.V.V.V.V.V.V.V.V.V.",
"V.V.V.V.V.V.V.V.V.V.V.V.V.V.V.V.V.V.V.V.V.V.V.V.V.V.V.V.V.V.V.V.V.V.V.V.V.V.",
"V.V.V.V.V.V.V.V.V.V.V.V.V.V.V.V.V.V.V.V.V.V.V.V.V.V.V.V.V.V.V.V.V.V.V.V.V.V.",
"V.V.V.V.V.V.V.V.V.V.V.V.V.V.V.V.V.V.V.V.V.V.V.V.V.V.V.V.V.V.V.V.V.V.V.V.V.V.",
"V.V.V.V.V.V.V.V.V.V.V.V.V.V.V.V.V.V.V.V.V.V.V.V.V.V.V.V.V.V.V.V.V.V.V.V.V.V.",
"V.V.V.V.V.V.V.V.V.V.V.V.V.V.V.V.V.V.V.V.V.V.V.V.V.V.V.V.V.V.V.V.V.V.V.V.V.V.",
"V.V.V.V.V.V.V.V.V.V.V.V.V.V.V.V.V.V.V.V.V.V.V.V.V.V.V.V.V.V.V.V.V.V.V.V.V.V.",
"V.V.V.V.V.V.V.V.V.V.V.V.V.V.V.V.V.V.V.V.V.V.V.V.V.V.V.V.V.V.V.V.V.V.V.V.V.V.",
"V.V.V.V.V.V.V.V.V.V.V.V.V.V.V.V.V.V.V.V.V.V.V.V.V.V.V.V.V.V.V.V.V.V.V.V.V.V."
};
