/* XPM */
static const char *dirt_floor[] = {
/* columns rows colors chars-per-pixel */
"48 48 5 1 ",
"  c #B76F4F",
". c #B86F4F",
"X c #B9704F",
"o c #B86E50",
"O c #B86F50",
/* pixels */
"XXXXXXXXXXXXXXXXXXXXXXXXXXXXXXXXXXXXXXXXXXXXXXXX",
"XXXXXXXXXXXXXXXXXXXXXXXXXXXXXXXXXXXXXXXXXXXXXXXX",
".XXXXXXXXXXXXXXXXXXXXXXXXXXXXXXXXXXXXXXXXXXXXXXX",
"....................XXXXXXXXXXXXXXXXXXXXXXXXXXXX",
"............................................XXXX",
".....ooooooooooooooooo......................XXXX",
"..X..ooooooooooooooooooooooooooooooooooooo..XXXX",
"..X..ooooooooooooooooooooooooooooooooooooo..XXXX",
"X....ooooooooooooooooooooooooooooooooooooo..XXXX",
"XX...ooooooooooooooooooooooooooooooooooooo..XXXX",
"XX...ooooooooooooooooooooooooooooooooooooo..XXXX",
"XX.X.ooooooooooooooooooooooooooooooooooooo..XXXX",
"XX.X..oooooooooooooooooooooooooooooooooooo..XXXX",
"XXX.X..ooooooooooooooooooooooooooooooooooo..XXXX",
"XXX.XX.ooooooooooooooooooooooooooooooooooo..XXXX",
"XXX.XX..oooooooooooooooooooooooooooooooooo..XXXX",
"XXX.XXX.oooooooooooooooooooooooooooooooooo..XXXX",
"XXXX.XX..ooooooooooooooooooooooooooooooooo..XXXX",
"XXXX..XX..oooooooooooooooooooooooooooooooo..XXXX",
"XXXX..XXX..ooooooooooooooooooooooooooooooo..XXXX",
"XXXX.X.XXX.ooooooooooooooooooooooooooooooo..XXXX",
"XXXX...XXX.ooooooooooooooooooooooooooooooo..XXXX",
"XXXXX...XX.ooooooooooooooooooooooooooooooo..XXXX",
"XXXXX....X.ooooooooooooooooooooooooooooooo..XXXX",
".XXXX......ooooooooooooooooooooooooooooooo..XXXX",
".XXXX...X..ooooooooooooooooooooooooooooooo..XXXX",
"XXXX.X..X..ooooooooooooooooooooooooooooooo..XXXX",
"XXXX.X..X..ooooooooooooooooooooooooooooooo..XXXX",
"X.XX....X..ooooooooooooooooooooooooooooooo..XXXX",
"X.XX....X..ooooooooooooooooooooooooooooooo..XXXX",
".XXX....X..ooooooooooooooooooooooooooooooo..XXXX",
".XX.X..X...ooooooooooooooooooooooooooooooo..XXXX",
".X..X..X..oooooooooooooooooooooooooooooooo..XXXX",
".X.....X..oooooooooooooooooooooooooooooooo..XXXX",
"X.X...XX..oooooooooooooooooooooooooooooooo..XXXX",
"X.XX..X..ooooooooooooooooooooooooooooooooo..XXXX",
"X.XX..X .ooooooooooooooooooooooooooooooooo..XXXX",
"..X......ooooooooooooooooooooooooooooooooo..XXXX",
".....X...ooooooooooooooooooooooooooooooooo..XXX.",
".X......oooooooooooooooooooooooooooooooooo..XXX.",
".X...o..oooooooooooooooooooooooooooooooooo.XXXX.",
".X..................oooooooooooooooooooooo.XXXX.",
".X................o...................... .XXXX.",
".X....................................... .XXXX.",
".X..XXXXXXXXXXXXXXXXX...........................",
".X.XXXXXXXXXXXXXXXXXXXXXXXXXXXXXXXXXXXXXXXXXXX..",
"XX.XXXXXXXXXXXXXXXXXXXXXXXXXXXXXXXXXXXXXXXXXXXXX",
"X..XXXXXXXXXXXXXXXXXXXXXXXXXXXXXXXXXXXXXXXXXXXXX"
};
