/* XPM */
static const char *P_back[] = {
/* columns rows colors chars-per-pixel */
"48 48 15 1 ",
"  c #0E071B",
". c #5D2C29",
"X c #6F4330",
"o c #134C4C",
"O c #1E6F50",
"+ c #704643",
"@ c #B76D4E",
"# c #B86E4F",
"$ c #B8704F",
"% c #B96E50",
"& c #B86F50",
"* c #33984B",
"= c #D29F70",
"- c #0069AA",
"; c #0098DC",
/* pixels */
"#######$$$$$$$$$$$$$$$$$$$$$$$$$$$$$$$$$$$$$$$$$",
"$$$$$$$$$$$$$$$$$$$$$$$$$$$$$$$$$$$$$$$$$$$$$$$$",
"$$$$$$$$$$$$$$$$$$$$$$$$$$$$$$$$$$$$$$$$$$$$$$$$",
"$$$$$$$$$$$$$$$$$$$$$$$$$$$$$$$$$$$$$$$$$$$$$$$$",
"$$$$$################################$##########",
"######################################$#########",
"###############################$%%######%##$###$",
"######$$#####$$##########$#########%%%%%%##$##$#",
"$##%%%%%%%%%%%%%%%%%%%%%%%%%%%%%%%%%%%%%%##$##$#",
"$$##%%%%%%%%%%%%%%%%%%%%%%%%%%%%%%%%%%%%%##$##$#",
"$$##%%%%%%%%%%%%%%%%%%%%%%%%%%%%%%%%%%%%%##$##$#",
"$$##%%%%%%%%%%%%%%%%%%%%%%%%%%%%%%%%%%%%%##$##$#",
"$$##%%%%%%%%%%%%%%%%%%%%%%%%%%%%%%%%%%%%%##$##$#",
"$$##%%%%%%%%%%%%%%%%%%%%%%%%%%%%%%%%%%%%%##$##$#",
"$$##%%%%%%%%%%%%%%%%%%%%%%%%%%%%%%%%%%%%%##$##$#",
"$$##%%%%%%%%%%%%%%%%%%%%%%%%%%%%%%%%%%%%%##$##$#",
"$$##%%%%%%%%%%%%%%%%%%       %%%%%%%%%%%%#%$##$#",
"$$##%%%%%%%%%%%%%%%%% ..+++.. %%%%%%%%%%%#%$##$#",
"$$##%%%%%%%%%%%%%%%% .+++++++. %%%%%%%%%%#%###$#",
"$$##%%%%%%%%%%%%%%%% +++++++++ %%%%%%%%%%#%###$#",
"$$##%%%%%%%%%%%%%%% +++++++++++ %%%%%%%%%%####$#",
"$$##%%%%%%%%%%%%%%% +++++++++++ %%%%%%%%%%##$###",
"$$##%%%%%%%%%%%%%%% .+++++++++. %%%%%%%%%%##$##$",
"$$##%%%%%%%%%%%%%%% ...+++++... %%%%%%%%%%##$##$",
"$$##%%%%%%%%%%%%%%%% ......... %%%%%%%%%%%##$##$",
"$$##%%%%%%%%%%%%%%%% ......... %%%%%%%%%%%##$##$",
"$$##%%%%%%%%%%%%%%%%%  .....  %%%%%%%%%%%%##$##$",
"$$##%%%%%%%%%%%%%%%%  o     o  %%%%%%%%%%%##$##$",
"$$##%%%%%%%%%%%%%%% ==oO***Oo== %%%%%%%%%%##$##$",
"$$##%%%%%%%%%%%%%%% ==oOO**Oo== %%%%%%%%%%##$##$",
"$$##%%%%%%%%%%%%%%%%  ;------  %%%%%%%%%%%##$##$",
"$$##%%%%%%%%%%%%%%%%X ;-- --- X%%%%%%%%%%%##$##$",
"$$##%%%%%%%%%%%%%%%XX .. X .. XX%%%%%%%%%%#$$##$",
"$$##%%%%%%%%%%%%%%%XXXXXXXXXXXXX%%%%%%%%%%#$$##$",
"$$##%%%%%%%%%%%%%%%%XXXXXXXXXXX%%%%%%%%%%##$$##$",
"$###%%%%%%%%%%%%%%%%%%%%%%%%%%%%%%%%%%%%%##$##$$",
"$#$#%%%%%%%%%%%%%%%%%%%%%%%%%%%%%%%%%%%%%##$##$#",
"$#$#%%%%%%%%%%%%%%%%%%%%%%%%%%%%%%%%%%%%%##$##$#",
"$###%%%%%%%%##@##%#%%%%%%%%%%%%%%%%%%%%%%##$##$#",
"$##############%##########%%%%%%%%%%%%%%%##$##$#",
"$###########$$$$$########@####%%%%%%%%%%%##$##$#",
"$####$$$$$$$$$$$$$$$$#########@#####@##@###$##$#",
"$$$$$$############$$#######################$##$#",
"$$$$$$$$$$$$$$$$$$$$$$$$$$#################$##$#",
"$$$$$$$$$$$$$$$$$$$$$$$$$$$$$$$$$$$$$$$$$$$$##$#",
"$$$$$$$$$$$$$$$$$$$$$$$$$$$$$$$$$$$$$$$$$$$$##$#",
"#$$$$$$$$$$$$$$$$$$$$$$$$$$$$$$$$$$$$$$$$$$$##$#",
"######$$$$$$$$$$$##$$$$$$$$$$$$$$$$$$$$$$$$$$###"
};
