/* XPM */
static const char *P_front_2[] = {
/* columns rows colors chars-per-pixel */
"48 48 22 1 ",
"  c black",
". c #0E071B",
"X c #5D2D28",
"o c #714331",
"O c #134C4D",
"+ c #1E6F51",
"@ c #704643",
"# c #B76F4E",
"$ c #B86E4F",
"% c #B8704F",
"& c #B86C50",
"* c #B86F50",
"= c #BA7350",
"- c #32984B",
"; c #D09B35",
": c #A8E61C",
"> c #FFF201",
", c #C58742",
"< c #D29E70",
"1 c #0069AA",
"2 c #0099DC",
"3 c #F6CA9F",
/* pixels */
"%%%%%%%%%%%%%%%%%%%%%%%%%%%%%%%%%%%%%%%%%%%%%%%%",
"%%%%%%%%%%%%%%%%%%%%%%%%%%%%%%%%%%%%%%%%%%%%%%%%",
"%%%%%%%%%%%%%%%%%%%%%%%%%%%%%%%%%%%%%%%%%%%%%$%%",
"%%%%%%%%%%%%%%%%%%%%%%%%%%%%%%%%%%%%%%%%%%%%$$%$",
"$$$$$$$$$$$$$$$$$$$$$$$$$$$$$$$$$$$$$$$$$$$$$$$$",
"$$$$$#$$$$$$$$$$$$$$$$$$$$$$$$$$$$$$$$$$$$$$$$%$",
"%%%$$*************************************$$$$$$",
"%%%$$*************************************$$%$$$",
"%%%$$*************************************$$%$$%",
"%%%$$*************************************$%%$$%",
"%%%$$*************************************$%%$$%",
"%%%$$************************************$$%%$$%",
"%%%$$************************************$$%$$%%",
"%%%$$************************************$$%$$%$",
"%%%$$*****************.......************$$%$$%$",
"%%%$$****************.X@@X@@X.***********$$%$$%$",
"%%%$$***************.X@@@@@@@X.**********$$%$$%$",
"%%%$$***************.@@@@X@@@@.**********$$%$$%$",
"%%%$$**************.X@@@XXX@@@X.*********$$%$$%$",
"%%%$$**************.@@@XX.X@@@@.*********$$%$$%$",
"%%%$$**************.@@@X.<.X@@@.*********$$%$$%$",
"%%%$$**************.XX..<<<..XX.*********$$%$$%$",
"%%%$$***************..<.333.<..****,*****$$%$$%$",
"%%%$$***************.<<.333.<<.**>,>*****$$%$$%$",
"%%%%$$***************.3333333.*>>;>>*****$$%$$%$",
"%%%%$$***************.O33333O.*:>>>******$$%$$%$",
"%%%%%$*************** O+--++O ::>>*******$$%$$%$",
"%%%%%$$**************.O+--++O.:**********$$%$$%$",
"$%%%%$$*************.33+---+33.**********$$%$$%$",
"%%%%%$$*************.33++--+33.**********$$%$$%$",
"%%%%%$$**************.22212:2.***********$$%$$%$",
"%%%%%$$*************o.221.122.o**********$$%$$%$",
"%%%%%$$************oo XX.o.XX.oo*********$$%$$%$",
"%%%%$$$************ooooooooooooo*********$$%$$%$",
"=%%%$%$*************ooooooooooo**********$$%$$%$",
"%%%%$%$**************ooooooooo***********$$%$$%$",
"%%%$$$$**********************************$$%$$%$",
"%%%$%$$**********************************$$%$$%$",
"%%%$%$$**********************************$$%$$%$",
"%%%$$$$$$****************************$$$$$$%$$%$",
"%%%%%$$$$$$$$$$$$$$$$$$$$$$*******$*$$$$$$$%$$%$",
"%%%%%%%%%#$$$$$$$$$$$$$$$$$#$$$$$$$$$$$$$$$%$$%$",
"%%%%%%%%%%%%%%%%%%%%%%%%%%%$$$$$$$$$%%$$%%%%$$%$",
"%%%%%%%%%%%%%%%%%%%%%%%%%%%%%%%%%%%%%%%%%%%%$$%$",
"%%%%%%%%%%%%%%%%%%%%%%%%%%%%%%%%%%%%%%%%%%%%$$%$",
"%%$$%%%%%%%%%%%%%%%%%%%%%%%%%%%%%%%%%%%%%%%$$%%$",
"%%%$$$$$$%%%%%%%%%%%%%%%%%%%%%%%%%%%%%%%%%$$$%$%",
"%%%$$$$$$$$$$%%%%%%%%%%%%%%%%%%%%%%$%%%$$$$$$$$$"
};
