/* XPM */
static const char *P_front[] = {
/* columns rows colors chars-per-pixel */
"48 48 21 1 ",
"  c #0E071B",
". c #5D2C29",
"X c #704331",
"o c #134D4C",
"O c #1E6F51",
"+ c #704643",
"@ c #B76F4E",
"# c #B86F4F",
"$ c #B8704F",
"% c #B86F50",
"& c #B96F50",
"* c #BB7350",
"= c #32984B",
"- c #D19B35",
"; c #A8E71D",
": c #FFF300",
"> c #C58743",
", c #D29F70",
"< c #0069AA",
"1 c #0098DC",
"2 c #F6CA9F",
/* pixels */
"$$$$$$$$$$$$$$$$$$$$$$$$$$$$$$$$$$$$$$$$$$$$$$$$",
"$$$$$$$$$$$$$$$$$$$$$$$$$$$$$$$$$$$$$$$$$$$$$$$$",
"$$$$$$$$$$$$$$$$$$$$$$$$$$$$$$$$$$$$$$$$$$$$$#$$",
"$$$$$$$$$$$$$$$$$$$$$$$$$$$$$$$$$$$$$$$$$$$$##$#",
"################################################",
"#####@########################################$#",
"$$$##&&&&&&&&&&&&&&&&&&&&&&&&&&&&&&&&&&&&&######",
"$$$##&&&&&&&&&&&&&&&&&&&&&&&&&&&&&&&&&&&&&##$###",
"$$$##&&&&&&&&&&&&&&&&&&&&&&&&&&&&&&&&&&&&&##$##$",
"$$$##&&&&&&&&&&&&&&&&&&&&&&&&&&&&&&&&&&&&&#$$##$",
"$$$##&&&&&&&&&&&&&&&&&&&&&&&&&&&&&&&&&&&&&#$$##$",
"$$$##&&&&&&&&&&&&&&&&&&&&&&&&&&&&&&&&&&&&##$$##$",
"$$$##&&&&&&&&&&&&&&&&&&&&&&&&&&&&&&&&&&&&##$##$$",
"$$$##&&&&&&&&&&&&&&&&&&&&&&&&&&&&&&&&&&&&##$##$#",
"$$$##&&&&&&&&&&&&&&&&&&&&&&&&&&&&&&&&&&&&##$##$#",
"$$$##&&&&&&&&&&&&&&&&&       &&&&&&&&&&&&##$##$#",
"$$$##&&&&&&&&&&&&&&&& .++.++. &&&&&&&&&&&##$##$#",
"$$$##&&&&&&&&&&&&&&& .+++++++. &&&&&&&&&&##$##$#",
"$$$##&&&&&&&&&&&&&&& ++++.++++ &&&&&&&&&&##$##$#",
"$$$##&&&&&&&&&&&&&& .+++...+++. &&&&&&&&&##$##$#",
"$$$##&&&&&&&&&&&&&& +++.. .++++ &&&&&&&&&##$##$#",
"$$$##&&&&&&&&&&&&&& +++. , .+++ &&&&&&&&&##$##$#",
"$$$##&&&&&&&&&&&&&& ..  ,,,  .. &&&>&&&&&##$##$#",
"$$$##&&&&&&&&&&&&&&&  , 222 ,  &&:>:&&&&&##$##$#",
"$$$$##&&&&&&&&&&&&&& ,, 222 ,, &:-::&&&&&##$##$#",
"$$$$##&&&&&&&&&&&&&&& 2222222 &::::&&&&&&##$##$#",
"$$$$$#&&&&&&&&&&&&&&& o22222o &;::&&&&&&&##$##$#",
"$$$$$##&&&&&&&&&&&&&& oO==OOo ;&&&&&&&&&&##$##$#",
"#$$$$##&&&&&&&&&&&&& 22O===O22 &&&&&&&&&&##$##$#",
"$$$$$##&&&&&&&&&&&&& 22OO==O22 &&&&&&&&&&##$##$#",
"$$$$$##&&&&&&&&&&&&&& 111<1;1 &&&&&&&&&&&##$##$#",
"$$$$$##&&&&&&&&&&&&&X 11< <11 X&&&&&&&&&&##$##$#",
"$$$$$##&&&&&&&&&&&&XX .. X .. XX&&&&&&&&&##$##$#",
"$$$$###&&&&&&&&&&&&XXXXXXXXXXXXX&&&&&&&&&##$##$#",
"*$$$#$#&&&&&&&&&&&&&XXXXXXXXXXX&&&&&&&&&&##$##$#",
"$$$$#$#&&&&&&&&&&&&&&&&&&&&&&&&&&&&&&&&&&##$##$#",
"$$$####&&&&&&&&&&&&&&&&&&&&&&&&&&&&&&&&&&##$##$#",
"$$$#$##&&&&&&&&&&&&&&&&&&&&&&&&&&&&&&&&&&##$##$#",
"$$$#$##&&&&&&&&&&&&&&&&&&&&&&&&&&&&&&&&&&##$##$#",
"$$$######&&&&&&&&&&&&&&&&&&&&&&&&&&&&######$##$#",
"$$$$$######################&&&&&&&#&#######$##$#",
"$$$$$$$$$@#################@###############$##$#",
"$$$$$$$$$$$$##$$$$$$$$$$$$$#########$$##$$$$##$#",
"$$$$$$$$$$$$###$$$$$$$$#$$$$$$$$$$$$$$$$$$$$##$#",
"$$$$$$$$$$$$#$$$$$$$$$$$$$$$$$$$$$$#$$$$$$$$##$#",
"$$##$$$$$$$$##$$$$$$$$$$$$$$$$$$$$$$$$$$$$$##$$#",
"$$$######$$$$$$$$$$$$$$$$$$$$$$$$$$$$$$$$$###$#$",
"$$$##########$$$$$$$$$$$$$$$$$$$$$$#$$$#########"
};
