/* XPM */
static const char *P_left[] = {
/* columns rows colors chars-per-pixel */
"48 48 14 1 ",
"  c #060114",
". c #5D2822",
"X c #6F412D",
"o c #0A4B4B",
"O c #18704F",
"+ c #704541",
"@ c #B76E4F",
"# c #B86F4F",
"$ c #B9704F",
"% c #2F994A",
"& c #D3A070",
"* c #0069AB",
"= c #0099DD",
"- c #F6CAA0",
/* pixels */
"$$$$$$$$$$$$$$$$$$$$$$$$$$$$$$$$$$$$$$$$$$$$$$$#",
"$$$$$$$$$$$$$$$$$$$$$$$$$$$$$$$$$$$$$$$$$$$$$$$#",
"$$$####$$$$$$$$$$$$$$$$$$$$$$$$$$$$$$$$$$$$$$$$#",
"########$$$$$$$$$$$$$$$$$$$$$$$$$$$$$$$$$$$$$$$$",
"##$######################@#####@##@########$$$$$",
"##$#$#######################################$$$$",
"##$#####$$$$$$$$$$$$$$$$$$$$$$$$$$$$$$$$$$$#$$$$",
"##$##$#$$$$$$$$$$$$$$$$$$$$$$$$$$$$$$$$$$$#$$$$$",
"##$##$#$$$$$$$$$$$$$$$$$$$$$$$$$$$$$$$$$$$$##$$$",
"#$$####$$$$$$$$$$$$$$$$$$$$$$$$$$$$$$$$$$$###$$$",
"#$#$###$$$$$$$$$$$$$$$$$$$$$$$$$$$$$$$$$$$$$#$$$",
"#$#$###$$$$$$$$$$$$$$$$$$$$$$$$$$$$$$$$$$$$##$$$",
"$$#$###$$$$$$$$$$$$$$$$$$$$$$$$$$$$$$$$$$$$##$$$",
"$$##$#$$$$$$$$$$$$$$$$$$$$$$$$$$$$$$$$$$$$$$#$$$",
"$$##$#$$$$$$$$$$$$$$$$$$$$$$$$$$$$$$$$$$$$$##$$$",
"$#$###$$$$$$$$$$$$       $$$$$$$$$$$$$$$$$$$#$$$",
"$#$###$$$$$$$$$$$ .++++.. $$$$$$$$$$$$$$$$$##$$$",
"$#$$##$$$$$$$$$$ .++++++++ $$$$$$$$$$$$$$$$##$$$",
"$##$#$$$$$$$$$$$ ++++++++++ $$$$$$$$$$$$$$$##$$$",
"$####$$$$$$$$$$ .++++++++++ $$$$$$$$$$$$$$$##$$$",
"$####$$$$$$$$$$ .+.  .++.++ $$$$$$$$$$$$$$$##$$$",
"$####$$$$$$$$$$ .  && .+... $$$$$$$$$$$$$$$$#$$$",
"$####$$$$$$$$$$$  &--& . .. $$$$$$$$$$$$$$$##$$$",
"$###$$$$$$$$$$$$$  -- & & + $$$$$$$$$$$$$$$##$$$",
"$####$$$$$$$$$$$$  -- -&& + $$$$$$$$$$$$$$$##$$$",
"$####$$$$$$$$$$$$ &----&&& $$$$$$$$$$$$$$$$##$$$",
"$#####$$$$$$$$$$$$ &--&&& $$$$$$$$$$$$$$$$$##$$$",
"$#####$$$$$$$$$$$$ o%%Ooo $$$$$$$$$$$$$$$$$##$$$",
"$##$##$$$$$$$$$$$$ o%%OOo $$$$$$$$$$$$$$$$$$#$$$",
"$##$#$$$$$$$$$$$$ &&%%OO-- $$$$$$$$$$$$$$$$##$$$",
"$##$##$$$$$$$$$$$ &&====-- $$$$$$$$$$$$$$$$$#$$$",
"$##$$$$$$$$$$$$$$X ==*==* X$$$$$$$$$$$$$$$$##$$$",
"$####$$$$$$$$$$$XX ..  .. XX$$$$$$$$$$$$$$$##$$$",
"$####$$$$$$$$$$$XXXXXXXXXXXX$$$$$$$$$$$$$$$##$$$",
"$$###$$$$$$$$$$$$XXXXXXXXXX$$$$$$$$$$$$$$$$##$$$",
"$$$##$$$$$$$$$$$$$$$$$$$$$$$$$$$$$$$$$$$$$$#$$$$",
"$$$##$$$$$$$$$$$$$$$$$$$$$$$$$$$$$$$$$$$$$$#$$$$",
"$$$###$$$$$$$$$$$$$$$$$$$$$$$$$$$$$$$$$$$$##$$$$",
"##$######$#$$$$$$$$$$$$$$$$$$$$$$$$$$$$$$$##$$$$",
"#########$$###############$##$$$$$$$#$######$$$$",
"$#######################$##$############$$##$$$#",
"##$$$#######################################$$$#",
"#$$$$$##################$$#################$$$$#",
"$$$$$$$$$$$$$#######################$$######$$$#",
"$$$$$$$$$$$$$$$$$$$$$$$$$$$$$$#########$$$$$###$",
"####$$$$$$$$$$$$$$$$$$$$$$$$$$$$$$$$$$$$$$$$$##$",
"$#####$$$$$$$$$$$$$$$$$$$$$$$$$$$$$$$$$$$$$$$$$#",
"##########$$$$$$$$$$$$$$$$$$$$$$$$$$$$$$$$$$$$$$"
};
