/* XPM */
static const char *P_moveR[] = {
/* columns rows colors chars-per-pixel */
"48 48 15 1 ",
"  c #0E061A",
". c #5D2D28",
"X c #6E4331",
"o c #134C4C",
"O c #714742",
"+ c #B76E4F",
"@ c #B86F4F",
"# c #B76D50",
"$ c #B96E51",
"% c #B86F51",
"& c #32994A",
"* c #D29E70",
"= c #0069AA",
"- c #0198DD",
"; c #F6CB9F",
/* pixels */
"$$$$$$$$#$$$$$$$$$$$$$$$$$$$$$$$$$$$$$$$$$$$$$$$",
"$$$$$$$$$#$$$$#$$$$$$$$$$$$$$$$$#$$$$$$$$$$$$$$$",
"$$$$$$$$$$$$$$$$$$$$$$$$$$#$$$$$$$$$$$$$$$$$$$$$",
"$$$$$$$$$$$$$$$$$$$$$$$$$$#$$$$$$$$$$$$$$#$$$$$$",
"$$$$$$$$$$$$$#$##$$$$$$$$$$$$$$$$$$$$$$$$$$$$$$$",
"$$$$$$#$$$$$$$$$$$$$$$$$$$$$$$$$$$$$$$$$$$#$$$$$",
"$$$$$$$$$$$$$$$$$$$$$$$$$$$$$$$$$$$$$$$$$$$$$$$$",
"$$$$$$$$$$$$$$$$$$$$$$$$$$$$$$$#$$$$$$$$$$$$$$$$",
"$$$$$$$$$$$$$$$$$$$$$$$$$$$$$$$$$$$$$$$$$$$$$$$$",
"$$$$$$$$$$$$$$$$$$$$$$$$$$$$$$$$$$$$$$$$$$$$$$$$",
"$#$$$$$$$$$$$$$$$$$$$$$$$$$$$$$$$$$$$$$$$$$$$$$$",
"$#$$$$$$$$$$$$$$$$$$$$$$@$@@$@@@@$$$$$$$$$$$$$$$",
"$#$$$$$$$$$@$$$$$$$$$       $$$$@$$$$$$$$$$$$$$$",
"$#$$$$$$$$$$$$$$$$$$ ..OOOO. $$$$@@$$$$$$$$$$$$$",
"$#$$$$$$$$$$$$$$$$$ OOOOOOOO. $@$@@@$$$$$$#$$$$$",
"$#$$$$$$$$$$$$$$$$ OOOOOOOOOO $@$@$@$$$$$$$@$$$$",
"$#$$$@$$$$$$$$$$$$ OOOOOOOOOO. @$$@@@$$$$$$@$$$$",
"$#$$$@$$$$$$$$$$$$ OO.OO.  .O. $@$@@@$$$$$$$$$$$",
"#$$$$$$$$$$$$$$$$$ ...O. **  . @@$@$@$$$$$$$$$$$",
"#$$$$$$$$$$$$$$$$$ .. . *;;*  $$@@$$@@$$$$$$$$$$",
"#$$$$$$$$$$$$$$$$$ O * * ;;  $$@$@$$@@$$$$@$$$$$",
"#$$$$$$$$$$$$$$@$$ O **; ;;  $$@$@$@$@$$$$@$$$$$",
"#$$$$$$$$$$$$$$@$$$ ***;;;;* $$@@$$@@@$$$$$$$$$$",
"#$$$$$$$$$$$$$$@$$$$ ***;;* $$$$@$$@@$$$$$@$$$$$",
"#$$$$$$$$$$$$$$@$$$$ ooo&&o $$$@@$@$@@$$$$@$$$$$",
"#$$$$$$$$$$$$@@@$$$$ oo;;&o $$$@$$@@@@$$$$$$$$$$",
"#$$$$$$$$$$$@$@$$$$$ -o;;-= $$$$$@@@@@$$$$$$$$$$",
"#$$$$$$$$$$$$@$$$$$ ..---== $$$$$@@@@$$$$$$$$$$$",
"$$$$$$$$$$$$$$$$$$$ ..  === $$$$@$@@@$$$$$$$$$$$",
"$$$$$$$$$$$$$$$$$$$   XX =.. $$$@@@@@$$$$$$$$$$$",
"$$$$$$$$$$$@$$$$$$XXXXXXX .. X$@@@@@$$$$$$$$$$$$",
"$$$$$$$$$$$$@@@#$$XXXXXXXXXXXX$@@@@@$$$$$$$$$$$$",
"$$$$$$$$$$$$$@@@@@@$$$$@@@@@@@@@@@@@$$$$@$$$$$$$",
"$$$$$$$$$$$$$$@@@+@@$$$$$@@@@@@@@@@$$$$$$$$$$$$$",
"$$$$$$$$$$$$$$$$@@+@@@$$$$$@@@@@@@$$$$$$$$$$$$$$",
"$$$$$$#$$$$$$$$$$$@@@@@$$$$$$$$@@@$$$$$$$$$$$$$$",
"$$$$$$$$$$$$$$@$@$$$@@@@@$$$$$@@@@$$$$$$$$$$$$$$",
"$$$$$#$$$$$$$$$$$$$$$$@@@@@+++@@@$$$$$$$$$$$$$$$",
"$$$$$$$$$$$$$$$$$$$$$$$$$$@@@@@@@$$$$$$$$$$$$$$$",
"$$$$$$$$$$$$$$$$$$$$$$$$$$$$$$$$$$$$$$$$$$@@$$$$",
"$$$$$$$$$$$$$$$$$$$$$$$$$$$$$$$$$$$$$$$$$$$@$$$$",
"$$$@$$@@@@@@@$@@$@$@@@@@@@@@@@@@@@@@@@@@$$$$$$$$",
"$$$$$$$$$$$$$$$$$$$$$$$$$$$$$$$$$$$$$$$$$$$$$$$$",
"$$$$$$$$$$$$$$$$$$$$$$$$$$$$$$$$$$$$$$$$$$$$$$$$",
"$$$$$$$$$$$$$$$$$$$$$$$$$$$$$$$$$$$$$$$$$$$$$$$$",
"$$$$$$$$$$$$$$$$$$$$$$$$$$$$$$$$$$$$$$$$$$$$$$$$",
"$$$$$$$$$$$$$$$$$$$$$$$$$$$$#$$$$$$$$$$$$$$$$$$$",
"$$$$$$$$$$$$$$$$$$$$$$$$$$$$$$$$$$$$$$$$$$$$$$$$"
};
