/* XPM */
static const char *P_moveB_2[] = {
/* columns rows colors chars-per-pixel */
"32 32 16 1 ",
"  c #0F071A",
". c #5D2C28",
"X c #71422F",
"o c #70442F",
"O c #704330",
"+ c #704430",
"@ c #134C4C",
"# c #1E6E50",
"$ c #714643",
"% c #B86F4E",
"& c #B86F4F",
"* c #B8704E",
"= c #33984B",
"- c #D39E70",
"; c #0069AA",
": c #0098DC",
/* pixels */
"********************************",
"%%%*************************%%%%",
"*************%%%%%%%%%%%%%%%****",
"%%%**%%%%%%%%*******************",
"*%%%%***************************",
"%***********       ***********%%",
"*********** ..$$$.. ******%%%%%%",
"********** .$$$$$$$. %%%%**%%%%%",
"***%%%%%%% $$$$$$$$$ %%*********",
"%%%%%%%%% $$$$$$$$$$$ **********",
"%******** $$$$$$$$$$$ **********",
"********* .$$$$$$$$$. **********",
"********* ...$$$$$... **%%%%%%%%",
"********** ......... *%%%%%%%%%%",
"********** ......... %%%%%%%%%%%",
"***%%%%%%%%  .....  %%%%%%%%%%%%",
"%%%%%%%%%%% @     @ %%%%%***%%%%",
"%%%%%%%%%%% @##==#@ %%%%%%%%%%%%",
"%%%%%%%*%% -@#===#@- %%%%%%%%%%%",
"%%%%%%%%%* -@#==##@- *%%%%%%*%%%",
"%*****%%%%% :;;;;;; %%**%%%%%%**",
"%%%%%%**%%O ..  ;;; O%%%*******%",
"%%%%%%%%%XOOOOO ... OO%%%%%%%%%*",
"*%%%%%%%*oO+OOX+++++++**********",
"%%**%%%%%%+++++++++++***********",
"%%%%****************************",
"*****************************%%%",
"%%%%%%%%%%%%%%%%%%%%%%%%%%%%%**%",
"%%%%%%%%%%%%%%%%%%%%%%%%%%%%%%%*",
"*******%%%%**%%%%***************",
"**%%%%%%**%%%*******************",
"%%%%%%%%%%%%%%%%%%%%%%%%%%%%%%%%"
};
