/* XPM */
static const char *P_moveL[] = {
/* columns rows colors chars-per-pixel */
"48 48 16 1 ",
"  c #0E071B",
". c #5D2D28",
"X c #6F4231",
"o c #124D4D",
"O c #704643",
"+ c #B76E4F",
"@ c #B96D4F",
"# c #B86F4F",
"$ c #B76D50",
"% c #B96E51",
"& c #B86F51",
"* c #33994A",
"= c #D39F70",
"- c #0069AA",
"; c #0099DD",
": c #F6CB9F",
/* pixels */
"%%%%%%%%$%$%%%%%%%%%%%%%%%%%%%%%%%$%%%%%%%%%%%%%",
"%%%%%%%%%%%%%%%%%%%%%%%%%%%%%%%%%%%%%%%%%%%%%%%%",
"%%%%%%%%%%%%%%%%%%%%%%%%%%%%%%%%%%%%%%%%%%%%%%%%",
"%%%%%%%%%%%%%%%%%%%%%%%%%%%%%%%%%%%%%%%%%%%%%%%%",
"%%%%%%%%%%%%%$%$$%%%%%%%%%%%%%%%%%%%%%%%%%%%%%%%",
"%%%%%%$%%%%%%%%%%%%%%%%%%%%%%%%%%%%%%%%%%%%$%%%%",
"%%%%%%%%%%%%%%%%%%%%%%%%%%%%%%%%%%@%%%%%%%%%%%%%",
"%%%%%%%%%%%%%%%%%%%%%%%%%%%%%%%%%%%%%%%%%%%%%%%%",
"%%%%%%%%%%%%%%%%%%%%%%%%%%%%%%%%%%%%%%%%%%%%%%%%",
"%%%%%%%%%%%%%%%%%%%%%%%%%%%%%%%%%%%%%%%%%%%%%%%%",
"%$%%%%%%%%%%%%%%%%%%%%%%%%%%%%%%%%%%%%%%%%%%%%%%",
"%$%%%%%%%%%%%%%%@@@@%@@%@%%%%%%%%%%%%%%%%%%%%%%%",
"%$%%%%%%%%%%%%%%@%%%%       %%%%%%%%%%%%%%%%%%%%",
"%$%%%%%%%%%%%%@@%%%% .OOOO.. %%%%%@%%%%%%%%%%%%%",
"%$%%%%%%$%%%%%@@%@% .OOOOOOOO %%%%@@%%%%%%%$%%%%",
"%$%%%%%%%%%%%%%@%@% OOOOOOOOOO %%%%@%%%%%%%@%%%%",
"%$%%%@%%%%%%%%@%%@ .OOOOOOOOOO %%%@@@%%%%%%@%%%%",
"%$%%%@%%%%%%%%@%@% .O.  .OO.OO %%%@@@%%%%%%%%%%%",
"$%%%%%%%%%%%%%@%@@ .  == .O... %%%@%@%%%%%%%%%%%",
"$%%%%%%%%%%%%%%@@%%  =::= . .. %%%%%@@%%%%%%%%%%",
"$%%%%%%%%%%%%%%@%@%%  :: = = O %%%%%@@%%%%@%%%%%",
"$%%%%%%%%%%%%%%@%@%%  :: :== O %%@%@%@%%%%@%%%%%",
"$%%%%%%%%%%%%%%%@@%% =::::=== %%%@%@@@%%%%%%%%%%",
"$%%%%%%%%%%%%%%%@%%%% =::=== %%%%@%@@%%%%%@%%%%%",
"$%%%%%%%%%%%%%@%@@%%% o**ooo %%%%@@%@@%%%%@%%%%%",
"$%%%%%%%%%%%%@@%%@%%% o*::oo %%%%@@@@@%%%%%%%%%%",
"$%%%%%%%%%%%@%@@%%%%% -;::o; %%%%%@@@@%%%%%%%%%%",
"$%%%%%%%%%%%%@@@%%%%% --;;;.. %%%%@@@%%%%%%%%%%%",
"%%%%%%%%%%%%%%@%@%%%% ---  .. %%%%@@@%%%%%%%%%%%",
"%%%%%%%%%%%%%%@@@%%% ..- XX   %%%%@@@%%%%%%%%%%%",
"%%%%%%%%%%%@%%@@@@%X .. XXXXXXX%%%@@%%%%%%%%%%%%",
"%%%%%%%%%%%%@@@@@@%XXXXXXXXXXXX%%$@@%%%%%%%%%%%%",
"%%%%%%%%%%%%%@@@@@@@@@@@@@%%%%@@@@@@%%%@%%%%%%%%",
"%%%%%%%%%%%%%%@@@@@@@@@@%%%%%@@+@@@%%%%%%%%%%%%%",
"%%%%%%%%%%%%%%%%@@+@@@%%%%%@@@@@@@%%%%%%%%%%%%%%",
"%%%%$%%%%%%%%%%%%%@@@@@%%%%%%%%@@@%%%%%%%%%%%%%%",
"%%%%%%%%%%%%%%%%%%%%@@@@@%%%%%@@@@%%%%%%%%%%%%%%",
"%%%%%$%%%%%%%%%%%%%%%%@@@@@+++@@@%%%%%%%%%%%%%%%",
"%%%%%%%%%%%%%%%%%%%%%%%%%%@@@@@@@%%%%%%%%%%%%%%%",
"%%%%%%%%%%%%%%%%%%%%%%%%%%%%%%%%%%%%%%%%%%@@%%%%",
"%%%%%%%%%%%%%%%%%%%%%%%%%%%%%%%%%%%%%%%%%%%@%%%%",
"%%%@%%@@@@@@@%@@%@%@@@@@@@@@@@@@@@@@@@@@%%%%%%%%",
"%%%%%%%%%%%%%%%%%%%%%%%%%%%%%%%%%%%%%%%%%%%%%%%%",
"%%%%%%%%%%%%%%%%%%%%%%%%%%%%%%%%%%%%%%%%%%%%%%%%",
"%%%%%%%%%%%%%%%%%%%%%%%%%%%%%%%%%%%%%%%%%%%%%%%%",
"%%%%%%%%%%%%%%%%%%%%%%%%%%%%%%%%%%%%%%%%%%%%%%%%",
"%%%%%%%%%%%%%%%%%%%%%%%%%%%%%%%%%%%%%%%%%%%%%%%%",
"%%%%%%%%%%%%%%%%%%%%%%%%%%%%%%%%%%%%%%%%%%%%%%%%"
};
