/* XPM */
static const char *P_moveB[] = {
/* columns rows colors chars-per-pixel */
"32 32 14 1 ",
"  c #0E071B",
". c #5C2C28",
"X c #70442F",
"o c #704331",
"O c #704430",
"+ c #134D4C",
"@ c #1E6F50",
"# c #704642",
"$ c #B86F4F",
"% c #B8714E",
"& c #33984A",
"* c #0069AA",
"= c #0098DC",
"- c #F6CA9E",
/* pixels */
"$$%%%$$%%%%%%%%%%%%%%%%%%%$%%%$$",
"%%%%$%%%%%%%%%%%%%%%%%%%$$%%%%$%",
"%%$%%%%%%%%%%%%%%%%%%%%$%%%%%%$$",
"%$%%%%%%%%%%       %%%$%%%$$$$%%",
"%%%%%%%%%%% ..###.. %$%%%$$$$%%%",
"%%%%%%%%%% .#######. %%%$%%$%%%%",
"%%%%%%%%%% ######### %$$%%$%%%%$",
"%%%%%%%%$ ########### %%$$%%%%$%",
"%%%%%$$$$ ########### %$%%%%%$%%",
"%%%$$$%%$ .#########. %%%%%$$%%%",
"%$$$$$$$% ...#####... %%%%$%%%%$",
"$$$%$$%%%% ......... %%%$$%%%$$%",
"%%$$%%%%%% ......... %%$%%%$$%%%",
"$$%%%%%%%$%  .....  %%%%%%$%%%%%",
"%%%%%%$$$%% +     + %%%%%$%%%%%%",
"%$$$$$$%%$$ +@&&@@+  %%%$%%%%%%$",
"$$$$$$%%$%% +@&&&@+-- $$%%%%%$$%",
"$$$$$%%$%%% +@@&&@+-- %%%%%%$%%%",
"$$$$%%$%%%% ==*****  %%%%%%$%%%$",
"$$$%%$%%%%% .....** %%%%%%$%%$$%",
"$$%%$%%%%%%%   ...* %%%%%$%%$%%%",
"%%$$%%%%%%OOXo ... OX%%%%%%$%%%%",
"%$%%%%%%%OXXXOO   OOOX%%%$$%%%%%",
"$%%%%%%%%OXoOXOOXOXOOO%%$%%%$$$%",
"%%%%%%%%%$oXOOXOXXOOO%$$%%$$%%%%",
"%%%%%%%$$%%%%%%%%%%%%%%$$%%%%%%%",
"%%%%%%$%%%%%%%%%%%%%%%%%%%%%%%%%",
"%%%%%$%%%%%%%%%%%%%%%%%%%%%%%%%$",
"%%%%%%%%%%%%%%%%%%%%%%%%%%%%%%%%",
"%%%%%%%%%%%%%%%%%%%%%%%%%%%%%%%%",
"%%%%%%%%%%%%%%%%%%%%%%%%%%%%%%%%",
"%%%%%%%%%%%%%%%%%%%$%%%%%%%%%%%%"
};
