/* XPM */
static const char *P_moveR[] = {
/* columns rows colors chars-per-pixel */
"48 48 16 1 ",
"  c #0E061A",
". c #5D2D28",
"X c #6F4231",
"o c #134C4D",
"O c #714742",
"+ c #B76E4F",
"@ c #B96D4F",
"# c #B86F4F",
"$ c #B76D50",
"% c #B96E51",
"& c #B86F51",
"* c #32994A",
"= c #D29E70",
"- c #0169AB",
"; c #0098DC",
": c #F6CB9E",
/* pixels */
"%%%%%%%%$%%%%%%%%%%%%%%%%%%%%%%%%$%%%%%%%%%%%%%%",
"%%%%%%%%%%%%%%%%%%%%%%%%$$%%%%%%%%%%%%%%%%%%%%%%",
"%%%%%%%%%%%%%%%%%%%%%%%%%%%%%%%%%%%%%%%%%%%%%%%%",
"%%%%%%%%%%%%%%%%%%%%%%%%%%%%%%%%%%%%%%%%%%%%%%%%",
"%%%%%%%%%%%%%$%$$%%%%%%%%%%%%%%%%%%%%%%%%%%%%%%%",
"%%%%%%$%%%%%%%%%%%%%%$%%%%%%%%%%%%%%%%%%%%%%%%%%",
"%%%%%%%%%%%%%%%%%%%%%%%%%%%%%%%%%%%%%%%%%%%%%%%%",
"%%%%%%%%%%%%%%%%%%%%%%%%%%%%%%%%%%%%%%%%%%%%%%%%",
"%%%%%%%%%%%%%%%%%%%%%%%%%$%%%%%%%%%%%%%%%%%%%%%%",
"%%%%%%%%%%%%%%%%%%%%%%%%%$%%%%%%%%%%%%%%%%%%%%%%",
"%$%%%%%%%%%%%%%%%%%%%%%%%%%%%%%%%%%%%%%%%%%%%%%%",
"%$%%%%%%%%%%%%%%%%%%%%%%@%@@%@@@@%%%%%%%%%%%%%%%",
"%$%%%%%%%%%%%%%%%%%%%       %%%%@%%%%%%%%%%%%%%%",
"%$%%%%%%%%%%%%%%%%%% ..OOOO. %%%%@@%%%%%%%$%%%%%",
"%$%%%%%%%%%%%%%%%%% OOOOOOOO. %@%@@@%%%%%%%$%%%%",
"%$%%%%%%%%%%%%%%%% OOOOOOOOOO %@%@%@%%%%%%%@%%%%",
"%$%%%@%%%%%%%%%%%% OOOOOOOOOO. @%%@@@%%%%%%@%%%%",
"%$%%%@%%%%%%%%%%%% OO.OO.  .O. %@%@@@%%%%%%%%%%%",
"$%%%%%%%%%%%%%%%%% ...O. ==  . @@%@%@%%%%%%%%%%%",
"$%%%%%%%%%%%%%%%%% .. . =::=  %%@@%%@@%%%%%%%%%%",
"$%%%%%%%%%%%%%%%%% O = = ::  %%@%@%%@@%%%%@%%%%%",
"$%%%%%%%%%%%%%%@%% O ==: ::  %%@%@%@%@%%%%@%%%%%",
"$%%%%%%%%%%%%%%@%%% ===::::= %%@@%%@@@%%%%%%%%%%",
"$%%%%%%%%%%%%%%@%%%% ===::= %%%%@%%@@%%%%%@%%%%%",
"$%%%%%%%%%%%%%%@%%%% ooo**o %%%@@%@%@@%%%%@%%%%%",
"$%%%%%%%%%%%%@@@%%%% oo::*o %%%@%%@@@@%%%%%%%%%%",
"$%%%%%%%%%%%@%@%%%%% ;o::;- %%%%%@@@@@%%%%%%%%%%",
"$%%%%%%%%%%%%@%%%%%% --;;;.. %%%%@@@@%%%%%%%%%%%",
"%%%%%%%%%%%%%%%%%%%% ---  .. %%%@%@@@%$%%%%%%%%%",
"%%%%%%%%%%%%%%%%%%% ..- XX   %%%@@@@@%%%%%%%%%%%",
"%%%%%%%%%%%@%%%%%%X .. XXXXXXX%@@@@@%%%%%%%%%%%%",
"%%%%%%%%%%%%@@@$%%XXXXXXXXXXXX%@@@@@%%%%%%%%%%%%",
"%%%%%%%%%%%%%@@@@@@@@@@@@%%%%@@@@@@@%%%%%%%%%%%%",
"%%%%%%%%%%%%%%@@@@@@@@@%%%%%@@+@@@@%%%%%%%%$%%%%",
"%%%%%%%%%%%%%%%%@@+@@@%%%%%@@@@@@@%%%%%%%%%%%%%%",
"%%%%%%%%%%%%%%%%%%@@@@@%%%%%%%%@@@%%%%%%%%%%%%%%",
"%%%%%%%%%%%%%@@%@%%%@@@@@%%%%%@@@@%%%%%%%%%%%%%%",
"%%%%%$%%%%%%%%%%%%%%%%@@@@@+++@@@%%%%%%%%%%%%%%%",
"%%%%%%%%%%%%%%%%%%%%%%%%%%@@@@@@@%%%%%%%%%%%%%%%",
"%%%%%%%%%%%%%%%%%%%%%%%%%%%%%%%%%%%%%%%%%%@@%%%%",
"%%%%%%%%%%%%%%%%%%%%%%%%%%%%%%%%%%%%%%%%%%%@%%%%",
"%%%@%%@@@@@@@%@@%@%@@@@@@@@@@@@@@@@@@@@@%%%%%%%%",
"%%%%%%%%%%%%%%%%%%%%%%%%%%%%%%%%%%%%%%%%%%%%%%%%",
"%%%%%%%%%%%%%%%%%%%%%%%%%%%%%%%%%%%%%%%%%%%%%%%%",
"%%%%%%%%%%%%%%%%%%%%%%%%%%%%%%%%%%%%%%%%%%%%%%%%",
"%%%%%%%%%%%%%%%%%%%%%%%%%%%%%%%%%%%%%%%%%%%%%%%%",
"%%%%%%%%%%%%%%%%%%%%%%%%%%%%%%%%%%%%%%%%%%%%%%%%",
"%%%%%%%%%%%%%%%%%%%%%%%%%%%%%%%%%%%%%%%%%%%%%%%%"
};
