/* XPM */
static const char *P_right[] = {
/* columns rows colors chars-per-pixel */
"48 48 16 1 ",
"  c #0E071B",
". c #5C2C28",
"X c #6F4330",
"o c #124C4C",
"O c #1E6F50",
"+ c #704643",
"@ c #B76F4F",
"# c #B86A4C",
"$ c #B86F4F",
"% c #B9704F",
"& c #B86F50",
"* c #33984B",
"= c #D29F70",
"- c #0069AA",
"; c #0098DC",
": c #F6CA9F",
/* pixels */
"%%%%%%%%%%%%%%%%%%%%%%%%%%%%%%%%%%%%%%%%%%%%%%%%",
"%%%%%%%%%%%%%%%%%%%%%%%%%%%%%%%%%%%%%%%%%%%%%%%%",
"%%%%%%%%%%%%%%%%%%%%%%%%%%%%%%%%%%%%%%%%%%%%%%%%",
"%%%%%%%%%%%%%%%%%%%%%%%%%%%%%%%%%%%%%%%%%%%%%%%%",
"$$$$$$$$$$$$$$$$$$$$$$$$$$$$$$$$$$$$$$$$$$$$$%%%",
"$%$$$$$$$$$$$$$$$$$$$$$$$$$$$$$$$$$$$$$$$$$$%%%%",
"$%$$&&&&&&&&&&&&&&&&&&&&&&&&&&&&&&&&&&&&&&&$%%%%",
"$%$$$&&&&&&&&&&&&&&&&&&&&&&&&&&&&&&&&&&&&&$$%%%%",
"$%$%$$&&&&&&&&&&&&&&&&&&&&&&&&&&&&&&&&&&&&$$%%%%",
"$%$%$$&&&&&&&&&&&&&&&&&&&&&&&&&&&&&&&&&&&&$$%%%%",
"$%$$$$&&&&&&&&&&&&&&&&&&&&&&&&&&&&&&&&&&&&$$%%%%",
"$%$$%$&&&&&&&&&&&&&&&&&&&&&&&&&&&&&&&&&&&&$$%%%%",
"$%$$%$&&&&&&&&&&&&&&&&&&&&&&&&&&&&&&&&&&&&$$%%%%",
"$%$$$$&&&&&&&&&&&&&&&&&&&&&&&&&&&&&&&&&&&&$$%%%%",
"$%$%$$&&&&&&&&&&&&&&&&&&&&&&&&&&&&&&&&&&&&$$%%%%",
"$%$$$$&&&&&&&&&&&&&&&&&       &&&&&&&&&&&&$$%%%$",
"%%%$$$&&&&&&&&&&&&&&&& ..++++. &&&&&&&&&&&$$%%%$",
"%%%$$&&&&&&&&&&&&&&&& ++++++++. &&&&&&&&&&$%%%%$",
"%%%$$&&&&&&&&&&&&&&& ++++++++++ &&&&&&&&&$$%%%$$",
"%%%$$&&&&&&&&&&&&&&& ++++++++++. &&&&&&&&$$%%%$%",
"%%%$$&&&&&&&&&&&&&&& ++.++.  .+. &&&&&&&&$%%%%$%",
"%%%$$&&&&&&&&&&&&&&& ...+. ==  . &&&&&&&&$%%%%$$",
"%%%$$&&&&&&&&&&&&&&& .. . =::=  &&&&&&&&$$%%%%$$",
"%%%$$&&&&&&&&&&&&&&& + = = ::  &&&&&&&&&$$%%%%$$",
"%%%$$&&&&&&&&&&&&&&& + ==: ::  &&&&&&&&&$$%%%%$$",
"%%%$$&&&&&&&&&&&&&&&& ===::::= &&&&&&&&&$$%%%%$$",
"%%%$$&&&&&&&&&&&&&&&&& ===::= &&&&&&&&&&$$%%%%$$",
"%%%$$&&&&&&&&&&&&&&&&& ooO**o &&&&&&&&&&$$%%%%$$",
"%%%$$&&&&&&&&&&&&&&&&& oOO**o &&&&&&&&&&$$%%%%$$",
"%%%$$&&&&&&&&&&&&&&&& ::OO**== &&&&&&&&&$$%%%$$$",
"%%%$$&&&&&&&&&&&&&&&& ::;;;;== &&&&&&&&&$$%%%$%%",
"%%%$$&&&&&&&&&&&&&&&&X -;;-;; X&&&&&&&&&$%%%%$%%",
"%%%%$$&&&&&&&&&&&&&&XX ..  .. XX&&&&&&&&$%%%%%%%",
"%%%%%$&&&&&&&&&&&&&&XXXXXXXXXXXX&&&&&&&$$%%%%%%%",
"%%%%%$&&&&&&&&&&&&&&&XXXXXXXXXX&&&&&&&&$$%%%%%%%",
"$%%%%$&&&&&&&&&&&&&&&&&&&&&&&&&&&&&&&&&$$%%%%%%%",
"%$$$%$&&&&&&&&&&&&&&&&&&&&&&&&&&&&&&&&&$&%%%%%%%",
"%$$%$$&&&&&&&&&&&&&&&&&&&&&&&&&&&&&&&&&$&%%%%%%%",
"%$$%$@&&&&&&&&&&&&&&&&&&&&&&&&&&&&&&&&&$&$%%%%%$",
"$$$%$$$$$&$$&&&&&&&&&&$$&&$$$$&&&&&&&&&$&$%%%%%$",
"$$$$$$$@@$$$$$$$$$$$$$$$$$$$$$@$$$$&&&&&$$%%%%%$",
"$$$$$%$$$$$$$$$$$$$$$$$$$$%%$$#$$&&$$$$&$$%%%%%$",
"$%$%$%%%%%$$$$$$$$$$$$$$$$$$%%%%$$$$$$&$@$%%%%$%",
"$$$$$$$$$$$$$$$$$$$$$$$$$$$$$$$%%%%%%$$$$$%%%$$%",
"$$$%%%%%%%%%$$$%%%%%%%%%%%%%%%%$$$$$$%%%%$$$$$%$",
"%%$%%%%%%%%%$$%%%%%%%%%%%%%%%%%%%%%%%%%%%%%%%%%$",
"%%%%%%%%%%%%%%%%%%%%%%%%%%%%%%%%%%%%%%%%%%%%%%$$",
"$%%%%%%%%%%%%%%%%%%%%%%%%%%%%%%%%%%%%%%%%%%%%$$$"
};
