/* XPM */
static const char *Tree[] = {
/* columns rows colors chars-per-pixel */
"48 48 162 2 ",
"   c #192728",
".  c #172F29",
"X  c #1C2C2C",
"o  c #18332E",
"O  c #113F2E",
"+  c #0F3634",
"@  c #0F3837",
"#  c #0F3D39",
"$  c #113130",
"%  c #133A35",
"&  c #183B35",
"*  c #123E3B",
"=  c gray14",
"-  c #2C292B",
";  c #35252C",
":  c #283A25",
">  c #21322B",
",  c #363429",
"<  c #393B2F",
"1  c #203630",
"2  c #253B33",
"3  c #2B3A31",
"4  c #482F2E",
"5  c #44392E",
"6  c #4C2D31",
"7  c #533235",
"8  c #5B3635",
"9  c #643A37",
"0  c #6A3D37",
"q  c #613A38",
"w  c #1D4426",
"e  c #1E4A28",
"r  c #11403F",
"t  c #144A3E",
"y  c #1C5A35",
"u  c #16503B",
"i  c #1C5C3B",
"p  c #224328",
"a  c #28412B",
"s  c #244D2F",
"d  c #2F4C2B",
"f  c #25542F",
"g  c #255E2F",
"h  c #214F3A",
"j  c #304231",
"k  c #394532",
"l  c #3D4F33",
"z  c #2B5731",
"x  c #2E5833",
"c  c #285F39",
"v  c #345330",
"b  c #3D5533",
"n  c #375C35",
"m  c #28612D",
"M  c #296033",
"N  c #256C37",
"B  c #2B6C36",
"V  c #216B3C",
"C  c #3D6137",
"Z  c #356C34",
"A  c #26733B",
"S  c #28723B",
"D  c #2C7C3D",
"F  c #3D7636",
"G  c #31713C",
"H  c #327A38",
"J  c #42422C",
"K  c #4E422F",
"L  c #47492F",
"P  c #48482F",
"I  c #424134",
"U  c #4E4133",
"Y  c #584333",
"T  c #5E4C34",
"R  c #405333",
"E  c #4C5234",
"W  c #485A32",
"Q  c #505034",
"!  c #5C5035",
"~  c #684C36",
"^  c #6C4F39",
"/  c #74453B",
"(  c #7C453A",
")  c #764F39",
"_  c #7C4B3E",
"`  c #695539",
"'  c #74513A",
"]  c #7C543E",
"[  c #7F5C3F",
"{  c #124441",
"}  c #144C44",
"|  c #155142",
" . c #15534B",
".. c #175A4C",
"X. c #185E4B",
"o. c #1A634E",
"O. c #1D6B4E",
"+. c #1F714F",
"@. c #1C6E50",
"#. c #206C43",
"$. c #2A7E41",
"%. c #21764E",
"&. c #247C4E",
"*. c #7F4D41",
"=. c #7B5640",
"-. c #7E5941",
";. c #804739",
":. c #824B3C",
">. c #83553E",
",. c #8D553F",
"<. c #83593F",
"1. c #875540",
"2. c #8B5341",
"3. c #8D5A41",
"4. c #925642",
"5. c #935B43",
"6. c #9B5D43",
"7. c #A15E46",
"8. c #9D6046",
"9. c #9F6248",
"0. c #A36246",
"q. c #A86547",
"w. c #A56348",
"e. c #AA674A",
"r. c #AD694C",
"t. c #B46C4D",
"y. c #B86F4F",
"u. c #B8704F",
"i. c #B76E50",
"p. c #B86F50",
"a. c #32823D",
"s. c #44873D",
"d. c #2D8442",
"f. c #2E8944",
"g. c #27814E",
"h. c #29854D",
"j. c #2D8C4C",
"k. c #348A40",
"l. c #2F924D",
"z. c #349346",
"x. c #3A9342",
"c. c #3F9D46",
"v. c #31954A",
"b. c #359A4B",
"n. c #399E4B",
"m. c #3DA34C",
"M. c #4AA544",
"N. c #4FAF47",
"B. c #41A64B",
"V. c #43AB4C",
"C. c #47B04D",
"Z. c #4CB44D",
"A. c #4FB94D",
"S. c #52B449",
"D. c #52B84B",
"F. c #55BB4B",
"G. c #52BA4D",
"H. c #52BD4E",
"J. c #55BE4D",
"K. c #56C14E",
"L. c #58C34E",
"P. c #5AC54F",
/* pixels */
"u.u.u.u.u.u.u.u.u.u.u.u.u.u.u.u.u.u.u.u.u.u.u.u.u.u.u.u.u.u.u.u.u.u.u.u.u.u.u.u.u.u.u.u.u.u.u.u.",
"u.u.u.u.u.u.u.u.u.u.u.u.u.u.u.u.u.u.u.u.u.u.u.u.u.u.u.u.u.u.u.u.u.u.u.u.u.u.u.u.u.u.u.u.u.u.u.u.",
"y.u.u.u.u.u.u.u.u.u.u.u.u.u.u.u.u.u.u.u.u.u.u.u.u.u.u.u.u.u.u.u.u.u.u.u.u.u.u.u.u.u.u.u.u.u.u.u.",
"y.y.y.y.y.y.y.y.y.y.y.y.y.y.y.y.y.y.y.y.u.u.u.u.u.u.u.u.u.u.u.u.u.u.u.u.u.u.u.u.u.u.u.u.u.u.u.u.",
"y.y.y.y.y.y.y.y.y.y.y.y.y.y.y.y.y.y.y.y.y.y.y.y.y.y.y.y.y.y.y.y.y.y.y.y.y.y.y.y.y.y.y.y.u.u.u.u.",
"y.y.y.y.y.p.p.p.p.p.p.p.p.p.p.p.p.r.w.r.w.y.6.T 9.e.y.y.y.y.y.y.y.y.y.y.y.y.y.y.y.y.y.y.u.u.u.u.",
"y.y.u.y.y.p.p.p.p.p.p.p.p.p.p.y.>.E z Q v ^ C D p b 5.] e.p.p.p.p.p.p.p.p.p.p.p.p.p.y.y.u.u.u.u.",
"y.y.u.y.y.p.p.p.p.p.p.p.p.p.i.) f B V.D a.$.n.Z.z.c.x S L 5.y.p.p.p.p.p.p.p.p.p.p.p.y.y.u.u.u.u.",
"u.y.y.y.y.p.p.p.p.p.p.p.p.p.<.Z N x.F.H.J.V.K.L.H.S.x.V.m F ' e.p.p.p.p.p.p.p.p.p.p.y.y.u.u.u.u.",
"u.u.y.y.y.p.p.p.p.p.p.p.p.r.J M.G.L.P.P.P.L.P.P.P.P.P.P.J.N.w R 9.p.p.p.p.p.p.p.p.p.y.y.u.u.u.u.",
"u.u.y.y.y.p.p.p.p.p.p.p.p.! S a.V.L.P.P.P.P.P.P.P.P.P.P.P.Z.B.D : ` t.p.p.p.p.p.p.p.y.y.u.u.u.u.",
"u.u.y.u.y.p.p.p.p.p.p.p.t.J S V.G.J.P.P.P.P.P.P.P.P.P.P.P.H.J.H c.M 8.p.p.p.p.p.p.p.y.y.u.u.u.u.",
"u.u.y.u.y.y.p.p.p.p.p.p.3.B A z.C.B.K.P.P.P.P.P.P.P.P.P.P.P.G.D.D.e ' p.p.p.p.p.p.p.y.y.u.u.u.u.",
"u.u.u.y.u.y.y.p.p.p.p.p.9.n n.Z.m.J.P.P.P.P.P.P.P.P.P.P.P.P.P.P.V.k.F 5.p.p.p.p.p.p.y.y.u.u.u.u.",
"u.u.u.y.u.u.y.p.p.p.p.r.K N m.B.n.A.P.P.P.P.P.P.P.P.P.P.H.H.P.P.K.B.g ] p.p.p.p.p.p.y.y.u.u.u.u.",
"u.u.u.y.u.u.y.y.p.p.p.' S a.C.C.G.A.K.P.P.P.P.P.P.P.P.K.B.G.P.P.G.J.z.l t.p.p.p.p.p.y.y.u.u.u.u.",
"u.u.u.y.u.u.u.y.p.p.p.3.z m.H.K.P.P.P.L.K.P.P.P.P.J.Z.B.b.m.A.Z.n.m.G -.p.p.p.p.p.p.y.y.u.u.u.u.",
"u.u.u.u.y.u.u.y.y.p.p.~ g f.H.L.P.P.P.A.m.A.P.P.P.P.A.A.B.v.m.V.m.C.d 5.p.p.p.p.p.p.y.y.u.u.u.u.",
"u.u.u.u.y.y.u.u.y.y.p.1.c b.A.B.J.P.J.m.Z.A.P.P.P.P.P.G.n.m.B.K.B.A.S.W t.p.p.p.p.p.y.y.u.u.u.u.",
"u.u.u.u.y.y.u.u.u.y.y.9.a d.b.m.K.P.A.n.A.P.J.P.P.P.P.P.H.A.n.B.b.n.s.[ p.p.p.p.p.p.y.y.u.u.u.u.",
"u.u.u.u.y.u.y.u.u.u.y.^ i V v.Z.P.L.V.b.H.A.m.L.G.V.H.P.P.G.A.B.b.f.P p.p.p.p.p.p.p.y.y.u.u.u.u.",
"u.u.u.u.y.y.y.u.u.u.y.r.K i b.H.Z.B.B.b.Z.m.m.V.J.B.J.H.K.J.G.b.z.y j 0.p.p.p.p.p.p.y.y.u.u.u.u.",
"u.u.u.u.u.y.y.y.u.u.y.p.' A l.n.b.v.v.v.b.Z.m.b.m.b.m.n.V.m.A.b.j.O.h 3.p.p.p.p.p.p.y.y.u.u.u.u.",
"u.u.u.u.u.y.y.y.y.u.y.t.k %.&.v.h.j.j.h.b.v.b.b.v.v.v.v.v.h.v.h.$.s =.p.p.p.p.p.p.p.y.y.u.u.u.u.",
"y.u.u.u.u.y.y.y.y.y.y.p.] O #.g.%.v.g.%.h.j.v.v.v.v.h.&.j.%.&.g.u < e.p.p.p.p.p.p.p.y.y.u.u.u.u.",
"y.u.u.u.u.y.y.y.u.y.y.p.e., } X.O.%.O.@.+.j.&.g.v.g.h.+.O.+.o.} } 2 0.p.p.p.p.p.p.p.y.y.u.u.u.u.",
"u.u.u.u.y.u.y.y.u.y.y.p.p.] o t O.t ..O.o.O.O.+.&.+.o.@.o. . .@ U 6.p.p.p.p.p.p.p.p.y.y.u.u.u.u.",
"u.u.u.u.y.u.y.y.u.y.y.p.p.y.' & % # | o.o.o.o...o.o.X.} ..# @ 2 6.p.p.p.i.p.p.p.p.p.y.y.u.u.u.u.",
"u.y.u.u.y.y.y.y.u.y.y.p.p.p.y.6.] > r { {  .* % } % } + 1 * Y 9.p.p.p.p.p.p.p.p.p.p.y.y.u.u.u.u.",
"u.y.u.u.y.y.y.y.u.y.y.p.p.p.p.p.p.3.3 . { $ - =   ; X I 5.] t.p.p.p.p.p.p.p.p.p.p.p.y.y.u.u.u.u.",
"y.u.u.u.y.y.y.y.u.y.y.p.p.p.p.p.i.t.9.>.5 4 0 7 6 7 8 ,.w.r.t.i.p.p.p.p.p.p.p.p.p.p.y.y.u.u.u.u.",
"y.u.u.y.u.y.y.u.y.y.y.p.p.p.p.y.w.6.6.6.5./ 4./ :.9 9 5.6.6.6.w.y.p.p.p.p.p.p.p.p.p.y.y.u.u.u.u.",
"y.u.y.y.u.y.y.u.y.y.p.p.p.p.i.w.6.6.6.6.4./ 6.:.7.( 9 5.6.6.6.6.w.y.p.p.p.p.p.p.p.p.y.y.u.u.u.u.",
"y.u.y.y.y.y.y.u.y.y.p.p.p.p.e.6.6.6.6.6.5.q ( 4.7.;.0 4.6.6.6.6.6.e.p.p.p.p.p.p.p.p.y.y.u.u.u.u.",
"u.y.u.y.y.y.u.u.y.y.p.p.p.y.9.6.6.6.6.6.2./ / / ( :./ 2.6.6.6.6.6.0.y.p.p.p.p.p.p.p.y.y.u.u.u.u.",
"u.y.u.u.y.y.u.y.y.p.p.p.p.e.6.6.6.6.6.6./ 0.:.9 7 q 6./ 6.6.6.6.6.6.e.p.p.p.p.p.p.p.y.y.u.u.u.u.",
"u.y.u.u.y.y.u.y.y.p.p.p.p.0.6.6.6.6.6.1.*.:.8 2.*.7 / 2.:.6.6.6.6.6.0.p.p.p.p.p.p.p.y.y.u.u.u.u.",
"y.y.u.y.y.y.y.y.y.p.p.p.p.r.6.6.6.6.6._ 2./ / / 2._ 2.6.4.6.6.6.6.6.r.p.p.p.p.p.p.p.y.y.u.u.u.u.",
"y.y.y.y.y.u.y.y.y.p.p.p.p.y.0.6.6.6.6.6.6.6.5._ 6.2.6.6.6.6.6.6.6.0.y.p.p.p.p.p.p.p.y.y.u.u.u.y.",
"y.u.y.y.y.y.y.y.p.p.p.p.p.p.r.6.6.6.6.6.6.6.6.6.6.6.6.6.6.6.6.6.6.t.p.p.p.p.p.p.p.p.y.y.u.u.u.y.",
"y.u.y.y.y.p.y.y.p.p.p.p.p.p.i.r.6.6.6.6.6.6.6.6.6.6.6.6.6.6.6.6.r.p.p.p.p.p.p.p.p.p.y.u.u.u.u.y.",
"y.u.y.y.y.y.y.y.y.y.y.y.y.y.y.y.t.0.6.6.6.6.6.6.6.6.6.6.6.6.w.r.i.p.p.p.p.p.p.p.p.p.y.u.u.u.u.y.",
"y.u.y.y.y.y.y.y.y.y.y.y.y.y.y.y.y.y.y.e.w.0.6.6.6.6.0.q.e.y.y.y.y.y.y.y.y.y.y.y.y.y.y.u.u.u.u.y.",
"y.u.y.y.y.y.y.y.y.y.y.y.y.y.y.y.y.y.y.y.y.t.t.t.t.t.y.y.y.y.y.y.y.y.y.y.y.y.y.y.y.y.y.u.u.u.u.y.",
"y.u.y.y.u.u.u.u.u.u.u.u.u.u.u.u.u.u.u.u.u.y.y.y.y.y.y.y.y.y.y.y.y.y.y.y.y.y.y.y.y.y.y.y.y.y.y.y.",
"y.u.y.u.u.u.u.u.u.u.u.u.u.u.u.u.u.u.u.u.u.u.u.u.u.u.u.u.u.u.u.u.u.u.u.u.u.u.u.u.u.u.u.u.u.u.y.y.",
"u.u.y.u.u.u.u.u.u.u.u.u.u.u.u.u.u.u.u.u.u.u.u.u.u.u.u.u.u.u.u.u.u.u.u.u.u.u.u.u.u.u.u.u.u.u.u.u.",
"u.y.y.u.u.u.u.u.u.u.u.u.u.u.u.u.u.u.u.u.u.u.u.u.u.u.u.u.u.u.u.u.u.u.u.u.u.u.u.u.u.u.u.u.u.u.u.u."
};
