/* XPM */
static const char *players_1[] = {
/* columns rows colors chars-per-pixel */
"48 48 163 2 ",
"   c #0C000F",
".  c #000012",
"X  c #0A0117",
"o  c #070318",
"O  c #0C051A",
"+  c #130A1D",
"@  c #1B0D1D",
"#  c #1D0613",
"$  c #24111E",
"%  c #2B131E",
"&  c #34151D",
"*  c #381216",
"=  c #1A0F20",
"-  c #170F21",
";  c #0D1122",
":  c #08112C",
">  c #1E1121",
",  c #131424",
"<  c #0C1631",
"1  c #0D1B35",
"2  c #171E36",
"3  c #291C27",
"4  c #2D1F28",
"5  c #291623",
"6  c #311720",
"7  c #361A22",
"8  c #3A1D24",
"9  c #0C2531",
"0  c #1C2F37",
"q  c #2E222D",
"w  c #3F2127",
"e  c #33232B",
"r  c #3C242D",
"t  c #2B2130",
"y  c #2C2A3C",
"u  c #322630",
"i  c #352831",
"p  c #551F1B",
"a  c #492427",
"s  c #522626",
"d  c #53292A",
"f  c #5A2A27",
"g  c #572F30",
"h  c #4D3534",
"j  c #4D3836",
"k  c #41343F",
"l  c #523232",
"z  c #583131",
"x  c #5C3738",
"c  c #5E393A",
"v  c #602E2A",
"b  c #62312D",
"n  c #633531",
"m  c #693B36",
"M  c #633D3D",
"N  c #6A3D39",
"B  c #673936",
"V  c #5B433D",
"C  c #6D423E",
"Z  c #64483F",
"A  c #63473E",
"S  c #70423E",
"D  c #0B3C41",
"F  c #103F43",
"G  c #082E55",
"H  c #4D3E47",
"J  c #423743",
"K  c #13514C",
"L  c #165E4F",
"P  c #30514F",
"I  c #205651",
"U  c #1B694F",
"Y  c #1E724F",
"T  c #20744D",
"R  c #257D4B",
"E  c #307252",
"W  c #0D4369",
"Q  c #044679",
"!  c #177567",
"~  c #5A4443",
"^  c #514148",
"/  c #6F4440",
"(  c #694D41",
")  c #714643",
"_  c #734845",
"`  c #6D5043",
"'  c #6A5A53",
"]  c #775F56",
"[  c #785D51",
"{  c #7A635A",
"}  c #4A7462",
"|  c #567864",
" . c #85644F",
".. c #80675C",
"X. c #8A6852",
"o. c #967056",
"O. c #846F62",
"+. c #85796D",
"@. c #947766",
"#. c #2F8F48",
"$. c #26814A",
"%. c #2F924B",
"&. c #359A47",
"*. c #339A4A",
"=. c #31974A",
"-. c #2B935D",
";. c #1A8464",
":. c #228362",
">. c #2B9862",
",. c #3E8471",
"<. c #73866F",
"1. c #758F70",
"2. c #858672",
"3. c #8C9E78",
"4. c #B18561",
"5. c #B98C65",
"6. c #B78B68",
"7. c #AE977D",
"8. c #B89478",
"9. c #8DA077",
"0. c #93AE76",
"q. c #95B275",
"w. c #CF9D6F",
"e. c #C8976C",
"r. c #D09D6F",
"t. c #C59B77",
"y. c #035993",
"u. c #056099",
"i. c #0E6FA1",
"p. c #0974A6",
"a. c #077AB8",
"s. c #0780AF",
"d. c #0F86BE",
"f. c #1086BE",
"g. c #0992BD",
"h. c #2E9BBE",
"j. c #7DABB2",
"k. c #108BC4",
"l. c #0292C6",
"z. c #008AD2",
"x. c #0092DF",
"c. c #3CACDA",
"v. c #009AE4",
"b. c #14A2E2",
"n. c #64B1CB",
"m. c #83908F",
"M. c #9B9A80",
"N. c #89A083",
"B. c #CEA888",
"V. c #D9AA81",
"C. c #D0AA8A",
"Z. c #D9BA95",
"A. c #D4BD96",
"S. c #E7B789",
"D. c #EDBC8C",
"F. c #E2B994",
"G. c #EBC79D",
"H. c #F6CA9F",
"J. c #D0C1A5",
"K. c #F7CAA0",
"L. c #FACCA1",
"P. c #FFD3A4",
"I. c None",
/* pixels */
"I.I.I.I.I.I.I.I.I.I.I.I.I.I.I.I.I.I.I.I.I.I.I.I.I.I.I.I.I.I.I.I.I.I.I.I.I.I.I.I.I.I.I.I.I.I.I.I.",
"I.I.I.I.I.I.I.I.I.I.I.I.I.I.I.I.I.I.I.I.I.I.I.I.I.I.I.I.I.I.I.I.I.I.I.I.I.I.I.I.I.I.I.I.I.I.I.I.",
"I.I.I.I.I.I.I.I.I.I.I.I.I.I.I.I.I.I.I.I.I.I.I.I.I.I.I.I.I.I.I.I.I.I.I.I.I.I.I.I.I.I.I.I.I.I.I.I.",
"I.I.I.I.I.I.I.I.I.I.I.I.I.I.I.I.I.I.I.I.I.I.I.I.I.I.I.I.I.I.I.I.I.I.I.I.I.I.I.I.I.I.I.I.I.I.I.I.",
"I.I.I.I.I.I.I.I.I.I.I.I.I.I.I.I.I.I.I.I.I.I.I.I.I.I.I.I.I.I.I.I.I.I.I.I.I.I.I.I.I.I.I.I.I.I.I.I.",
"I.I.I.I.I.I.I.I.I.I.I.I.I.I.I.I.I.I.I.I.I.I.I.I.I.I.I.I.I.I.I.I.I.I.I.I.I.I.I.I.I.I.I.I.I.I.I.I.",
"I.I.I.I.I.I.I.I.I.I.I.I.I.I.I.I.I.I.I.I.I.I.I.I.I.I.I.I.I.I.I.I.I.I.I.I.I.I.I.I.I.I.I.I.I.I.I.I.",
"I.I.I.I.I.I.I.I.I.I.I.I.I.I.I.I.I.I.I.o o o o o o o o o I.I.I.I.I.I.I.I.I.I.I.I.I.I.I.I.I.I.I.I.",
"I.I.I.I.I.I.I.I.I.I.I.I.I.I.I.I.I.I.@ > > > @ @ > > > @ @ I.I.I.I.I.I.I.I.I.I.I.I.I.I.I.I.I.I.I.",
"I.I.I.I.I.I.I.I.I.I.I.I.I.I.I.I.I.@ a z c c z d x M x d 6 O I.I.I.I.I.I.I.I.I.I.I.I.I.I.I.I.I.I.",
"I.I.I.I.I.I.I.I.I.I.I.I.I.I.I.I.$ 8 n S _ _ C N ) _ ) N d 6 @ I.I.I.I.I.I.I.I.I.I.I.I.I.I.I.I.I.",
"I.I.I.I.I.I.I.I.I.I.I.I.I.I.I.O 7 n / ) ) ) / C ) ) ) ) N d @ I.I.I.I.I.I.I.I.I.I.I.I.I.I.I.I.I.",
"I.I.I.I.I.I.I.I.I.I.I.I.I.I.I.O r C ) ) ) ) m n C ) ) ) ) x > I.I.I.I.I.I.I.I.I.I.I.I.I.I.I.I.I.",
"I.I.I.I.I.I.I.I.I.I.I.I.I.I.@ 6 l ) ) ) / m b v n C ) ) _ M w $ I.I.I.I.I.I.I.I.I.I.I.I.I.I.I.I.",
"I.I.I.I.I.I.I.I.I.I.I.I.I.o @ d N ) ) / N b s s f B ) ) ) C n 7 O I.I.I.I.I.I.I.I.I.I.I.I.I.I.I.",
"I.I.I.I.I.I.I.I.I.I.I.I.I.o > x ) ) ) m b f 8 $ s m ) ) ) ) / r O I.I.I.I.I.I.I.I.I.I.I.I.I.I.I.",
"I.I.I.I.I.I.I.I.I.I.I.I.I.o > M _ ) _ m s 7 h A 8 a N ) _ ) _ r O I.I.I.I.I.I.I.I.I.I.I.I.I.I.I.",
"I.I.I.I.I.I.I.I.I.I.I.I.I.o > x ) C M z a e  .5.h 8 d x M C C r O I.I.I.I.I.I.I.I.I.I.I.I.I.I.I.",
"I.I.I.I.I.I.I.I.I.I.I.I.I.o @ d b d 5 + e o.e.w.5.Z @ = w b b 7 O I.I.I.I.I.I.I.I.I.I.I.I.I.I.I.",
"I.I.I.I.I.I.I.I.I.I.I.I.I.I.@ 6 & 8 A e e t.D.S.D.[ > V l % 7 % I.I.I.I.I.I.I.I.I.I.I.I.I.I.I.I.",
"I.I.I.I.I.I.I.I.I.I.I.I.I.I.I.O = j 5.` u B.P.L.L.{ 4 4.X.3 + I.I.I.I.I.I.I.I.I.I.I.I.I.I.I.I.I.",
"I.I.I.I.I.I.I.I.I.I.I.I.I.I.I.O V 5.r.( u B.P.L.L.{ 4 4.w.o.3 I.I.I.I.I.I.I.I.I.I.I.I.I.I.I.I.I.",
"I.I.I.I.I.I.I.I.I.I.I.I.I.I.I.I.j X.V.8.@.F.L.H.K.8.@.V.6.` 3 I.I.I.I.I.I.I.I.I.I.I.I.I.I.I.I.I.",
"I.I.I.I.I.I.I.I.I.I.I.I.I.I.I.I.. q 7.G.L.K.H.H.K.L.H.Z.' o I.I.I.I.I.I.I.I.I.I.I.I.I.I.I.I.I.I.",
"I.I.I.I.I.I.I.I.I.I.I.I.I.I.I.I.X , P M.L.K.H.H.H.L.Z.| 0 O I.I.I.I.I.I.I.I.I.I.I.I.I.I.I.I.I.I.",
"I.I.I.I.I.I.I.I.I.I.I.I.I.I.I.I.O ; D } 9.0.q.0.3.3.1.I 9 O I.I.I.I.I.I.I.I.I.I.I.I.I.I.I.I.I.I.",
"I.I.I.I.I.I.I.I.I.I.I.I.I.I.I.I.X ; F L T %.*.%.R Y U K 9 O I.I.I.I.I.I.I.I.I.I.I.I.I.I.I.I.I.I.",
"I.I.I.I.I.I.I.I.I.I.I.I.I.I.I.I.X ; F L T %.*.=.%.$.U K 9 O I.I.I.I.I.I.I.I.I.I.I.I.I.I.I.I.I.I.",
"I.I.I.I.I.I.I.I.I.I.I.I.I.I.I.I.~ O.2.| T R #.&.&.$.E <.+.] q I.I.I.I.I.I.I.I.I.I.I.I.I.I.I.I.I.",
"I.I.I.I.I.I.I.I.I.I.I.I.I.I.I.O ..L.L.N.! ! :.-.>.;.,.A.P.C.i I.I.I.I.I.I.I.I.I.I.I.I.I.I.I.I.I.",
"I.I.I.I.I.I.I.I.I.I.I.I.I.I.I.O ..L.L.j.l.l.s.p.g.l.h.J.P.C.i I.I.I.I.I.I.I.I.I.I.I.I.I.I.I.I.I.",
"I.I.I.I.I.I.I.I.I.I.I.I.I.I.I.I.~ +.j.c.v.z.y.Q a.x.b.n.m.] e I.I.I.I.I.I.I.I.I.I.I.I.I.I.I.I.I.",
"I.I.I.I.I.I.I.I.I.I.I.I.I.I.I.I.  1 i.k.a.u.G < Q p.f.d.W O I.I.I.I.I.I.I.I.I.I.I.I.I.I.I.I.I.I.",
"I.I.I.I.I.I.I.I.I.I.I.I.I.I.I.I.X - k ^ J 2 : I.< y H H q O I.I.I.I.I.I.I.I.I.I.I.I.I.I.I.I.I.I.",
"I.I.I.I.I.I.I.I.I.I.I.I.I.I.I.I.I.@ p I.p # I.I.I.* I.I.& I.I.I.I.I.I.I.I.I.I.I.I.I.I.I.I.I.I.I.",
"I.I.I.I.I.I.I.I.I.I.I.I.I.I.I.I.I.I.I.I.I.I.I.I.I.I.I.I.I.I.I.I.I.I.I.I.I.I.I.I.I.I.I.I.I.I.I.I.",
"I.I.I.I.I.I.I.I.I.I.I.I.I.I.I.I.I.I.I.I.I.I.I.I.I.I.I.I.I.I.I.I.I.I.I.I.I.I.I.I.I.I.I.I.I.I.I.I.",
"I.I.I.I.I.I.I.I.I.I.I.I.I.I.I.I.I.I.I.I.I.I.I.I.I.I.I.I.I.I.I.I.I.I.I.I.I.I.I.I.I.I.I.I.I.I.I.I.",
"I.I.I.I.I.I.I.I.I.I.I.I.I.I.I.I.I.I.I.I.I.I.I.I.I.I.I.I.I.I.I.I.I.I.I.I.I.I.I.I.I.I.I.I.I.I.I.I.",
"I.I.I.I.I.I.I.I.I.I.I.I.I.I.I.I.I.I.I.I.I.I.I.I.I.I.I.I.I.I.I.I.I.I.I.I.I.I.I.I.I.I.I.I.I.I.I.I.",
"I.I.I.I.I.I.I.I.I.I.I.I.I.I.I.I.I.I.I.I.I.I.I.I.I.I.I.I.I.I.I.I.I.I.I.I.I.I.I.I.I.I.I.I.I.I.I.I.",
"I.I.I.I.I.I.I.I.I.I.I.I.I.I.I.I.I.I.I.I.I.I.I.I.I.I.I.I.I.I.I.I.I.I.I.I.I.I.I.I.I.I.I.I.I.I.I.I.",
"I.I.I.I.I.I.I.I.I.I.I.I.I.I.I.I.I.I.I.I.I.I.I.I.I.I.I.I.I.I.I.I.I.I.I.I.I.I.I.I.I.I.I.I.I.I.I.I.",
"I.I.I.I.I.I.I.I.I.I.I.I.I.I.I.I.I.I.I.I.I.I.I.I.I.I.I.I.I.I.I.I.I.I.I.I.I.I.I.I.I.I.I.I.I.I.I.I.",
"I.I.I.I.I.I.I.I.I.I.I.I.I.I.I.I.I.I.I.I.I.I.I.I.I.I.I.I.I.I.I.I.I.I.I.I.I.I.I.I.I.I.I.I.I.I.I.I.",
"I.I.I.I.I.I.I.I.I.I.I.I.I.I.I.I.I.I.I.I.I.I.I.I.I.I.I.I.I.I.I.I.I.I.I.I.I.I.I.I.I.I.I.I.I.I.I.I.",
"I.I.I.I.I.I.I.I.I.I.I.I.I.I.I.I.I.I.I.I.I.I.I.I.I.I.I.I.I.I.I.I.I.I.I.I.I.I.I.I.I.I.I.I.I.I.I.I.",
"I.I.I.I.I.I.I.I.I.I.I.I.I.I.I.I.I.I.I.I.I.I.I.I.I.I.I.I.I.I.I.I.I.I.I.I.I.I.I.I.I.I.I.I.I.I.I.I."
};
