/* XPM */
static const char *players_25[] = {
/* columns rows colors chars-per-pixel */
"32 32 10 1 ",
"  c #0E071B",
". c #5D2C28",
"X c #134C4C",
"o c #704643",
"O c #33984B",
"+ c #D29F70",
"@ c #0069AA",
"# c #0098DC",
"$ c #F6CA9F",
"% c None",
/* pixels */
"%%%%%%%%%%%%%%%%%%%%%%%%%%%%%%%%",
"%%%%%%%%%%%%%%%%%%%%%%%%%%%%%%%%",
"%%%%%%%%%%%%%%%%%%%%%%%%%%%%%%%%",
"%%%%%%%%%%%%%%%%%%%%%%%%%%%%%%%%",
"%%%%%%%%%%%%%       %%%%%%%%%%%%",
"%%%%%%%%%%%% ..oooo. %%%%%%%%%%%",
"%%%%%%%%%%% oooooooo. %%%%%%%%%%",
"%%%%%%%%%% oooooooooo %%%%%%%%%%",
"%%%%%%%%%% oooooooooo. %%%%%%%%%",
"%%%%%%%%%% oo.oo.  .o. %%%%%%%%%",
"%%%%%%%%%% ...o. ++  . %%%%%%%%%",
"%%%%%%%%%% .. . +$$+  %%%%%%%%%%",
"%%%%%%%%%% o + + $$  %%%%%%%%%%%",
"%%%%%%%%%% o ++$ $$  %%%%%%%%%%%",
"%%%%%%%%%%% +++$$$$+ %%%%%%%%%%%",
"%%%%%%%%%%%% +++$$+ %%%%%%%%%%%%",
"%%%%%%%%%%%% XXXOOX %%%%%%%%%%%%",
"%%%%%%%%%%%% XX$$OX %%%%%%%%%%%%",
"%%%%%%%%%%%% #X$$#@ %%%%%%%%%%%%",
"%%%%%%%%%%% ..###@@ %%%%%%%%%%%%",
"%%%%%%%%%%% ..  @@@ %%%%%%%%%%%%",
"%%%%%%%%%%%   %% @.. %%%%%%%%%%%",
"%%%%%%%%%%%%%%%%% .. %%%%%%%%%%%",
"%%%%%%%%%%%%%%%%%%%%%%%%%%%%%%%%",
"%%%%%%%%%%%%%%%%%%%%%%%%%%%%%%%%",
"%%%%%%%%%%%%%%%%%%%%%%%%%%%%%%%%",
"%%%%%%%%%%%%%%%%%%%%%%%%%%%%%%%%",
"%%%%%%%%%%%%%%%%%%%%%%%%%%%%%%%%",
"%%%%%%%%%%%%%%%%%%%%%%%%%%%%%%%%",
"%%%%%%%%%%%%%%%%%%%%%%%%%%%%%%%%",
"%%%%%%%%%%%%%%%%%%%%%%%%%%%%%%%%",
"%%%%%%%%%%%%%%%%%%%%%%%%%%%%%%%%"
};
